<svg width="191" height="40" viewBox="0 0 191 40" fill="none" xmlns="http://www.w3.org/2000/svg">
<path d="M28.7613 14.7822C28.6719 14.8802 28.5951 14.9674 28.5183 15.079C28.5184 15.1033 28.5167 15.0996 28.4945 15.1013C28.3576 15.2567 28.1963 15.3956 28.1366 15.5668C27.9123 16.2098 27.8293 16.872 27.8487 17.5555C27.8914 19.0617 27.9023 20.5689 27.9176 22.0758C27.927 23.0101 27.9134 23.9446 27.9248 24.8789C27.9292 25.2381 27.8158 25.5203 27.5013 25.7308C27.4356 25.7748 27.4091 25.8805 27.3784 25.9626C27.3185 26.1222 27.2712 26.2861 27.2135 26.4466C27.1724 26.5607 27.1227 26.6721 27.0769 26.7848C27.0806 26.7984 27.0767 26.8095 27.0557 26.8208C26.9448 26.8705 26.8238 26.8977 26.745 26.9681C26.4818 27.2031 26.2368 27.4565 25.9779 27.6961C25.9007 27.7676 25.801 27.817 25.7292 27.8647C25.7028 27.6514 25.6632 27.4764 25.6621 27.3013C25.6475 24.7871 25.6372 22.2729 25.6278 19.7588C25.6249 18.9865 25.5921 18.2122 25.6398 17.4427C25.6739 16.8906 25.7884 16.3377 25.9238 15.7983C26.0443 15.3183 26.2428 14.8562 26.4051 14.3609C26.4033 14.3356 26.406 14.3388 26.4284 14.3379C26.7451 14.0959 27.0316 13.8501 27.0626 13.4443C27.0859 13.412 27.1093 13.3798 27.1458 13.3397C27.3874 13.1874 27.6293 13.0589 27.8413 12.895C28.2409 12.5861 28.6233 12.2568 29.0485 11.9168C29.3494 11.6858 29.6146 11.4739 29.8798 11.2621C29.8798 11.2621 29.8811 11.2656 29.8796 11.2643C29.9943 11.2854 30.1104 11.3077 30.1534 11.316C30.3307 11.1944 30.4499 11.0942 30.5857 11.0229C31.0392 10.785 31.5011 10.5619 31.955 10.3248C32.4076 10.0883 32.859 9.84894 33.3002 9.59393C33.3982 9.53731 33.4514 9.40988 33.5215 9.29223C33.5179 9.26942 33.5189 9.26834 33.5434 9.27861C33.7729 9.28886 33.943 9.24804 33.9369 9.0009C33.9369 9.0009 33.9393 9.00643 33.9616 9.00752C34.1751 8.91768 34.3948 8.8586 34.5523 8.7299C35.0278 8.34118 35.5009 7.94523 35.9313 7.51246C36.1716 7.27082 36.4859 7.0298 36.4262 6.62022C36.4262 6.62022 36.4275 6.62494 36.4477 6.62244C36.7026 6.22175 36.9384 5.82424 37.1667 5.42281C37.1754 5.40751 37.1113 5.35434 37.0758 5.30738C37.0461 5.28947 37.0218 5.28299 36.9731 5.27694C36.5375 5.44124 36.441 5.78448 36.3993 6.15897C36.3993 6.15897 36.3938 6.14891 36.373 6.15278C36.2971 6.24043 36.2421 6.32421 36.1871 6.408C36.1871 6.42712 36.1787 6.44172 36.1291 6.4451C35.9865 6.3682 35.903 6.31601 35.8333 6.49924C35.7801 6.63913 35.68 6.78189 35.5602 6.87616C35.0167 7.30371 34.4558 7.71101 33.9091 8.13491C33.821 8.20321 33.7729 8.31863 33.7063 8.41227C33.7063 8.41227 33.7002 8.4057 33.6773 8.40376C33.2913 8.51755 32.9187 8.61178 32.5683 8.75561C32.273 8.87685 32.015 9.0809 31.72 9.20315C31.2798 9.38559 30.8028 9.47634 30.4157 9.78468C30.2218 9.93916 29.9666 10.0935 29.7288 10.1096C29.4357 10.1294 29.3338 10.2698 29.2371 10.4731C29.2071 10.4937 29.1772 10.5142 29.1287 10.5372C28.922 10.5664 28.7017 10.5422 28.5516 10.629C28.0274 10.9323 27.5242 11.2695 27.0215 11.6053C26.9342 11.6636 26.8879 11.7779 26.8253 11.8893C26.8279 11.9122 26.8244 11.9089 26.8107 11.9177C26.7801 11.9443 26.7632 11.962 26.7463 11.9797C26.7463 11.9797 26.7479 11.9718 26.7281 11.9703C26.3579 11.9473 26.2764 12.0213 26.2638 12.3718L26.2626 12.3735C26.1051 12.4424 25.9304 12.4883 25.7953 12.5849C25.6117 12.7164 25.4583 12.8865 25.292 13.0401C25.2525 13.0264 25.2131 13.0127 25.1737 12.999C25.1737 12.7058 25.1569 12.4116 25.1769 12.1197C25.2309 11.3305 25.3548 10.5482 25.6951 9.82312C25.9579 9.2631 26.0779 8.64268 26.5309 8.15679C26.7672 7.90325 26.8928 7.5553 27.0704 7.22711C27.1927 7.127 27.3225 7.06031 27.4318 6.97078C28.0141 6.4938 28.5927 6.01262 29.1685 5.52839C29.2368 5.47091 29.2798 5.38596 29.3328 5.29C29.331 5.26624 29.3329 5.26809 29.3569 5.27545C29.4857 5.26136 29.5912 5.24214 29.6954 5.21807C30.1559 5.11173 30.453 4.73637 30.9205 4.59619C31.7574 4.3453 32.5418 3.93955 33.3646 3.63968C34.1725 3.34523 35.0017 3.10438 35.8195 2.83425C35.9931 2.77689 36.1569 2.69252 36.3268 2.62425C36.7713 2.44562 37.2219 2.27946 37.6579 2.08351C37.7544 2.04012 37.8006 1.89429 37.8699 1.79563C37.8699 1.79563 37.872 1.80121 37.8919 1.80141C37.9528 1.76985 37.9938 1.73809 38.0348 1.70634L38.0366 1.70485C38.4739 1.51603 38.9213 1.34629 39.3403 1.12697C39.4769 1.05546 39.5395 0.854695 39.6321 0.689337C39.6282 0.665629 39.6293 0.6663 39.6537 0.666348C39.8693 0.604378 40.0598 0.541941 40.0306 0.290929C40.0306 0.290929 40.0329 0.2967 40.0545 0.29722C40.2522 0.198098 40.4283 0.098457 40.6023 0C40.673 0.0609297 40.7508 0.127959 40.8286 0.194991C40.8286 0.194991 40.8356 0.202042 40.8329 0.20335C40.8343 0.540675 40.8104 0.879599 40.8481 1.21215C40.948 2.09451 40.963 2.97255 40.7916 3.84774C40.7002 4.31397 40.6439 4.79234 40.4917 5.24033C40.2987 5.80801 40.0311 6.35322 39.7821 6.90244C39.6625 7.16609 39.5596 7.45796 39.3653 7.66514C38.87 8.19319 38.5144 8.84216 37.8587 9.23791C37.695 9.33673 37.6161 9.56403 37.4987 9.7555C37.4992 9.77873 37.4973 9.77524 37.4726 9.77514C37.2971 9.77952 37.1594 9.79614 37.2199 9.99804C37.2199 9.99804 37.2117 10.0124 37.1797 10.0031C37.1084 10.037 37.0692 10.0801 37.0299 10.1231C37.0299 10.1231 37.0202 10.1394 36.9875 10.1319C36.7024 10.2189 36.3969 10.2457 36.3276 10.5738C36.3276 10.5738 36.3212 10.5829 36.2914 10.5708C36.1281 10.5436 35.9944 10.5284 35.8607 10.5132C35.8762 10.5354 35.8917 10.5576 35.9072 10.5798C35.7752 10.6646 35.6538 10.789 35.5085 10.8247C35.2986 10.8764 35.1741 10.9494 35.203 11.1717C35.1742 11.1918 35.1453 11.2118 35.0836 11.219C34.8327 11.0209 34.7248 11.2609 34.5744 11.3232C33.9712 11.5731 33.3714 11.8303 32.7464 12.0903C32.5672 12.1907 32.412 12.2856 32.2568 12.3805C32.2331 12.3932 32.2094 12.4059 32.1453 12.4135C32.0205 12.4503 31.936 12.4921 31.8515 12.5339C31.7639 12.5817 31.6762 12.6295 31.5535 12.6695C31.4798 12.6906 31.4412 12.7195 31.4025 12.7484C31.3734 12.7655 31.3443 12.7827 31.2825 12.7886C31.2 12.8109 31.1503 12.8446 31.1006 12.8783C31.1006 12.8783 31.0945 12.8763 31.0693 12.8703C30.9452 12.9317 30.8464 12.999 30.7476 13.0663C30.7042 13.096 30.6608 13.1258 30.5733 13.1582C29.8452 13.2509 29.5063 13.7569 29.135 14.2223C29.1213 14.2394 29.1425 14.2819 29.1475 14.3125C29.1475 14.3125 29.1474 14.322 29.1174 14.3211C29.0511 14.3833 29.0147 14.4464 28.9782 14.5096C28.9603 14.5342 28.9423 14.5589 28.9004 14.6008C28.8642 14.6325 28.8521 14.6471 28.8401 14.6617C28.8181 14.6983 28.796 14.7349 28.7613 14.7822Z" fill="#518A3D"/>
<path d="M37.8226 27.2674C37.8202 27.2978 37.8177 27.3283 37.8074 27.3992C37.7845 27.4902 37.7693 27.5407 37.7412 27.6097C37.5861 27.9774 37.4441 28.3265 37.302 28.6756C37.302 28.6756 37.2955 28.6822 37.2853 28.6965C37.2677 28.7309 37.2602 28.7509 37.2398 28.7888C37.1521 29.1373 36.9699 29.2557 36.6045 29.1641C36.295 29.0865 35.9663 29.0784 35.6232 29.0306C35.4846 29.0086 35.3689 28.9956 35.232 28.9751C35.1806 28.9682 35.1505 28.9689 35.1026 28.9602C35.0317 28.9442 34.9786 28.9373 34.9043 28.9213C34.8526 28.914 34.822 28.9158 34.7765 28.9129C34.7615 28.9082 34.7304 28.9125 34.7159 28.9043C34.6902 28.8979 34.6792 28.8998 34.6562 28.8889C34.6096 28.874 34.5747 28.8718 34.5124 28.8617C34.2615 28.8251 34.0382 28.7967 33.7962 28.7551C33.6847 28.7357 33.592 28.7294 33.48 28.7171C33.0901 28.7984 33.1581 29.1091 33.0998 29.3523C33.0982 29.3482 33.1067 29.3455 33.0922 29.3575C33.0635 29.3897 33.0493 29.41 33.037 29.4256C33.0389 29.4208 33.0485 29.4252 33.0235 29.4225C32.6828 29.5512 32.6347 29.8324 32.5758 30.1058C32.5758 30.1058 32.5802 30.1043 32.5567 30.1061C32.1681 30.3162 31.9724 30.7886 32.1564 31.1273C32.3393 31.4641 32.5662 31.7805 32.7946 32.0919C32.8411 32.1554 32.9798 32.1571 33.0791 32.1884C33.0821 32.1897 33.0805 32.1958 33.0702 32.2184C33.0921 32.5059 33.2112 32.7051 33.4984 32.7762C33.4955 32.7772 33.4978 32.7717 33.4948 32.7966C33.5703 32.9718 33.6348 33.1308 33.7304 33.2703C33.886 33.4972 34.0145 33.708 33.7574 33.9515C33.7054 34.0008 33.7065 34.1013 33.677 34.1941C33.6362 34.2393 33.6016 34.2686 33.5409 34.2983C33.4617 34.3708 33.4084 34.443 33.3497 34.5255C33.3443 34.5358 33.3216 34.5438 33.2996 34.5367C33.2426 34.5821 33.2076 34.6344 33.168 34.6812C33.1634 34.6756 33.1747 34.6849 33.1487 34.6817C32.881 34.6806 32.7727 34.7874 32.8252 35.0308C32.8223 35.0393 32.804 35.0427 32.7797 35.0328C32.4775 34.9296 32.1966 34.8439 31.9226 34.7413C31.6059 34.6227 31.2953 34.4892 30.9846 34.3614C30.9846 34.3614 30.9852 34.3655 30.9849 34.3429C30.6995 33.9525 30.3237 33.7197 29.8605 33.622C29.8665 33.6182 29.8568 33.6283 29.8547 33.6058C29.7894 33.5533 29.7263 33.5232 29.6658 33.4925C29.6684 33.4918 29.6673 33.4969 29.6649 33.4777C29.3334 33.3417 29.1053 33.4597 28.9784 33.8125C28.9784 33.8125 28.9777 33.8144 28.9522 33.8109C28.812 33.8352 28.6832 33.8402 28.5849 33.8951C28.2101 34.1045 27.835 34.3164 27.4826 34.5575C27.371 34.6337 27.2613 34.8081 27.2691 34.9306C27.2942 35.3224 27.3693 35.7117 27.4354 36.1004C27.5223 36.6122 27.6072 37.1248 27.7156 37.6326C27.7867 37.9656 27.728 38.202 27.3514 38.3073C27.1653 38.3594 26.968 38.412 26.8122 38.5148C26.6613 38.6144 26.3528 38.5133 26.3601 38.8202C26.3601 38.8202 26.3582 38.8201 26.3275 38.8162C25.9148 38.8409 25.5798 38.792 25.4703 38.3615C25.4634 38.3346 25.4273 38.3155 25.4096 38.2898C25.0926 37.8295 24.7934 37.3568 24.4531 36.913C24.2713 36.6759 24.2013 36.3263 23.8282 36.2532C23.8311 36.2522 23.8292 36.2578 23.8253 36.2342C23.6746 36.1887 23.5268 36.1444 23.3812 36.1504C23.1994 36.1578 23.0199 36.2093 22.8385 36.2369C22.3916 36.305 21.9424 36.3614 21.4985 36.444C21.4065 36.4611 21.3335 36.5712 21.2513 36.6359C21.2513 36.6359 21.2562 36.6342 21.2309 36.6352C21.1397 36.8298 21.0591 37.0202 21.0103 37.2178C20.8162 38.0037 20.6142 38.7886 20.4553 39.5812C20.4082 39.8161 20.3137 39.9162 20.0905 39.9285C19.6243 39.9543 19.1567 39.9612 18.6915 39.9973C18.3608 40.0229 18.249 39.8663 18.2114 39.585C18.1675 39.2564 18.1078 38.9287 18.0353 38.6047C17.9182 38.0817 17.7959 37.5591 17.6512 37.0426C17.6141 36.9104 17.4846 36.8019 17.3875 36.6731C17.3686 36.6477 17.3626 36.6308 17.3506 36.5917C17.3188 36.5489 17.299 36.513 17.2726 36.5077C16.6232 36.3796 15.9771 36.2235 15.3208 36.1465C15.098 36.1203 14.7819 35.9916 14.5899 36.3136C14.3593 36.7004 14.0455 37.0461 13.8494 37.4462C13.7169 37.7164 13.3598 37.8956 13.4486 38.2537C13.4431 38.2439 13.455 38.2637 13.4313 38.2617C13.1299 38.2625 13.0821 38.4838 12.9703 38.6578C12.9163 38.7418 12.7611 38.8534 12.6983 38.8313C12.1626 38.6434 11.6332 38.4368 11.1136 38.2113C11.0285 38.1743 10.939 38.0079 10.9549 37.9181C11.1063 37.067 11.2674 36.217 11.4535 35.3723C11.5298 35.0261 11.6745 34.6956 11.2121 34.4959C10.8759 34.3508 10.6272 34.0281 10.2127 34.0435C10.2127 34.0435 10.2138 34.0464 10.2096 34.0247C10.0675 33.9297 9.92952 33.8564 9.78252 33.7831C9.77348 33.7833 9.76399 33.7685 9.77408 33.7457C9.78644 33.6923 9.80073 33.6405 9.78922 33.6346C9.56857 33.5214 9.31964 33.2955 9.12793 33.333C8.86106 33.3852 8.52085 33.5141 8.46254 33.8728C8.45903 33.8691 8.46843 33.8733 8.44129 33.869C8.24182 33.9164 8.05089 33.9384 7.90063 34.025C7.45216 34.2834 7.0122 34.557 6.58371 34.8448C6.33565 35.0114 6.16395 34.9509 5.95692 34.777C5.82887 34.6694 5.64005 34.628 5.48132 34.556C5.48413 34.5551 5.48223 34.5604 5.48394 34.5367C5.34946 34.3069 5.23549 34.0826 5.07094 33.8999C4.9006 33.7107 4.87868 33.5292 5.00131 33.3317C5.15041 33.0916 5.30992 32.8558 5.48445 32.632C5.68951 32.3691 5.92535 32.1281 6.12923 31.8644C6.28142 31.6675 6.38385 31.4341 6.54454 31.245C6.79474 30.9505 6.81478 30.7299 6.57563 30.4465C6.47441 30.3266 6.39989 30.1853 6.2936 30.0703C6.14213 29.9064 5.97258 29.7578 5.8133 29.6024C5.8133 29.6024 5.81434 29.6069 5.81667 29.5804C5.88897 29.2352 5.63136 29.0583 5.46504 28.8529C5.37184 28.7378 5.20174 28.5944 5.07666 28.6029C4.53121 28.64 3.98974 28.7294 3.44648 28.7973C2.98285 28.8553 2.51902 28.912 2.05474 28.9651C1.79469 28.9948 1.64986 28.8665 1.56975 28.6389C1.47403 28.3671 1.37605 28.0949 1.25736 27.8318C1.1674 27.6324 0.99567 27.4378 1.18608 27.2298C1.33772 27.0641 1.52149 26.918 1.71351 26.7955C1.91393 26.6675 2.15625 26.5979 2.35049 26.4635C2.44595 26.3975 2.47416 26.2426 2.53409 26.1321C2.53538 26.1362 2.52652 26.1381 2.54256 26.1314C2.57703 26.1113 2.59547 26.098 2.62621 26.0678C2.71305 26.0113 2.78759 25.9716 2.87734 25.9463C3.2676 25.755 3.64359 25.5507 4.01566 25.34C4.04167 25.3253 4.05337 25.2611 4.04665 25.224C3.98927 24.9078 3.93134 24.5915 3.86322 24.2772C3.79065 23.9424 3.64988 23.6108 3.64367 23.2761C3.63728 22.9312 3.47554 22.8282 3.17424 22.7604C2.20411 22.542 1.23674 22.3121 0.272022 22.0729C0.186196 22.0516 0.0722719 21.9354 0.0651415 21.8557C0.0272475 21.4319 0.017651 21.0057 0.00141018 20.5802C-0.0139486 20.1777 0.0919368 20.069 0.527323 20.0043C0.785119 19.966 1.04162 19.9174 1.2965 19.8639C1.84658 19.7485 2.39113 19.6031 2.94576 19.515C3.40584 19.4419 3.62071 19.2345 3.58808 18.793C3.58281 18.7218 3.59815 18.6471 3.61532 18.5766C3.73277 18.0941 3.86588 17.6145 3.9623 17.1282C3.9821 17.0284 3.89829 16.8717 3.8103 16.7977C3.56932 16.595 3.30654 16.4138 3.03846 16.2442C2.97875 16.2065 2.86186 16.2513 2.75196 16.2527C2.69028 16.2158 2.64794 16.1845 2.60352 16.1299C2.29572 15.6594 1.90211 15.3263 1.33557 15.2164C1.33557 15.2164 1.3332 15.2149 1.33826 15.1917C1.3007 15.0903 1.24732 15.0155 1.21853 14.9328C1.19086 14.8534 1.15571 14.7553 1.18093 14.6838C1.29173 14.3696 1.43061 14.0646 1.54559 13.7516C1.75633 13.178 1.93417 13.0801 2.56293 13.1944C3.21457 13.3129 3.86685 13.4287 4.52054 13.5362C5.25513 13.6571 5.72797 13.341 5.84794 12.6717C6.15783 12.3344 6.4684 12.0166 6.71852 11.66C6.79269 11.5543 6.74204 11.3181 6.67002 11.1787C6.47402 10.7997 6.26957 10.4162 6.00457 10.0806C5.77123 9.78509 5.67612 9.3647 5.23662 9.22516C5.22862 9.22138 5.22836 9.20431 5.22842 9.17809C5.14364 8.82968 4.97034 8.5216 5.05724 8.16725C5.05711 8.16252 5.06691 8.16125 5.08589 8.17441C5.17318 8.17073 5.2618 8.17432 5.30651 8.13372C5.60486 7.8628 5.88407 7.57184 6.19273 7.31266C6.2696 7.24811 6.46575 7.22232 6.54924 7.27042C7.22368 7.65903 7.87902 8.07789 8.55244 8.46819C8.75083 8.58318 8.98847 8.63626 9.22431 8.71983C9.26129 8.72843 9.28119 8.73684 9.30652 8.76114C9.35205 8.75679 9.39126 8.73847 9.43331 8.71547C9.43616 8.7108 9.44641 8.71537 9.47561 8.71808C9.6153 8.69221 9.74036 8.68623 9.8338 8.6312C10.2664 8.37638 10.6804 8.09162 11.1201 7.84929C11.5089 7.63506 11.6644 7.39185 11.5378 6.9802C11.4315 6.63485 11.5003 6.28072 11.3598 5.92095C11.1829 5.4678 11.2 4.94439 11.1415 4.45041C11.1164 4.23775 11.211 4.1032 11.4377 4.02852C11.7736 3.91784 12.1105 3.79798 12.4241 3.64047C12.7322 3.48575 12.8869 3.48953 13.0897 3.76473C13.3407 4.10519 13.5719 4.45987 13.8383 4.78866C13.9559 4.93388 14.1392 5.03051 14.2887 5.1499C14.2847 5.1506 14.2836 5.14292 14.2933 5.15718C14.32 5.18721 14.337 5.20299 14.3505 5.21851C14.347 5.21825 14.3477 5.21169 14.3563 5.2249C14.3776 5.25522 14.3926 5.27014 14.4191 5.29937C14.4472 5.36062 14.4663 5.40538 14.4877 5.47329C14.5485 5.61905 14.5981 5.74643 14.6671 5.86339C14.8955 6.2506 14.9324 6.26079 15.3913 6.14737C15.637 6.08665 15.8831 6.02573 16.132 5.97928C16.4902 5.91244 16.8587 5.88397 17.2072 5.78754C17.3571 5.74604 17.5237 5.59743 17.5843 5.4583C17.6891 5.21775 17.7119 4.94541 17.7783 4.68857C17.9526 4.01461 18.1214 3.33897 18.3202 2.67156C18.351 2.56807 18.5236 2.44077 18.6383 2.4334C19.1138 2.40285 19.5928 2.39879 20.0693 2.41656C20.3007 2.4252 20.5189 2.50079 20.5257 2.80256C20.5273 2.87251 20.6521 2.93993 20.7193 3.00894C20.7193 3.00894 20.7199 3.01036 20.7152 3.03144C20.7085 3.06678 20.7066 3.08103 20.7018 3.10978C20.6989 3.12427 20.6909 3.15277 20.6796 3.17031C20.6987 3.30099 20.7291 3.41413 20.7651 3.53942C20.7706 3.55157 20.7732 3.57794 20.7715 3.60348C20.6514 4.35955 21.0628 4.99123 21.1987 5.67441C21.2128 5.74539 21.3752 5.82121 21.4792 5.83889C22.1526 5.95329 22.8286 6.05399 23.5045 6.154C23.5959 6.16752 23.7307 6.1895 23.7795 6.14359C24.0299 5.90788 24.3264 5.69102 24.3304 5.30277C24.3304 5.30277 24.3346 5.29988 24.3583 5.30332C24.4221 5.23424 24.4623 5.16171 24.5049 5.07563C24.5144 5.04351 24.5278 5.03116 24.5716 5.02264C24.7103 4.94686 24.8569 4.89588 24.9339 4.79594C25.1934 4.45939 25.4352 4.10963 25.6666 3.7547C25.7149 3.68062 25.6898 3.56286 25.6985 3.46182C25.6985 3.45841 25.7052 3.45593 25.7333 3.45932C25.9553 3.52586 26.1488 3.58968 26.3428 3.652C26.6808 3.76057 27.0228 3.85925 27.3544 3.98339C27.4255 4.01 27.4989 4.12493 27.5043 4.20337C27.5576 4.9822 27.4094 5.71048 26.4954 6.04754C26.3099 6.11597 26.1641 6.22569 26.2681 6.46056C26.2635 6.46879 26.2439 6.47044 26.2211 6.46175C26.1431 6.50946 26.0879 6.56586 26.0252 6.61762C26.0176 6.61298 26.034 6.61992 26.0057 6.61515C25.8196 6.60095 25.662 6.59176 25.7316 6.82917C25.7295 6.83546 25.7158 6.83407 25.6913 6.82725C25.3964 6.94124 25.1211 7.0535 24.8593 7.18964C24.8028 7.21905 24.7951 7.33439 24.7547 7.42585C24.7097 7.45615 24.6749 7.47076 24.6337 7.46825C24.3708 7.39693 24.2233 7.49274 24.186 7.74266C24.186 7.74266 24.1882 7.74318 24.1634 7.74094C23.9392 7.77629 23.7126 7.76862 23.5452 7.86001C23.064 8.12265 22.6156 8.43997 22.1354 8.70431C21.9688 8.79601 21.7461 8.83215 21.5499 8.82979C21.0292 8.82351 20.5087 8.75621 19.9886 8.7615C19.275 8.76876 18.5605 8.86259 17.8488 8.84196C17.0679 8.81933 16.3505 9.07172 15.6476 9.29044C14.6626 9.5969 13.724 10.0498 12.7898 10.4874C12.5737 10.5886 12.2359 10.6605 12.2014 10.9953C12.1988 10.9933 12.2032 10.9886 12.1876 10.9995C12.1556 11.0291 12.1392 11.0479 12.1111 11.0817C12.0641 11.1127 12.0288 11.1287 11.9896 11.1387C11.9856 11.1328 11.9779 11.1303 11.9779 11.1303C11.9779 11.1303 11.9885 11.147 11.9829 11.1551C11.9772 11.1632 11.9569 11.1638 11.9331 11.1558C11.348 11.2453 11.0644 11.7132 10.6581 12.0162C10.602 12.058 10.6148 12.1842 10.5948 12.2782C10.5939 12.2852 10.5794 12.2868 10.5562 12.28C10.4705 12.3436 10.408 12.4139 10.3464 12.486C10.3464 12.486 10.3438 12.4861 10.321 12.4891C10.2654 12.5439 10.2327 12.5956 10.1998 12.6494C10.1998 12.6494 10.1952 12.6516 10.1714 12.6486C10.0356 12.7042 9.89166 12.7382 9.81682 12.8259C9.44338 13.2638 9.09395 13.7204 8.72413 14.1612C8.51307 14.4128 8.38762 14.6857 8.39432 15.0078C8.39432 15.0078 8.39885 15.0052 8.3761 15.0083C8.12293 15.3692 7.84817 15.7084 7.67325 16.0895C7.45231 16.5709 7.29982 17.0827 7.14097 17.588C6.8736 18.4386 6.65863 19.3005 6.60961 20.1929C6.60459 20.2843 6.56396 20.3735 6.55366 20.4652C6.52442 20.7254 6.45126 20.9931 6.48709 21.2459C6.59111 21.98 6.73961 22.7083 6.87139 23.4387C6.95794 23.9184 6.99051 24.4151 7.14586 24.8736C7.38206 25.5708 7.64067 26.2745 8.00608 26.9148C8.41104 27.6244 8.93717 28.2723 9.42821 28.9351C9.96288 29.6568 10.614 30.2797 11.3179 30.8492C11.6144 31.0891 11.8561 31.441 12.3224 31.4039C12.3224 31.4039 12.32 31.4001 12.3206 31.4229C12.7957 31.9038 13.3017 32.308 14.0183 32.3499C14.0183 32.3499 14.0181 32.3489 14.025 32.3697C14.088 32.4372 14.1365 32.5075 14.2016 32.527C15.0532 32.7821 15.8221 33.2595 16.7521 33.3147C17.4644 33.357 18.1676 33.5473 18.8797 33.5832C19.492 33.614 20.1153 33.549 20.7263 33.4724C21.4116 33.3864 22.0921 33.2548 22.7678 33.1133C23.1019 33.0433 23.4257 32.9187 23.7449 32.7969C24.184 32.6293 24.6164 32.445 25.046 32.256C25.0952 32.2344 25.1079 32.1368 25.1454 32.0769C25.1533 32.0794 25.1368 32.077 25.1629 32.0815C25.256 32.0377 25.3229 31.9894 25.3914 31.9447C25.3929 31.9483 25.3939 31.9407 25.4193 31.947C25.5411 31.8906 25.6375 31.8278 25.7342 31.7674C25.7342 31.7674 25.7295 31.7696 25.7563 31.7729C25.9158 31.7417 26.0743 31.7401 26.1767 31.6668C26.6491 31.3285 27.1089 30.9737 27.5642 30.6145C27.6166 30.5732 27.6134 30.4675 27.6379 30.3949C27.6399 30.3983 27.633 30.3944 27.6588 30.3971C28.0323 30.3505 28.3141 30.0615 28.3207 29.7412C28.3215 29.7341 28.3361 29.7313 28.3592 29.7382C28.7807 29.4158 29.3196 29.1934 29.3506 28.5855C29.3506 28.5855 29.3471 28.5868 29.3721 28.5873C29.492 28.5309 29.6202 28.4946 29.6758 28.4131C29.8951 28.0913 30.0945 27.7567 30.2959 27.4239C30.4592 27.1539 30.6475 26.892 30.7673 26.6046C31.0876 25.8363 31.411 25.0661 31.6651 24.2767C31.806 23.8392 31.8161 23.3623 31.8748 22.9019C31.9367 22.4165 32.0301 21.93 32.0325 21.4436C32.0382 20.2708 31.9898 19.0985 31.6348 17.9615C31.4709 17.4364 31.3016 16.9129 31.1309 16.3897C31.0734 16.2134 31.031 16.0553 31.2167 15.9092C31.2841 15.8561 31.2909 15.7327 31.3293 15.6341C31.3333 15.6268 31.3505 15.6276 31.3746 15.6378C31.4606 15.6402 31.5309 15.6479 31.5832 15.6222C32.2353 15.3017 32.8708 14.9463 33.5393 14.6615C34.0909 14.4264 34.6847 14.2834 35.2507 14.0769C35.3959 14.0239 35.5069 13.8854 35.6337 13.7886C35.6337 13.7886 35.6287 13.7904 35.6578 13.7933C35.9578 13.7489 36.2417 13.7352 36.4962 13.6455C36.7775 13.5463 37.0063 13.4763 37.1773 13.7914C37.1995 13.8325 37.2855 13.842 37.3553 13.8821C37.3905 13.9476 37.4124 13.9971 37.418 14.0591C37.4192 14.1897 37.4088 14.3204 37.4598 14.4234C37.5836 14.6733 37.5129 15.0453 37.2797 15.2013C37.0331 15.3662 36.769 15.5102 36.5385 15.6931C36.4027 15.8009 36.3172 15.9665 36.2081 16.1086C36.2081 16.1086 36.2017 16.1099 36.1756 16.1C35.9324 16.0433 35.836 16.1226 35.8627 16.3269C35.857 16.3175 35.8677 16.3359 35.8423 16.3324C35.763 16.3766 35.7092 16.4244 35.6482 16.4817C35.6277 16.5023 35.6124 16.5061 35.5689 16.502C35.3565 16.5783 35.1725 16.6606 34.9836 16.7308C34.6347 16.8606 34.6491 16.8971 34.7377 17.2558C34.8618 17.758 34.9417 18.2723 35.002 18.7855C35.0233 18.9674 35.0575 19.0837 35.2529 19.141C35.2598 19.151 35.258 19.1749 35.259 19.1987C35.3429 19.2921 35.4152 19.4009 35.5107 19.4246C35.9277 19.5281 36.3503 19.6123 36.773 19.6932C37.2842 19.7911 37.7981 19.8763 38.3099 19.9717C38.5091 20.0088 38.7042 20.0701 38.7196 20.3063C38.7492 20.7625 38.773 21.2192 38.7871 21.676C38.7938 21.8943 38.7061 22.0291 38.4449 22.0882C37.4904 22.3042 36.5413 22.5433 35.5951 22.7906C35.4736 22.8224 35.3806 22.9541 35.2729 23.0329C35.2713 23.0263 35.2852 23.0242 35.2649 23.0371C34.861 23.7944 34.9188 24.6164 34.7351 25.4485C34.9267 25.4485 35.063 25.4485 35.1956 25.4499C35.1919 25.4513 35.1892 25.4441 35.2012 25.4577C35.2333 25.4854 35.2533 25.4995 35.2685 25.5117C35.2636 25.5099 35.2679 25.5007 35.2715 25.5228C35.339 25.5738 35.403 25.6027 35.4643 25.6323C35.4617 25.6331 35.4628 25.628 35.4637 25.6504C35.6287 25.9931 35.8825 26.1766 36.2786 26.1553C36.2869 26.155 36.2929 26.1698 36.2857 26.1912C36.4845 26.5706 36.8043 26.7672 37.2455 26.8286C37.4521 26.9794 37.6374 27.1234 37.8226 27.2674Z" fill="#376D32"/>
<path d="M15.6865 15.9999C16.6948 15.9999 17.703 15.9999 18.7418 15.9999C18.7418 20.3999 18.7418 24.7999 18.7418 29.3333C17.7335 29.3333 16.7253 29.3333 15.6865 29.3333C15.6865 24.9333 15.6865 20.5333 15.6865 15.9999Z" fill="#819911"/>
<path d="M20.4612 13.3333C21.435 13.3333 22.4088 13.3333 23.4121 13.3333C23.4121 18.6133 23.4121 23.8933 23.4121 29.3333C22.4383 29.3333 21.4645 29.3333 20.4612 29.3333C20.4612 24.0533 20.4612 18.7733 20.4612 13.3333Z" fill="#5B8E0F"/>
<path d="M10.9343 19.3333C11.8274 19.3333 12.7205 19.3333 13.6406 19.3333C13.6406 22.1333 13.6406 25.7817 13.6406 28.6666C13.4112 28.5971 13.282 28.5558 13.086 28.4052C13.0215 28.3559 13.0215 28.3559 12.9557 28.3057C12.8897 28.2543 12.8897 28.2543 12.8224 28.2018C12.7785 28.1683 12.7345 28.1347 12.6892 28.1002C12.2968 27.7985 11.9265 27.4517 11.5558 27.0936C11.5168 27.0563 11.4778 27.0191 11.4376 26.9807C11.0444 26.6003 11.0444 26.6003 10.9343 26.3785C10.9116 26.1089 10.9116 26.1089 10.9129 25.7772C10.9129 25.6532 10.9129 25.5291 10.913 25.4013C10.9139 25.2659 10.9149 25.1305 10.9159 24.9951C10.9163 24.8565 10.9165 24.718 10.9167 24.5795C10.9174 24.2151 10.9193 23.8507 10.9214 23.4863C10.9237 23.049 10.9245 22.6117 10.9256 22.1743C10.9275 21.5101 10.9311 19.9975 10.9343 19.3333Z" fill="#ACA612"/>
<path d="M181.836 31.3913C180.711 31.3913 179.636 31.2413 178.613 30.9413C177.59 30.6213 176.69 30.1413 175.913 29.5013C175.155 28.8613 174.552 28.0613 174.102 27.1013C173.652 26.1413 173.427 25.0113 173.427 23.7113C173.427 22.4113 173.652 21.2813 174.102 20.3213C174.552 19.3613 175.155 18.5613 175.913 17.9213C176.69 17.2813 177.59 16.8113 178.613 16.5113C179.636 16.1913 180.711 16.0313 181.836 16.0313C182.961 16.0313 184.015 16.1913 184.997 16.5113C186 16.8313 186.869 17.3113 187.606 17.9513C188.343 18.5713 188.926 19.3613 189.355 20.3213C189.785 21.2813 190 22.4113 190 23.7113C190 23.9313 190 24.0813 190 24.1613C190 24.2213 189.98 24.3513 189.939 24.5513H176.557C176.782 26.0513 177.376 27.1713 178.337 27.9113C179.299 28.6513 180.486 29.0113 181.897 28.9913C183.084 28.9713 184.117 28.7513 184.997 28.3313C185.898 27.9113 186.563 27.1413 186.992 26.0213L189.754 26.3813C189.468 27.2813 189.059 28.0513 188.527 28.6913C188.015 29.3313 187.412 29.8513 186.716 30.2513C186.02 30.6313 185.253 30.9213 184.414 31.1213C183.596 31.3013 182.736 31.3913 181.836 31.3913ZM181.897 18.3413C181.222 18.3413 180.547 18.4713 179.872 18.7313C179.197 18.9713 178.603 19.3513 178.092 19.8713C177.58 20.3713 177.171 21.0113 176.864 21.7913C176.578 22.5713 176.475 23.4913 176.557 24.5513C176.68 24.1513 176.813 23.8313 176.956 23.5913C177.12 23.3513 177.304 23.1713 177.508 23.0513C177.734 22.9313 177.979 22.8513 178.245 22.8113C178.532 22.7713 178.859 22.7513 179.227 22.7513H187.146C186.921 21.2113 186.337 20.1013 185.396 19.4213C184.476 18.7213 183.309 18.3613 181.897 18.3413Z" fill="#279E49" stroke="#279E49" stroke-width="0.5"/>
<path d="M162.508 18.8512V16.0912H163.091C163.439 16.0912 163.797 15.9512 164.165 15.6712C164.554 15.3912 164.902 15.0312 165.209 14.5912C165.516 14.1512 165.772 13.6612 165.976 13.1212C166.181 12.5812 166.283 12.0512 166.283 11.5312L169.322 11.5012C169.281 12.3412 169.076 13.1412 168.708 13.9012C168.339 14.6412 167.797 15.2412 167.081 15.7012C166.815 15.8612 166.488 15.9812 166.099 16.0612C165.731 16.1212 165.393 16.1812 165.086 16.2412V16.3012C165.393 16.2412 165.731 16.1912 166.099 16.1512C166.488 16.1112 166.836 16.0912 167.143 16.0912H172.575V18.8512H168.677V26.8312C168.677 27.4912 168.841 27.9312 169.168 28.1512C169.496 28.3512 169.895 28.4512 170.365 28.4512H173.312V31.2112H170.519C169.516 31.2112 168.698 31.1212 168.063 30.9412C167.429 30.7412 166.938 30.4412 166.59 30.0412C166.242 29.6412 165.997 29.1312 165.853 28.5112C165.731 27.8712 165.669 27.1212 165.669 26.2612V18.8512H162.508Z" fill="#279E49" stroke="#279E49" stroke-width="0.5"/>
<path d="M146.295 16.2114H149.518L153.477 26.0514C153.62 26.3714 153.722 26.7314 153.784 27.1314C153.845 27.5314 153.876 27.9014 153.876 28.2414H153.937C153.937 27.9014 153.968 27.5314 154.029 27.1314C154.111 26.7314 154.224 26.3714 154.367 26.0514L158.357 16.2114H161.579L154.551 33.3414C154.244 34.1814 153.866 34.8714 153.416 35.4114C152.965 35.9514 152.495 36.3814 152.004 36.7014C151.513 37.0214 151.011 37.2414 150.5 37.3614C150.009 37.4814 149.548 37.5414 149.119 37.5414H146.387V35.1714H147.952C148.137 35.1714 148.392 35.1414 148.72 35.0814C149.047 35.0214 149.385 34.9114 149.733 34.7514C150.08 34.5914 150.408 34.3714 150.715 34.0914C151.042 33.8314 151.277 33.4914 151.421 33.0714L152.219 30.6714L146.295 16.2114Z" fill="#279E49" stroke="#279E49" stroke-width="0.5"/>
<path d="M136.471 10.2112C138.844 10.2112 140.665 10.6512 141.934 11.5312C143.223 12.3912 143.867 13.7512 143.867 15.6112C143.867 15.8112 143.816 16.0612 143.714 16.3612C143.632 16.6612 143.489 16.9812 143.284 17.3212C143.08 17.6412 142.814 17.9612 142.486 18.2812C142.159 18.5812 141.76 18.8412 141.289 19.0612C141.064 19.1812 140.798 19.2712 140.491 19.3312C140.185 19.3712 139.908 19.4012 139.663 19.4212V19.4812C139.908 19.4612 140.185 19.4512 140.491 19.4512C140.819 19.4312 141.105 19.4612 141.351 19.5412C142.046 19.7212 142.64 19.9912 143.131 20.3512C143.622 20.7112 144.021 21.1312 144.328 21.6112C144.655 22.0712 144.891 22.5812 145.034 23.1412C145.177 23.7012 145.249 24.2812 145.249 24.8812C145.249 27.1212 144.553 28.7412 143.162 29.7412C141.77 30.7212 139.847 31.2112 137.392 31.2112H127.693V10.2112H136.471ZM130.701 28.4512H137.576C138.21 28.4512 138.814 28.3812 139.387 28.2412C139.959 28.0812 140.461 27.8512 140.89 27.5512C141.32 27.2312 141.658 26.8412 141.903 26.3812C142.169 25.9012 142.302 25.3512 142.302 24.7312C142.302 23.7112 141.944 22.9612 141.228 22.4812C140.532 21.9812 139.56 21.7312 138.312 21.7312H130.701V28.4512ZM130.701 19.3012H137.883C139.11 19.3012 139.97 19.0312 140.461 18.4912C140.972 17.9312 141.228 17.1512 141.228 16.1512C141.228 15.5512 141.095 15.0512 140.829 14.6512C140.583 14.2312 140.246 13.9012 139.816 13.6612C139.407 13.4012 138.926 13.2112 138.374 13.0912C137.821 12.9712 137.248 12.9112 136.655 12.9112H130.701V19.3012Z" fill="#279E49" stroke="#279E49" stroke-width="0.5"/>
<path d="M111.749 16.2113H114.757V19.3013C114.757 19.6013 114.726 19.9413 114.665 20.3213C114.624 20.6813 114.573 21.0113 114.512 21.3113L114.573 21.3413C114.634 21.0413 114.706 20.7113 114.788 20.3513C114.89 19.9913 115.023 19.6713 115.187 19.3913C115.821 18.1913 116.64 17.3213 117.642 16.7813C118.645 16.2413 119.668 15.9713 120.711 15.9713C121.673 15.9713 122.481 16.1813 123.136 16.6013C123.811 17.0213 124.343 17.5813 124.732 18.2813C125.141 18.9813 125.428 19.7913 125.591 20.7113C125.775 21.6113 125.868 22.5613 125.868 23.5613V31.2113H122.86V23.5613C122.86 22.1213 122.594 20.9913 122.062 20.1713C121.53 19.3313 120.742 18.9113 119.699 18.9113C119.31 18.9113 118.829 19.0013 118.256 19.1813C117.704 19.3413 117.161 19.6713 116.629 20.1713C116.118 20.6513 115.678 21.3313 115.31 22.2113C114.941 23.0713 114.757 24.2013 114.757 25.6013V31.2113H111.749V16.2113Z" fill="#376D32" stroke="#376D32" stroke-width="0.5"/>
<path d="M101.78 31.3913C100.655 31.3913 99.5803 31.2413 98.5573 30.9413C97.5342 30.6213 96.6339 30.1413 95.8564 29.5013C95.0993 28.8613 94.4957 28.0613 94.0456 27.1013C93.5954 26.1413 93.3704 25.0113 93.3704 23.7113C93.3704 22.4113 93.5954 21.2813 94.0456 20.3213C94.4957 19.3613 95.0993 18.5613 95.8564 17.9213C96.6339 17.2813 97.5342 16.8113 98.5573 16.5113C99.5803 16.1913 100.655 16.0313 101.78 16.0313C102.905 16.0313 103.959 16.1913 104.941 16.5113C105.944 16.8313 106.813 17.3113 107.55 17.9513C108.287 18.5713 108.87 19.3613 109.299 20.3213C109.729 21.2813 109.944 22.4113 109.944 23.7113C109.944 23.9313 109.944 24.0813 109.944 24.1613C109.944 24.2213 109.923 24.3513 109.882 24.5513H96.5009C96.726 26.0513 97.3194 27.1713 98.281 27.9113C99.2427 28.6513 100.429 29.0113 101.841 28.9913C103.028 28.9713 104.061 28.7513 104.941 28.3313C105.841 27.9113 106.506 27.1413 106.936 26.0213L109.698 26.3813C109.412 27.2813 109.003 28.0513 108.471 28.6913C107.959 29.3313 107.356 29.8513 106.66 30.2513C105.964 30.6313 105.197 30.9213 104.358 31.1213C103.54 31.3013 102.68 31.3913 101.78 31.3913ZM101.841 18.3413C101.166 18.3413 100.491 18.4713 99.8156 18.7313C99.1404 18.9713 98.547 19.3513 98.0355 19.8713C97.524 20.3713 97.1147 21.0113 96.8078 21.7913C96.5214 22.5713 96.4191 23.4913 96.5009 24.5513C96.6237 24.1513 96.7567 23.8313 96.8999 23.5913C97.0636 23.3513 97.2477 23.1713 97.4524 23.0513C97.6774 22.9313 97.923 22.8513 98.189 22.8113C98.4754 22.7713 98.8028 22.7513 99.1711 22.7513H107.09C106.864 21.2113 106.281 20.1013 105.34 19.4213C104.419 18.7213 103.253 18.3613 101.841 18.3413Z" fill="#376D32" stroke="#376D32" stroke-width="0.5"/>
<path d="M83.9465 31.3913C82.8211 31.3913 81.7469 31.2413 80.7239 30.9413C79.7008 30.6213 78.8005 30.1413 78.023 29.5013C77.266 28.8613 76.6623 28.0613 76.2122 27.1013C75.7621 26.1413 75.537 25.0113 75.537 23.7113C75.537 22.4113 75.7621 21.2813 76.2122 20.3213C76.6623 19.3613 77.266 18.5613 78.023 17.9213C78.8005 17.2813 79.7008 16.8113 80.7239 16.5113C81.7469 16.1913 82.8211 16.0313 83.9465 16.0313C85.0719 16.0313 86.1256 16.1913 87.1077 16.5113C88.1103 16.8313 88.9799 17.3113 89.7165 17.9513C90.4531 18.5713 91.0363 19.3613 91.466 20.3213C91.8956 21.2813 92.1105 22.4113 92.1105 23.7113C92.1105 23.9313 92.1105 24.0813 92.1105 24.1613C92.1105 24.2213 92.09 24.3513 92.0491 24.5513H78.6675C78.8926 26.0513 79.486 27.1713 80.4477 27.9113C81.4093 28.6513 82.5961 29.0113 84.0079 28.9913C85.1946 28.9713 86.2279 28.7513 87.1077 28.3313C88.008 27.9113 88.673 27.1413 89.1027 26.0213L91.865 26.3813C91.5785 27.2813 91.1693 28.0513 90.6373 28.6913C90.1258 29.3313 89.5222 29.8513 88.8265 30.2513C88.1308 30.6313 87.3635 30.9213 86.5246 31.1213C85.7062 31.3013 84.8468 31.3913 83.9465 31.3913ZM84.0079 18.3413C83.3327 18.3413 82.6575 18.4713 81.9822 18.7313C81.307 18.9713 80.7136 19.3513 80.2021 19.8713C79.6906 20.3713 79.2814 21.0113 78.9745 21.7913C78.688 22.5713 78.5857 23.4913 78.6675 24.5513C78.7903 24.1513 78.9233 23.8313 79.0665 23.5913C79.2302 23.3513 79.4144 23.1713 79.619 23.0513C79.8441 22.9313 80.0896 22.8513 80.3556 22.8113C80.642 22.7713 80.9694 22.7513 81.3377 22.7513H89.2562C89.0311 21.2113 88.4479 20.1013 87.5067 19.4213C86.586 18.7213 85.4197 18.3613 84.0079 18.3413Z" fill="#376D32" stroke="#376D32" stroke-width="0.5"/>
<path d="M65.2921 20.2314C65.2921 18.8714 65.6195 17.8614 66.2742 17.2014C66.929 16.5414 67.9623 16.2114 69.3741 16.2114H75.5431V18.9714L70.3562 19.0014C69.9266 19.0014 69.5787 19.0214 69.3127 19.0614C69.0467 19.1014 68.8319 19.2014 68.6682 19.3614C68.525 19.5014 68.4227 19.7214 68.3613 20.0214C68.3204 20.3214 68.2999 20.7314 68.2999 21.2514V31.2114H65.2921V20.2314Z" fill="#376D32" stroke="#376D32" stroke-width="0.5"/>
<path d="M42.6272 20.7113C42.6272 18.8913 42.8932 17.3113 43.4252 15.9713C43.9572 14.6113 44.6938 13.4913 45.635 12.6113C46.5762 11.7113 47.6913 11.0513 48.9804 10.6313C50.2694 10.1913 51.6608 9.9813 53.1544 10.0013C54.4026 10.0213 55.5791 10.1813 56.684 10.4813C57.7889 10.7813 58.7812 11.2413 59.6611 11.8613C60.5614 12.4613 61.3286 13.2213 61.9629 14.1413C62.5972 15.0613 63.0678 16.1413 63.3748 17.3813L60.6125 18.2213C60.367 17.3613 59.9782 16.5913 59.4462 15.9113C58.9142 15.2313 58.3004 14.6613 57.6047 14.2013C56.9295 13.7413 56.2031 13.3913 55.4256 13.1513C54.6481 12.8913 53.891 12.7613 53.1544 12.7613C52.1928 12.7613 51.2516 12.9313 50.3308 13.2713C49.4305 13.6113 48.6325 14.1213 47.9369 14.8013C47.2412 15.4613 46.6785 16.2913 46.2488 17.2913C45.8396 18.2713 45.635 19.4113 45.635 20.7113C45.635 21.9713 45.8191 23.1013 46.1874 24.1013C46.5762 25.0813 47.0877 25.9113 47.722 26.5913C48.3768 27.2713 49.1441 27.7913 50.0239 28.1513C50.9037 28.4913 51.8449 28.6613 52.8475 28.6613C53.7069 28.6613 54.4537 28.4513 55.088 28.0313C55.7428 27.6113 56.285 27.1013 56.7147 26.5013C57.1648 25.8813 57.5024 25.2313 57.7275 24.5513C57.973 23.8513 58.1163 23.2213 58.1572 22.6613H54.9652V20.2913H61.5946C62.3312 20.2913 62.8632 20.4813 63.1906 20.8613C63.518 21.2213 63.6817 21.7213 63.6817 22.3613V31.2113H60.7353V22.6613L60.0601 22.6913C60.0191 24.2313 59.8043 25.5513 59.4155 26.6513C59.0268 27.7513 58.4948 28.6613 57.8196 29.3813C57.1648 30.0813 56.3873 30.6013 55.487 30.9413C54.6072 31.2613 53.6353 31.4213 52.5713 31.4213C51.0776 31.4213 49.717 31.2013 48.4893 30.7613C47.2821 30.3213 46.2386 29.6613 45.3588 28.7813C44.4994 27.9013 43.8242 26.7913 43.3331 25.4513C42.8625 24.1113 42.6272 22.5313 42.6272 20.7113Z" fill="#376D32"/>
<path d="M42.6272 20.7113C42.6272 18.8913 42.8932 17.3113 43.4252 15.9713C43.9572 14.6113 44.6938 13.4913 45.635 12.6113C46.5762 11.7113 47.6913 11.0513 48.9804 10.6313C50.2694 10.1913 51.6608 9.9813 53.1544 10.0013C54.4026 10.0213 55.5791 10.1813 56.684 10.4813C57.7889 10.7813 58.7812 11.2413 59.6611 11.8613C60.5614 12.4613 61.3286 13.2213 61.9629 14.1413C62.5972 15.0613 63.0678 16.1413 63.3748 17.3813L60.6125 18.2213C60.367 17.3613 59.9782 16.5913 59.4462 15.9113C58.9142 15.2313 58.3004 14.6613 57.6047 14.2013C56.9295 13.7413 56.2031 13.3913 55.4256 13.1513C54.6481 12.8913 53.891 12.7613 53.1544 12.7613C52.1928 12.7613 51.2516 12.9313 50.3308 13.2713C49.4305 13.6113 48.6325 14.1213 47.9369 14.8013C47.2412 15.4613 46.6785 16.2913 46.2488 17.2913C45.8396 18.2713 45.635 19.4113 45.635 20.7113C45.635 21.9713 45.8191 23.1013 46.1874 24.1013C46.5762 25.0813 47.0877 25.9113 47.722 26.5913C48.3768 27.2713 49.1441 27.7913 50.0239 28.1513C50.9037 28.4913 51.8449 28.6613 52.8475 28.6613C53.7069 28.6613 54.4537 28.4513 55.088 28.0313C55.7428 27.6113 56.285 27.1013 56.7147 26.5013C57.1648 25.8813 57.5024 25.2313 57.7275 24.5513C57.973 23.8513 58.1163 23.2213 58.1572 22.6613H54.9652V20.2913H61.5946C62.3312 20.2913 62.8632 20.4813 63.1906 20.8613C63.518 21.2213 63.6817 21.7213 63.6817 22.3613V31.2113H60.7353V22.6613L60.0601 22.6913C60.0191 24.2313 59.8043 25.5513 59.4155 26.6513C59.0268 27.7513 58.4948 28.6613 57.8196 29.3813C57.1648 30.0813 56.3873 30.6013 55.487 30.9413C54.6072 31.2613 53.6353 31.4213 52.5713 31.4213C51.0776 31.4213 49.717 31.2013 48.4893 30.7613C47.2821 30.3213 46.2386 29.6613 45.3588 28.7813C44.4994 27.9013 43.8242 26.7913 43.3331 25.4513C42.8625 24.1113 42.6272 22.5313 42.6272 20.7113Z" fill="#376D32"/>
<path d="M42.6272 20.7113C42.6272 18.8913 42.8932 17.3113 43.4252 15.9713C43.9572 14.6113 44.6938 13.4913 45.635 12.6113C46.5762 11.7113 47.6913 11.0513 48.9804 10.6313C50.2694 10.1913 51.6608 9.9813 53.1544 10.0013C54.4026 10.0213 55.5791 10.1813 56.684 10.4813C57.7889 10.7813 58.7812 11.2413 59.6611 11.8613C60.5614 12.4613 61.3286 13.2213 61.9629 14.1413C62.5972 15.0613 63.0678 16.1413 63.3748 17.3813L60.6125 18.2213C60.367 17.3613 59.9782 16.5913 59.4462 15.9113C58.9142 15.2313 58.3004 14.6613 57.6047 14.2013C56.9295 13.7413 56.2031 13.3913 55.4256 13.1513C54.6481 12.8913 53.891 12.7613 53.1544 12.7613C52.1928 12.7613 51.2516 12.9313 50.3308 13.2713C49.4305 13.6113 48.6325 14.1213 47.9369 14.8013C47.2412 15.4613 46.6785 16.2913 46.2488 17.2913C45.8396 18.2713 45.635 19.4113 45.635 20.7113C45.635 21.9713 45.8191 23.1013 46.1874 24.1013C46.5762 25.0813 47.0877 25.9113 47.722 26.5913C48.3768 27.2713 49.1441 27.7913 50.0239 28.1513C50.9037 28.4913 51.8449 28.6613 52.8475 28.6613C53.7069 28.6613 54.4537 28.4513 55.088 28.0313C55.7428 27.6113 56.285 27.1013 56.7147 26.5013C57.1648 25.8813 57.5024 25.2313 57.7275 24.5513C57.973 23.8513 58.1163 23.2213 58.1572 22.6613H54.9652V20.2913H61.5946C62.3312 20.2913 62.8632 20.4813 63.1906 20.8613C63.518 21.2213 63.6817 21.7213 63.6817 22.3613V31.2113H60.7353V22.6613L60.0601 22.6913C60.0191 24.2313 59.8043 25.5513 59.4155 26.6513C59.0268 27.7513 58.4948 28.6613 57.8196 29.3813C57.1648 30.0813 56.3873 30.6013 55.487 30.9413C54.6072 31.2613 53.6353 31.4213 52.5713 31.4213C51.0776 31.4213 49.717 31.2013 48.4893 30.7613C47.2821 30.3213 46.2386 29.6613 45.3588 28.7813C44.4994 27.9013 43.8242 26.7913 43.3331 25.4513C42.8625 24.1113 42.6272 22.5313 42.6272 20.7113Z" fill="#376D32" stroke="#376D32" stroke-width="0.5"/>
</svg>
