<svg width="87" height="17" viewBox="0 0 87 17" fill="none" xmlns="http://www.w3.org/2000/svg">
<path d="M81.6429 12.8348C80.9829 12.8348 80.3529 12.7448 79.7529 12.5648C79.1529 12.3728 78.6249 12.0848 78.1689 11.7008C77.7249 11.3168 77.3709 10.8368 77.1069 10.2608C76.8429 9.68478 76.7109 9.00678 76.7109 8.22678C76.7109 7.44677 76.8429 6.76877 77.1069 6.19278C77.3709 5.61677 77.7249 5.13677 78.1689 4.75277C78.6249 4.36877 79.1529 4.08677 79.7529 3.90677C80.3529 3.71477 80.9829 3.61877 81.6429 3.61877C82.3029 3.61877 82.9209 3.71477 83.4969 3.90677C84.0849 4.09877 84.5949 4.38677 85.0269 4.77077C85.4589 5.14277 85.8009 5.61677 86.0529 6.19278C86.3049 6.76877 86.4309 7.44677 86.4309 8.22678C86.4309 8.35878 86.4309 8.44877 86.4309 8.49677C86.4309 8.53277 86.4189 8.61077 86.3949 8.73077H78.5469C78.6789 9.63078 79.0269 10.3028 79.5909 10.7468C80.1549 11.1908 80.8509 11.4068 81.6789 11.3948C82.3749 11.3828 82.9809 11.2508 83.4969 10.9988C84.0249 10.7468 84.4149 10.2848 84.6669 9.61277L86.2869 9.82877C86.1189 10.3688 85.8789 10.8308 85.5669 11.2148C85.2669 11.5988 84.9129 11.9108 84.5049 12.1508C84.0969 12.3788 83.6469 12.5528 83.1549 12.6728C82.6749 12.7808 82.1709 12.8348 81.6429 12.8348ZM81.6789 5.00477C81.2829 5.00477 80.8869 5.08277 80.4909 5.23878C80.0949 5.38277 79.7469 5.61077 79.4469 5.92277C79.1469 6.22277 78.9069 6.60677 78.7269 7.07477C78.5589 7.54278 78.4989 8.09478 78.5469 8.73077C78.6189 8.49077 78.6969 8.29878 78.7809 8.15478C78.8769 8.01078 78.9849 7.90277 79.1049 7.83077C79.2369 7.75877 79.3809 7.71077 79.5369 7.68678C79.7049 7.66278 79.8969 7.65077 80.1129 7.65077H84.7569C84.6249 6.72677 84.2829 6.06077 83.7309 5.65278C83.1909 5.23277 82.5069 5.01677 81.6789 5.00477Z" fill="#279E49"/>
<path d="M70.3074 5.31076V3.65476H70.6494C70.8534 3.65476 71.0634 3.57076 71.2794 3.40276C71.5074 3.23476 71.7114 3.01876 71.8914 2.75476C72.0714 2.49076 72.2214 2.19676 72.3414 1.87276C72.4614 1.54876 72.5214 1.23076 72.5214 0.918757L74.3034 0.900757C74.2794 1.40476 74.1594 1.88476 73.9434 2.34076C73.7274 2.78476 73.4094 3.14476 72.9894 3.42076C72.8334 3.51676 72.6414 3.58876 72.4134 3.63676C72.1974 3.67276 71.9994 3.70876 71.8194 3.74476V3.78076C71.9994 3.74476 72.1974 3.71476 72.4134 3.69076C72.6414 3.66676 72.8454 3.65476 73.0254 3.65476H76.2114V5.31076H73.9254V10.0988C73.9254 10.4948 74.0214 10.7588 74.2134 10.8908C74.4054 11.0108 74.6394 11.0708 74.9154 11.0708H76.6434V12.7268H75.0054C74.4174 12.7268 73.9374 12.6728 73.5654 12.5648C73.1934 12.4448 72.9054 12.2648 72.7014 12.0248C72.4974 11.7848 72.3534 11.4788 72.2694 11.1068C72.1974 10.7228 72.1614 10.2728 72.1614 9.75676V5.31076H70.3074Z" fill="#279E49"/>
<path d="M60.7989 3.72681H62.6889L65.0109 9.63081C65.0949 9.82281 65.1549 10.0388 65.1909 10.2788C65.2269 10.5188 65.2449 10.7408 65.2449 10.9448H65.2809C65.2809 10.7408 65.2989 10.5188 65.3349 10.2788C65.3829 10.0388 65.4489 9.82281 65.5329 9.63081L67.8729 3.72681H69.7629L65.6409 14.0048C65.4609 14.5088 65.2389 14.9228 64.9749 15.2468C64.7109 15.5708 64.4349 15.8288 64.1469 16.0208C63.8589 16.2128 63.5649 16.3448 63.2649 16.4168C62.9769 16.4888 62.7069 16.5248 62.4549 16.5248H60.8529V15.1028H61.7709C61.8789 15.1028 62.0289 15.0848 62.2209 15.0488C62.4129 15.0128 62.6109 14.9468 62.8149 14.8508C63.0189 14.7548 63.2109 14.6228 63.3909 14.4548C63.5829 14.2988 63.7209 14.0948 63.8049 13.8428L64.2729 12.4028L60.7989 3.72681Z" fill="#279E49"/>
<path d="M55.0373 0.12677C56.4293 0.12677 57.4972 0.39077 58.2412 0.918771C58.9972 1.43477 59.3753 2.25077 59.3753 3.36677C59.3753 3.48677 59.3453 3.63677 59.2853 3.81677C59.2373 3.99677 59.1532 4.18877 59.0332 4.39277C58.9132 4.58477 58.7573 4.77677 58.5653 4.96877C58.3733 5.14877 58.1393 5.30477 57.8633 5.43677C57.7313 5.50877 57.5753 5.56277 57.3953 5.59877C57.2153 5.62277 57.0533 5.64077 56.9093 5.65277V5.68877C57.0533 5.67677 57.2153 5.67077 57.3953 5.67077C57.5873 5.65877 57.7553 5.67677 57.8993 5.72477C58.3073 5.83277 58.6552 5.99477 58.9432 6.21077C59.2312 6.42677 59.4653 6.67877 59.6453 6.96677C59.8373 7.24277 59.9752 7.54877 60.0592 7.88477C60.1432 8.22077 60.1852 8.56877 60.1852 8.92877C60.1852 10.2728 59.7773 11.2448 58.9613 11.8448C58.1453 12.4328 57.0173 12.7268 55.5773 12.7268H49.8893V0.12677H55.0373ZM51.6533 11.0708H55.6852C56.0572 11.0708 56.4112 11.0288 56.7472 10.9448C57.0832 10.8488 57.3772 10.7108 57.6292 10.5308C57.8812 10.3388 58.0793 10.1048 58.2233 9.82877C58.3793 9.54077 58.4572 9.21077 58.4572 8.83877C58.4572 8.22677 58.2473 7.77677 57.8273 7.48877C57.4193 7.18877 56.8492 7.03877 56.1172 7.03877H51.6533V11.0708ZM51.6533 5.58077H55.8652C56.5852 5.58077 57.0893 5.41877 57.3773 5.09477C57.6773 4.75877 57.8273 4.29077 57.8273 3.69077C57.8273 3.33077 57.7493 3.03077 57.5933 2.79077C57.4493 2.53877 57.2512 2.34077 56.9992 2.19677C56.7592 2.04077 56.4773 1.92677 56.1533 1.85477C55.8293 1.78277 55.4933 1.74677 55.1453 1.74677H51.6533V5.58077Z" fill="#279E49"/>
<path d="M40.5385 3.72676H42.3025V5.58076C42.3025 5.76076 42.2845 5.96476 42.2485 6.19276C42.2245 6.40876 42.1945 6.60676 42.1585 6.78676L42.1945 6.80476C42.2305 6.62476 42.2725 6.42676 42.3205 6.21076C42.3805 5.99476 42.4585 5.80276 42.5545 5.63476C42.9265 4.91476 43.4065 4.39276 43.9945 4.06876C44.5825 3.74476 45.1825 3.58276 45.7945 3.58276C46.3585 3.58276 46.8325 3.70876 47.2165 3.96076C47.6125 4.21276 47.9245 4.54876 48.1525 4.96876C48.3925 5.38876 48.5605 5.87476 48.6565 6.42676C48.7645 6.96676 48.8185 7.53676 48.8185 8.13676V12.7268H47.0545V8.13676C47.0545 7.27276 46.8985 6.59476 46.5865 6.10276C46.2745 5.59876 45.8125 5.34676 45.2005 5.34676C44.9725 5.34676 44.6905 5.40076 44.3545 5.50876C44.0305 5.60476 43.7125 5.80276 43.4005 6.10276C43.1005 6.39076 42.8425 6.79876 42.6265 7.32676C42.4105 7.84276 42.3025 8.52076 42.3025 9.36076V12.7268H40.5385V3.72676Z" fill="#376D32"/>
<path d="M34.6918 12.8348C34.0318 12.8348 33.4018 12.7448 32.8018 12.5648C32.2018 12.3728 31.6738 12.0848 31.2178 11.7008C30.7738 11.3168 30.4198 10.8368 30.1558 10.2608C29.8918 9.68478 29.7598 9.00678 29.7598 8.22678C29.7598 7.44677 29.8918 6.76877 30.1558 6.19278C30.4198 5.61677 30.7738 5.13677 31.2178 4.75277C31.6738 4.36877 32.2018 4.08677 32.8018 3.90677C33.4018 3.71477 34.0318 3.61877 34.6918 3.61877C35.3518 3.61877 35.9698 3.71477 36.5458 3.90677C37.1338 4.09877 37.6438 4.38677 38.0758 4.77077C38.5078 5.14277 38.8498 5.61677 39.1018 6.19278C39.3538 6.76877 39.4798 7.44677 39.4798 8.22678C39.4798 8.35878 39.4798 8.44877 39.4798 8.49677C39.4798 8.53277 39.4678 8.61077 39.4438 8.73077H31.5958C31.7278 9.63078 32.0758 10.3028 32.6398 10.7468C33.2038 11.1908 33.8998 11.4068 34.7278 11.3948C35.4238 11.3828 36.0298 11.2508 36.5458 10.9988C37.0738 10.7468 37.4638 10.2848 37.7158 9.61277L39.3358 9.82877C39.1678 10.3688 38.9278 10.8308 38.6158 11.2148C38.3158 11.5988 37.9618 11.9108 37.5538 12.1508C37.1458 12.3788 36.6958 12.5528 36.2038 12.6728C35.7238 12.7808 35.2198 12.8348 34.6918 12.8348ZM34.7278 5.00477C34.3318 5.00477 33.9358 5.08277 33.5398 5.23878C33.1438 5.38277 32.7958 5.61077 32.4958 5.92277C32.1958 6.22277 31.9558 6.60677 31.7758 7.07477C31.6078 7.54278 31.5478 8.09478 31.5958 8.73077C31.6678 8.49077 31.7458 8.29878 31.8298 8.15478C31.9258 8.01078 32.0338 7.90277 32.1538 7.83077C32.2858 7.75877 32.4298 7.71077 32.5858 7.68678C32.7538 7.66278 32.9458 7.65077 33.1618 7.65077H37.8058C37.6738 6.72677 37.3318 6.06077 36.7798 5.65278C36.2398 5.23277 35.5558 5.01677 34.7278 5.00477Z" fill="#376D32"/>
<path d="M24.2328 12.8348C23.5728 12.8348 22.9428 12.7448 22.3428 12.5648C21.7428 12.3728 21.2148 12.0848 20.7588 11.7008C20.3148 11.3168 19.9608 10.8368 19.6968 10.2608C19.4328 9.68478 19.3008 9.00678 19.3008 8.22678C19.3008 7.44677 19.4328 6.76877 19.6968 6.19278C19.9608 5.61677 20.3148 5.13677 20.7588 4.75277C21.2148 4.36877 21.7428 4.08677 22.3428 3.90677C22.9428 3.71477 23.5728 3.61877 24.2328 3.61877C24.8928 3.61877 25.5108 3.71477 26.0868 3.90677C26.6748 4.09877 27.1848 4.38677 27.6168 4.77077C28.0488 5.14277 28.3908 5.61677 28.6428 6.19278C28.8948 6.76877 29.0208 7.44677 29.0208 8.22678C29.0208 8.35878 29.0208 8.44877 29.0208 8.49677C29.0208 8.53277 29.0088 8.61077 28.9848 8.73077H21.1368C21.2688 9.63078 21.6168 10.3028 22.1808 10.7468C22.7448 11.1908 23.4408 11.4068 24.2688 11.3948C24.9648 11.3828 25.5708 11.2508 26.0868 10.9988C26.6148 10.7468 27.0048 10.2848 27.2568 9.61277L28.8768 9.82877C28.7088 10.3688 28.4688 10.8308 28.1568 11.2148C27.8568 11.5988 27.5028 11.9108 27.0948 12.1508C26.6868 12.3788 26.2368 12.5528 25.7448 12.6728C25.2648 12.7808 24.7608 12.8348 24.2328 12.8348ZM24.2688 5.00477C23.8728 5.00477 23.4768 5.08277 23.0808 5.23878C22.6848 5.38277 22.3368 5.61077 22.0368 5.92277C21.7368 6.22277 21.4968 6.60677 21.3168 7.07477C21.1488 7.54278 21.0888 8.09478 21.1368 8.73077C21.2088 8.49077 21.2868 8.29878 21.3708 8.15478C21.4668 8.01078 21.5748 7.90277 21.6948 7.83077C21.8268 7.75877 21.9708 7.71077 22.1268 7.68678C22.2948 7.66278 22.4868 7.65077 22.7028 7.65077H27.3468C27.2148 6.72677 26.8728 6.06077 26.3208 5.65278C25.7808 5.23277 25.0968 5.01677 24.2688 5.00477Z" fill="#376D32"/>
<path d="M13.2924 6.13881C13.2924 5.32281 13.4845 4.71681 13.8685 4.32081C14.2525 3.92481 14.8584 3.72681 15.6865 3.72681H19.3045V5.38281L16.2625 5.40081C16.0105 5.40081 15.8065 5.41281 15.6505 5.43681C15.4945 5.46081 15.3685 5.52081 15.2725 5.61681C15.1885 5.70081 15.1285 5.83281 15.0925 6.01281C15.0685 6.19281 15.0564 6.43881 15.0564 6.75081V12.7268H13.2924V6.13881Z" fill="#376D32"/>
<path d="M0 6.42678C0 5.33478 0.156 4.38678 0.468 3.58278C0.78 2.76678 1.212 2.09478 1.764 1.56678C2.316 1.02678 2.97 0.630782 3.726 0.378782C4.482 0.114782 5.298 -0.0112173 6.174 0.000782591C6.906 0.0127824 7.596 0.108782 8.244 0.288782C8.892 0.468782 9.474 0.744782 9.99 1.11678C10.518 1.47678 10.968 1.93278 11.34 2.48478C11.712 3.03678 11.988 3.68478 12.168 4.42878L10.548 4.93278C10.404 4.41678 10.176 3.95478 9.864 3.54678C9.552 3.13878 9.192 2.79678 8.784 2.52078C8.388 2.24478 7.962 2.03478 7.506 1.89078C7.05 1.73478 6.606 1.65678 6.174 1.65678C5.61 1.65678 5.058 1.75878 4.518 1.96278C3.99 2.16678 3.522 2.47278 3.114 2.88078C2.706 3.27678 2.376 3.77478 2.124 4.37478C1.884 4.96278 1.764 5.64678 1.764 6.42678C1.764 7.18278 1.872 7.86078 2.088 8.46078C2.316 9.04878 2.616 9.54678 2.988 9.95478C3.372 10.3628 3.822 10.6748 4.338 10.8908C4.854 11.0948 5.406 11.1968 5.994 11.1968C6.498 11.1968 6.936 11.0708 7.308 10.8188C7.692 10.5668 8.01 10.2608 8.262 9.90078C8.526 9.52878 8.724 9.13878 8.856 8.73078C9 8.31078 9.084 7.93278 9.108 7.59678H7.236V6.17478H11.124C11.556 6.17478 11.868 6.28878 12.06 6.51678C12.252 6.73278 12.348 7.03278 12.348 7.41678V12.7268H10.62V7.59678L10.224 7.61478C10.2 8.53878 10.074 9.33078 9.846 9.99078C9.618 10.6508 9.306 11.1968 8.91 11.6288C8.526 12.0488 8.07 12.3608 7.542 12.5648C7.026 12.7568 6.456 12.8528 5.832 12.8528C4.956 12.8528 4.158 12.7208 3.438 12.4568C2.73 12.1928 2.118 11.7968 1.602 11.2688C1.098 10.7408 0.702 10.0748 0.414 9.27078C0.138 8.46678 0 7.51878 0 6.42678Z" fill="#376D32"/>
</svg>
