<svg width="200" height="30" viewBox="0 0 112 24" fill="none" xmlns="http://www.w3.org/2000/svg">
<path d="M16.8679 8.86935C16.8155 8.9281 16.7704 8.98046 16.7254 9.04739C16.7255 9.06196 16.7245 9.05974 16.7114 9.06078C16.6312 9.15404 16.5366 9.23733 16.5015 9.34005C16.37 9.72587 16.3213 10.1232 16.3327 10.5333C16.3578 11.437 16.3642 12.3413 16.3731 13.2455C16.3786 13.806 16.3706 14.3668 16.3773 14.9273C16.3799 15.1429 16.3134 15.3122 16.129 15.4385C16.0904 15.4649 16.0749 15.5283 16.0569 15.5775C16.0218 15.6733 15.994 15.7717 15.9601 15.8679C15.936 15.9364 15.9069 16.0033 15.8801 16.0709C15.8823 16.079 15.8799 16.0857 15.8676 16.0925C15.8026 16.1223 15.7316 16.1386 15.6854 16.1809C15.531 16.3218 15.3873 16.4739 15.2355 16.6177C15.1902 16.6606 15.1317 16.6902 15.0897 16.7188C15.0742 16.5908 15.0509 16.4859 15.0503 16.3808C15.0417 14.8723 15.0357 13.3638 15.0302 11.8553C15.0285 11.3919 15.0093 10.9273 15.0372 10.4656C15.0572 10.1343 15.1244 9.80264 15.2038 9.47896C15.2744 9.19097 15.3909 8.91373 15.486 8.61654C15.485 8.60134 15.4866 8.60328 15.4997 8.60272C15.6854 8.45755 15.8535 8.31008 15.8717 8.06655C15.8854 8.04721 15.899 8.02788 15.9205 8.00384C16.0622 7.91245 16.204 7.83535 16.3284 7.73703C16.5627 7.55167 16.787 7.35409 17.0364 7.15008C17.2128 7.01146 17.3684 6.88435 17.5239 6.75724C17.5239 6.75724 17.5247 6.75935 17.5238 6.75859C17.591 6.77122 17.6592 6.78462 17.6844 6.78957C17.7883 6.71665 17.8583 6.6565 17.9379 6.61374C18.2039 6.47101 18.4748 6.33716 18.741 6.19487C19.0064 6.05298 19.2711 5.90936 19.5299 5.75636C19.5874 5.72239 19.6185 5.64592 19.6597 5.57534C19.6576 5.56165 19.6581 5.561 19.6725 5.56716C19.8071 5.57331 19.9069 5.54882 19.9033 5.40054C19.9033 5.40054 19.9047 5.40386 19.9178 5.40451C20.043 5.35061 20.1719 5.31516 20.2642 5.23794C20.5431 5.00471 20.8205 4.76714 21.073 4.50748C21.2139 4.36249 21.3983 4.21788 21.3633 3.97213C21.3633 3.97213 21.364 3.97497 21.3759 3.97346C21.5253 3.73305 21.6636 3.49455 21.7975 3.25369C21.8026 3.24451 21.765 3.21261 21.7442 3.18443C21.7268 3.17368 21.7125 3.16979 21.684 3.16616C21.4285 3.26474 21.3719 3.47068 21.3474 3.69538C21.3474 3.69538 21.3442 3.68935 21.332 3.69167C21.2875 3.74426 21.2552 3.79453 21.223 3.8448C21.223 3.85627 21.2181 3.86503 21.189 3.86706C21.1054 3.82092 21.0564 3.7896 21.0155 3.89954C20.9843 3.98348 20.9256 4.06913 20.8553 4.1257C20.5366 4.38223 20.2076 4.62661 19.887 4.88094C19.8353 4.92193 19.8071 4.99118 19.768 5.04736C19.768 5.04736 19.7645 5.04342 19.751 5.04225C19.5247 5.11053 19.3061 5.16707 19.1006 5.25337C18.9275 5.32611 18.7761 5.44854 18.6031 5.52189C18.345 5.63135 18.0652 5.6858 17.8382 5.87081C17.7245 5.9635 17.5748 6.05608 17.4354 6.06574C17.2635 6.07766 17.2037 6.16188 17.1469 6.28388C17.1294 6.29619 17.1118 6.3085 17.0834 6.32231C16.9621 6.33983 16.8329 6.32531 16.745 6.3774C16.4375 6.55939 16.1424 6.76168 15.8475 6.96319C15.7964 6.99816 15.7692 7.06676 15.7325 7.13357C15.734 7.14731 15.7319 7.14532 15.7239 7.15063C15.706 7.16657 15.6961 7.1772 15.6861 7.18783C15.6861 7.18783 15.6871 7.18307 15.6755 7.18218C15.4584 7.1684 15.4106 7.21277 15.4032 7.42305L15.4025 7.42407C15.3101 7.46543 15.2076 7.49298 15.1285 7.55095C15.0207 7.62982 14.9308 7.73192 14.8332 7.82406C14.8101 7.81583 14.787 7.80761 14.7639 7.79939C14.7639 7.62349 14.754 7.44696 14.7658 7.27181C14.7974 6.79832 14.8701 6.3289 15.0696 5.89387C15.2238 5.55786 15.2942 5.18561 15.5598 4.89407C15.6984 4.74195 15.7721 4.53318 15.8762 4.33627C15.948 4.2762 16.0241 4.23618 16.0882 4.18247C16.4297 3.89628 16.769 3.60757 17.1067 3.31703C17.1468 3.28255 17.172 3.23158 17.2031 3.174C17.2021 3.15974 17.2031 3.16085 17.2172 3.16527C17.2928 3.15682 17.3546 3.14528 17.4158 3.13084C17.6858 3.06704 17.8601 2.84182 18.1343 2.75771C18.6251 2.60718 19.0851 2.36373 19.5677 2.18381C20.0415 2.00714 20.5278 1.86263 21.0074 1.70055C21.1092 1.66613 21.2053 1.61551 21.3049 1.57455C21.5656 1.46737 21.8299 1.36768 22.0856 1.2501C22.1422 1.22407 22.1693 1.13657 22.2099 1.07738C22.2099 1.07738 22.2111 1.08073 22.2228 1.08084C22.2585 1.06191 22.2826 1.04286 22.3066 1.0238L22.3077 1.02291C22.5642 0.90962 22.8266 0.807772 23.0723 0.676181C23.1524 0.633275 23.1891 0.512817 23.2434 0.413602C23.2411 0.399377 23.2418 0.39978 23.2561 0.399809C23.3825 0.362627 23.4943 0.325165 23.4771 0.174558C23.4771 0.174558 23.4785 0.17802 23.4911 0.178332C23.6071 0.118859 23.7104 0.0590742 23.8124 0C23.8539 0.0365578 23.8995 0.0767756 23.9451 0.116994C23.9451 0.116994 23.9493 0.121225 23.9477 0.12201C23.9485 0.324405 23.9345 0.52776 23.9566 0.727287C24.0152 1.25671 24.024 1.78353 23.9234 2.30864C23.8698 2.58838 23.8368 2.87541 23.7475 3.1442C23.6344 3.48481 23.4774 3.81193 23.3314 4.14147C23.2612 4.29966 23.2009 4.47478 23.0869 4.59909C22.7964 4.91592 22.5879 5.30529 22.2033 5.54274C22.1073 5.60204 22.0611 5.73841 21.9922 5.8533C21.9925 5.86724 21.9914 5.86514 21.9769 5.86509C21.874 5.86771 21.7932 5.87768 21.8287 5.99883C21.8287 5.99883 21.8239 6.00744 21.8051 6.00189C21.7633 6.02218 21.7403 6.04803 21.7173 6.07388C21.7173 6.07388 21.7116 6.08362 21.6924 6.07915C21.5252 6.13136 21.3461 6.14744 21.3054 6.34425C21.3054 6.34425 21.3016 6.34974 21.2842 6.3425C21.1884 6.32614 21.11 6.31702 21.0316 6.30789C21.0407 6.32122 21.0498 6.33455 21.0589 6.34789C20.9814 6.39876 20.9102 6.47342 20.825 6.49484C20.7019 6.52582 20.6289 6.56964 20.6459 6.70303C20.6289 6.71506 20.612 6.72709 20.5758 6.7314C20.4287 6.61253 20.3654 6.75656 20.2772 6.79395C19.9234 6.94387 19.5716 7.09819 19.2051 7.2542C19.1 7.31444 19.009 7.37137 18.9179 7.42829C18.904 7.4359 18.8901 7.44351 18.8526 7.4481C18.7794 7.47017 18.7298 7.49526 18.6803 7.52035C18.6289 7.54902 18.5775 7.57769 18.5055 7.6017C18.4623 7.61437 18.4396 7.6317 18.417 7.64903C18.3999 7.65933 18.3828 7.66963 18.3465 7.67314C18.2982 7.68656 18.269 7.70677 18.2399 7.72698C18.2399 7.72698 18.2363 7.72578 18.2215 7.72221C18.1488 7.75902 18.0908 7.7994 18.0328 7.83979C18.0074 7.85763 17.9819 7.87547 17.9306 7.89489C17.5036 7.95055 17.3048 8.25416 17.0871 8.53337C17.0791 8.54362 17.0915 8.56911 17.0944 8.5875C17.0944 8.5875 17.0944 8.59318 17.0768 8.59264C17.0379 8.62997 17.0165 8.66786 16.9952 8.70574C16.9846 8.72055 16.9741 8.73535 16.9495 8.76049C16.9283 8.77952 16.9212 8.78825 16.9141 8.79701C16.9012 8.81899 16.8883 8.84096 16.8679 8.86935Z" fill="#518A3D"/>
<path d="M22.1822 16.3605C22.1807 16.3787 22.1793 16.397 22.1733 16.4395C22.1598 16.4941 22.1509 16.5244 22.1344 16.5658C22.0435 16.7864 21.9601 16.9959 21.8768 17.2054C21.8768 17.2054 21.873 17.2093 21.867 17.2179C21.8567 17.2385 21.8523 17.2506 21.8403 17.2733C21.7889 17.4824 21.6821 17.5534 21.4678 17.4985C21.2862 17.4519 21.0935 17.4471 20.8922 17.4184C20.8109 17.4052 20.7431 17.3974 20.6628 17.3851C20.6326 17.3809 20.615 17.3813 20.5869 17.3761C20.5453 17.3665 20.5142 17.3624 20.4706 17.3528C20.4403 17.3484 20.4224 17.3495 20.3957 17.3478C20.3869 17.3449 20.3686 17.3475 20.3601 17.3426C20.3451 17.3388 20.3386 17.3399 20.3251 17.3333C20.2978 17.3244 20.2773 17.3231 20.2408 17.317C20.0937 17.2951 19.9627 17.278 19.8207 17.253C19.7554 17.2414 19.701 17.2377 19.6353 17.2303C19.4066 17.2791 19.4465 17.4655 19.4123 17.6114C19.4114 17.6089 19.4164 17.6073 19.4079 17.6145C19.391 17.6339 19.3827 17.646 19.3755 17.6553C19.3766 17.6525 19.3822 17.6551 19.3676 17.6535C19.1678 17.7307 19.1395 17.8994 19.105 18.0635C19.105 18.0635 19.1076 18.0626 19.0938 18.0637C18.8659 18.1897 18.7511 18.4731 18.859 18.6764C18.9663 18.8784 19.0994 19.0683 19.2333 19.2552C19.2606 19.2932 19.342 19.2942 19.4002 19.3131C19.402 19.3138 19.401 19.3175 19.395 19.331C19.4078 19.5035 19.4776 19.6231 19.6461 19.6657C19.6444 19.6663 19.6458 19.663 19.644 19.678C19.6882 19.7831 19.7261 19.8785 19.7822 19.9622C19.8734 20.0983 19.9488 20.2248 19.798 20.3709C19.7675 20.4005 19.7681 20.4608 19.7508 20.5165C19.7269 20.5436 19.7066 20.5612 19.671 20.579C19.6246 20.6225 19.5933 20.6658 19.5589 20.7153C19.5557 20.7215 19.5424 20.7263 19.5295 20.722C19.4961 20.7492 19.4756 20.7807 19.4523 20.8087C19.4496 20.8054 19.4563 20.8109 19.441 20.809C19.284 20.8084 19.2205 20.8724 19.2512 21.0185C19.2496 21.0236 19.2389 21.0256 19.2246 21.0197C19.0474 20.9578 18.8826 20.9063 18.7219 20.8448C18.5362 20.7736 18.354 20.6935 18.1718 20.6169C18.1718 20.6169 18.1722 20.6193 18.172 20.6057C18.0046 20.3715 17.7842 20.2318 17.5125 20.1732C17.5161 20.1709 17.5104 20.177 17.5091 20.1635C17.4709 20.132 17.4338 20.1139 17.3983 20.0955C17.3999 20.0951 17.3992 20.0982 17.3978 20.0866C17.2034 20.005 17.0697 20.0758 16.9952 20.2875C16.9952 20.2875 16.9948 20.2886 16.9799 20.2865C16.8976 20.3011 16.8221 20.3041 16.7644 20.3371C16.5446 20.4627 16.3246 20.5898 16.1179 20.7345C16.0525 20.7802 15.9882 20.8849 15.9928 20.9584C16.0075 21.1934 16.0515 21.427 16.0903 21.6602C16.1412 21.9673 16.191 22.2749 16.2546 22.5796C16.2963 22.7794 16.2619 22.9212 16.041 22.9844C15.9319 23.0156 15.8162 23.0472 15.7248 23.1089C15.6363 23.1686 15.4553 23.108 15.4597 23.2921C15.4597 23.2921 15.4585 23.292 15.4405 23.2897C15.1985 23.3045 15.002 23.2752 14.9378 23.0169C14.9338 23.0007 14.9126 22.9893 14.9022 22.9739C14.7163 22.6977 14.5408 22.4141 14.3412 22.1478C14.2346 22.0055 14.1935 21.7958 13.9747 21.7519C13.9764 21.7513 13.9753 21.7547 13.9731 21.7405C13.8847 21.7132 13.798 21.6867 13.7126 21.6902C13.606 21.6947 13.5007 21.7256 13.3943 21.7421C13.1322 21.783 12.8687 21.8168 12.6084 21.8664C12.5545 21.8767 12.5117 21.9427 12.4634 21.9815C12.4634 21.9815 12.4663 21.9805 12.4515 21.9811C12.398 22.0979 12.3507 22.2121 12.3221 22.3307C12.2083 22.8022 12.0898 23.2731 11.9966 23.7487C11.9689 23.8897 11.9135 23.9497 11.7826 23.9571C11.5092 23.9726 11.235 23.9767 10.9622 23.9984C10.7682 24.0138 10.7027 23.9198 10.6806 23.751C10.6549 23.5538 10.6199 23.3572 10.5773 23.1628C10.5087 22.849 10.4369 22.5355 10.352 22.2256C10.3303 22.1463 10.2544 22.0812 10.1974 22.0039C10.1863 21.9886 10.1828 21.9785 10.1757 21.955C10.1571 21.9293 10.1455 21.9078 10.13 21.9046C9.74914 21.8277 9.3702 21.7341 8.98534 21.6879C8.85468 21.6722 8.66924 21.5949 8.55667 21.7881C8.42143 22.0203 8.2374 22.2277 8.12235 22.4677C8.04465 22.6298 7.83523 22.7373 7.88734 22.9522C7.88407 22.9464 7.8911 22.9582 7.87719 22.957C7.70042 22.9575 7.67238 23.0903 7.60679 23.1947C7.57513 23.2451 7.48412 23.312 7.44726 23.2988C7.13308 23.1861 6.82265 23.0621 6.51791 22.9268C6.46796 22.9046 6.41547 22.8047 6.42483 22.7509C6.51361 22.2402 6.60809 21.7302 6.71726 21.2234C6.762 21.0157 6.84684 20.8173 6.57563 20.6976C6.37847 20.6105 6.23264 20.4169 5.98953 20.4261C5.98953 20.4261 5.9902 20.4279 5.98774 20.4148C5.90436 20.3578 5.82345 20.3138 5.73724 20.2699C5.73194 20.27 5.72637 20.2611 5.73229 20.2474C5.73954 20.2154 5.74792 20.1843 5.74117 20.1808C5.61176 20.1128 5.46577 19.9773 5.35333 19.9998C5.19682 20.0311 4.99729 20.1085 4.9631 20.3237C4.96104 20.3215 4.96655 20.324 4.95063 20.3214C4.83365 20.3498 4.72168 20.3631 4.63355 20.415C4.37053 20.5701 4.1125 20.7342 3.8612 20.9069C3.71572 21.0068 3.61502 20.9705 3.4936 20.8662C3.41851 20.8016 3.30777 20.7768 3.21468 20.7336C3.21633 20.7331 3.21521 20.7363 3.21621 20.722C3.13734 20.5842 3.0705 20.4495 2.974 20.3399C2.8741 20.2264 2.86124 20.1175 2.93316 19.999C3.02061 19.8549 3.11416 19.7135 3.21651 19.5792C3.33678 19.4215 3.47509 19.2768 3.59466 19.1186C3.68392 19.0005 3.74399 18.8605 3.83823 18.747C3.98497 18.5703 3.99672 18.4379 3.85646 18.2679C3.7971 18.196 3.7534 18.1112 3.69106 18.0422C3.60223 17.9438 3.50279 17.8547 3.40937 17.7614C3.40937 17.7614 3.40999 17.7641 3.41135 17.7482C3.45375 17.5411 3.30267 17.435 3.20513 17.3118C3.15047 17.2427 3.05071 17.1566 2.97735 17.1617C2.65746 17.184 2.3399 17.2376 2.02129 17.2784C1.74938 17.3132 1.47735 17.3472 1.20506 17.3791C1.05255 17.3969 0.96761 17.3199 0.920622 17.1833C0.86449 17.0202 0.807023 16.8569 0.737415 16.6991C0.684653 16.5795 0.583939 16.4627 0.69561 16.3379C0.784546 16.2385 0.892324 16.1508 1.00493 16.0773C1.12248 16.0005 1.26459 15.9588 1.37851 15.8781C1.4345 15.8385 1.45104 15.7456 1.48619 15.6793C1.48695 15.6817 1.48175 15.6828 1.49116 15.6788C1.51137 15.6668 1.52219 15.6588 1.54022 15.6407C1.59115 15.6068 1.63486 15.583 1.6875 15.5678C1.91637 15.453 2.13689 15.3304 2.3551 15.204C2.37035 15.1952 2.37721 15.1566 2.37327 15.1344C2.33962 14.9447 2.30564 14.7549 2.26569 14.5663C2.22314 14.3655 2.14058 14.1665 2.13694 13.9657C2.13319 13.7587 2.03833 13.6969 1.86162 13.6562C1.29266 13.5252 0.725321 13.3872 0.159535 13.2437C0.1092 13.2309 0.0423859 13.1612 0.0382041 13.1134C0.0159801 12.8591 0.010352 12.6034 0.000827038 12.3481C-0.00818055 12.1066 0.053919 12.0414 0.309264 12.0026C0.460455 11.9796 0.610888 11.9505 0.76037 11.9184C1.08298 11.8491 1.40234 11.7619 1.72762 11.709C1.99745 11.6651 2.12347 11.5407 2.10433 11.2758C2.10124 11.2331 2.11024 11.1883 2.12031 11.146C2.18919 10.8564 2.26726 10.5687 2.32381 10.2769C2.33541 10.217 2.28626 10.123 2.23466 10.0786C2.09333 9.95698 1.93922 9.84828 1.78199 9.74654C1.74697 9.72388 1.67842 9.7508 1.61396 9.75161C1.57779 9.7295 1.55296 9.71069 1.52691 9.67793C1.34639 9.39566 1.11555 9.1958 0.783284 9.12986C0.783284 9.12986 0.781893 9.12892 0.784863 9.11501C0.762834 9.05416 0.731526 9.00928 0.714641 8.9597C0.698413 8.91205 0.677801 8.85317 0.692592 8.81026C0.757574 8.62176 0.839025 8.43875 0.906453 8.25098C1.03005 7.90679 1.13435 7.84806 1.5031 7.91666C1.88528 7.98776 2.26782 8.05722 2.6512 8.12174C3.08202 8.19424 3.35933 8.0046 3.42969 7.603C3.61143 7.40063 3.79358 7.20995 3.94027 6.99601C3.98377 6.93257 3.95406 6.79083 3.91182 6.70725C3.79687 6.4798 3.67697 6.24973 3.52155 6.04837C3.3847 5.87106 3.32892 5.61882 3.07116 5.5351C3.06647 5.53283 3.06632 5.52258 3.06636 5.50685C3.01663 5.29781 2.915 5.11296 2.96596 4.90035C2.96589 4.89751 2.97164 4.89675 2.98277 4.90465C3.03396 4.90244 3.08593 4.90459 3.11215 4.88023C3.28713 4.71768 3.45088 4.5431 3.6319 4.3876C3.67699 4.34887 3.79202 4.33339 3.84099 4.36225C4.23654 4.59542 4.62087 4.84673 5.01582 5.08091C5.13217 5.14991 5.27155 5.18176 5.40986 5.2319C5.43155 5.23706 5.44322 5.24211 5.45807 5.25669C5.48477 5.25407 5.50777 5.24308 5.53244 5.22928C5.5341 5.22648 5.54012 5.22922 5.55724 5.23085C5.63917 5.21533 5.71251 5.21174 5.76731 5.17872C6.02102 5.02583 6.2638 4.85497 6.5217 4.70957C6.7497 4.58103 6.84091 4.43511 6.76664 4.18812C6.70434 3.98091 6.74469 3.76843 6.66229 3.55257C6.55851 3.28068 6.56855 2.96663 6.53427 2.67025C6.51951 2.54265 6.57499 2.46192 6.70795 2.41711C6.90498 2.3507 7.10255 2.27879 7.28649 2.18428C7.46718 2.09145 7.55788 2.09372 7.67685 2.25884C7.82404 2.46311 7.95962 2.67592 8.11585 2.87319C8.18486 2.96033 8.29235 3.0183 8.38003 3.08994C8.37769 3.09036 8.37702 3.08575 8.38272 3.09431C8.39837 3.11233 8.40832 3.12179 8.41625 3.13111C8.41423 3.13095 8.4146 3.12701 8.41968 3.13494C8.43215 3.15313 8.44095 3.16209 8.45647 3.17962C8.473 3.21637 8.4842 3.24323 8.49673 3.28397C8.53237 3.37143 8.56149 3.44786 8.60195 3.51803C8.73588 3.75036 8.75755 3.75647 9.02668 3.68842C9.17076 3.65199 9.31512 3.61544 9.46107 3.58757C9.67114 3.54746 9.88725 3.53038 10.0916 3.47252C10.1796 3.44762 10.2773 3.35846 10.3128 3.27498C10.3743 3.13065 10.3876 2.96724 10.4266 2.81314C10.5288 2.40877 10.6278 2.00338 10.7444 1.60294C10.7625 1.54084 10.8637 1.46446 10.931 1.46004C11.2098 1.44171 11.4908 1.43927 11.7702 1.44994C11.9059 1.45512 12.0339 1.50047 12.0379 1.68154C12.0388 1.72351 12.112 1.76396 12.1514 1.80537C12.1514 1.80537 12.1518 1.80622 12.149 1.81887C12.1451 1.84007 12.144 1.84862 12.1411 1.86587C12.1395 1.87456 12.1348 1.89166 12.1281 1.90219C12.1393 1.98059 12.1572 2.04848 12.1783 2.12365C12.1815 2.13094 12.183 2.14676 12.1821 2.16209C12.1116 2.61573 12.3529 2.99474 12.4326 3.40465C12.4408 3.44723 12.5361 3.49273 12.5971 3.50333C12.992 3.57197 13.3885 3.6324 13.7849 3.6924C13.8385 3.70051 13.9175 3.7137 13.9461 3.68615C14.093 3.54473 14.2669 3.41461 14.2693 3.18166C14.2693 3.18166 14.2717 3.17993 14.2856 3.18199C14.3231 3.14054 14.3466 3.09703 14.3716 3.04538C14.3772 3.02611 14.385 3.0187 14.4107 3.01359C14.4921 2.96811 14.578 2.93753 14.6232 2.87756C14.7754 2.67564 14.9172 2.46578 15.0529 2.25282C15.0812 2.20837 15.0665 2.13772 15.0716 2.07709C15.0716 2.07505 15.0755 2.07356 15.092 2.07559C15.2222 2.11552 15.3357 2.15381 15.4495 2.1912C15.6477 2.25634 15.8483 2.31555 16.0428 2.39003C16.0845 2.406 16.1275 2.47496 16.1307 2.52202C16.1619 2.98932 16.075 3.42629 15.539 3.62853C15.4302 3.66958 15.3447 3.73542 15.4057 3.87633C15.403 3.88128 15.3915 3.88227 15.3781 3.87705C15.3324 3.90568 15.3 3.93952 15.2632 3.97057C15.2588 3.96779 15.2684 3.97195 15.2518 3.96909C15.1426 3.96057 15.0502 3.95505 15.091 4.0975C15.0898 4.10127 15.0817 4.10044 15.0674 4.09635C14.8945 4.16474 14.733 4.2321 14.5795 4.31378C14.5463 4.33143 14.5418 4.40064 14.5181 4.45551C14.4917 4.47369 14.4713 4.48245 14.4471 4.48095C14.293 4.43816 14.2065 4.49564 14.1846 4.6456C14.1846 4.6456 14.1858 4.64591 14.1713 4.64457C14.0398 4.66577 13.9069 4.66117 13.8087 4.71601C13.5265 4.87359 13.2636 5.06398 12.9819 5.22259C12.8842 5.2776 12.7536 5.29929 12.6385 5.29787C12.3332 5.29411 12.0279 5.25372 11.7229 5.2569C11.3044 5.26126 10.8853 5.31756 10.4679 5.30518C10.01 5.2916 9.58921 5.44303 9.17696 5.57426C8.5993 5.75814 8.04881 6.02985 7.50095 6.29243C7.37418 6.35319 7.17611 6.39631 7.15586 6.59716C7.15436 6.59598 7.15691 6.59316 7.14774 6.59968C7.12898 6.61746 7.11938 6.62872 7.1029 6.649C7.07533 6.6676 7.05466 6.6772 7.03164 6.68324C7.0293 6.67968 7.02478 6.67816 7.02478 6.67816C7.02478 6.67816 7.03099 6.68821 7.02769 6.69307C7.02438 6.69793 7.01244 6.69826 6.99853 6.69347C6.65538 6.74718 6.48904 7.02791 6.25074 7.20971C6.21786 7.2348 6.22535 7.3105 6.21362 7.36695C6.21311 7.37113 6.20456 7.37211 6.19098 7.368C6.14073 7.40613 6.10406 7.44836 6.06797 7.49158C6.06797 7.49158 6.06641 7.49165 6.05302 7.49349C6.02043 7.52634 6.00124 7.55735 5.98195 7.58963C5.98195 7.58963 5.97926 7.59098 5.96531 7.58914C5.88564 7.62254 5.80125 7.6429 5.75736 7.69555C5.53834 7.95831 5.33341 8.23224 5.11651 8.49675C4.99274 8.64769 4.91916 8.8114 4.92309 9.00469C4.92309 9.00469 4.92574 9.00312 4.91241 9.00498C4.76392 9.22152 4.60278 9.42506 4.50019 9.65372C4.37062 9.94254 4.28119 10.2496 4.18803 10.5528C4.03122 11.0631 3.90514 11.5803 3.8764 12.1157C3.87345 12.1706 3.84962 12.2241 3.84358 12.2791C3.82643 12.4353 3.78353 12.5958 3.80454 12.7476C3.86555 13.188 3.95264 13.625 4.02992 14.0632C4.08068 14.3511 4.09978 14.649 4.19089 14.9242C4.32942 15.3425 4.48109 15.7647 4.69539 16.1489C4.9329 16.5746 5.24146 16.9634 5.52944 17.3611C5.84302 17.7941 6.2249 18.1678 6.63771 18.5095C6.81161 18.6534 6.95335 18.8646 7.22682 18.8424C7.22682 18.8424 7.22543 18.8401 7.22576 18.8537C7.5044 19.1423 7.80118 19.3848 8.22145 19.4099C8.22145 19.4099 8.22131 19.4093 8.22533 19.4218C8.26232 19.4623 8.29074 19.5045 8.32892 19.5162C8.8284 19.6693 9.27933 19.9557 9.82472 19.9888C10.2425 20.0142 10.6549 20.1284 11.0725 20.1499C11.4316 20.1684 11.7972 20.1294 12.1555 20.0834C12.5575 20.0319 12.9565 19.9529 13.3528 19.868C13.5487 19.826 13.7386 19.7512 13.9259 19.6781C14.1834 19.5776 14.437 19.467 14.6889 19.3536C14.7178 19.3406 14.7252 19.2821 14.7472 19.2462C14.7519 19.2477 14.7422 19.2462 14.7575 19.2489C14.8121 19.2226 14.8514 19.1937 14.8915 19.1668C14.8924 19.169 14.893 19.1644 14.9079 19.1682C14.9793 19.1344 15.0358 19.0967 15.0926 19.0604C15.0926 19.0604 15.0898 19.0617 15.1055 19.0638C15.199 19.045 15.292 19.0441 15.3521 19.0001C15.6291 18.7971 15.8988 18.5842 16.1658 18.3687C16.1965 18.3439 16.1946 18.2805 16.209 18.237C16.2102 18.239 16.2061 18.2366 16.2213 18.2382C16.4404 18.2103 16.6056 18.0369 16.6095 17.8447C16.61 17.8405 16.6185 17.8388 16.6321 17.8429C16.8793 17.6495 17.1953 17.516 17.2135 17.1513C17.2135 17.1513 17.2114 17.1521 17.2261 17.1524C17.2964 17.1185 17.3716 17.0968 17.4042 17.0479C17.5329 16.8548 17.6498 16.654 17.7679 16.4543C17.8637 16.2923 17.9741 16.1352 18.0444 15.9628C18.2322 15.5018 18.4219 15.0397 18.5709 14.566C18.6535 14.3035 18.6594 14.0174 18.6939 13.7411C18.7302 13.4499 18.785 13.158 18.7863 12.8662C18.7897 12.1625 18.7613 11.4591 18.5531 10.7769C18.457 10.4619 18.3577 10.1477 18.2576 9.83385C18.2239 9.72807 18.199 9.63319 18.3079 9.5455C18.3474 9.51368 18.3514 9.43964 18.374 9.38046C18.3763 9.37607 18.3864 9.37657 18.4005 9.38267C18.451 9.38409 18.4922 9.38873 18.5228 9.37331C18.9053 9.181 19.278 8.96781 19.6701 8.79689C19.9936 8.65586 20.3418 8.57002 20.6738 8.44614C20.7589 8.41437 20.8241 8.33126 20.8984 8.27318C20.8984 8.27318 20.8955 8.27423 20.9125 8.27597C21.0885 8.24936 21.255 8.24112 21.4042 8.18729C21.5692 8.12778 21.7034 8.08576 21.8037 8.27486C21.8167 8.29952 21.8672 8.30523 21.9081 8.32927C21.9287 8.36853 21.9416 8.39824 21.9448 8.43543C21.9456 8.5138 21.9395 8.59225 21.9694 8.65404C22.042 8.804 22.0005 9.02718 21.8637 9.12075C21.7191 9.2197 21.5642 9.30611 21.429 9.41589C21.3494 9.48052 21.2993 9.57992 21.2353 9.66516C21.2353 9.66516 21.2315 9.66597 21.2162 9.65998C21.0736 9.62596 21.0171 9.67354 21.0327 9.79612C21.0294 9.79051 21.0356 9.80153 21.0207 9.79944C20.9742 9.82599 20.9427 9.85463 20.9069 9.88903C20.8949 9.90141 20.8859 9.90369 20.8604 9.90123C20.7358 9.94696 20.6279 9.99634 20.5171 10.0385C20.3125 10.1164 20.321 10.1382 20.3729 10.3535C20.4457 10.6548 20.4926 10.9634 20.5279 11.2713C20.5404 11.3805 20.5605 11.4502 20.6751 11.4846C20.6791 11.4906 20.6781 11.5049 20.6786 11.5192C20.7279 11.5752 20.7703 11.6405 20.8262 11.6547C21.0708 11.7168 21.3187 11.7674 21.5666 11.8159C21.8664 11.8746 22.1678 11.9258 22.4679 11.983C22.5847 12.0053 22.6992 12.0421 22.7082 12.1838C22.7256 12.4575 22.7395 12.7315 22.7478 13.0056C22.7517 13.1366 22.7003 13.2175 22.5471 13.2529C21.9873 13.3825 21.4307 13.526 20.8758 13.6744C20.8045 13.6935 20.75 13.7724 20.6868 13.8197C20.6859 13.8158 20.694 13.8145 20.6821 13.8223C20.4452 14.2766 20.4791 14.7698 20.3714 15.2691C20.4837 15.2691 20.5637 15.2691 20.6415 15.27C20.6393 15.2708 20.6377 15.2664 20.6448 15.2746C20.6636 15.2913 20.6753 15.2997 20.6842 15.307C20.6813 15.3059 20.6839 15.3004 20.686 15.3137C20.7256 15.3443 20.7631 15.3616 20.7991 15.3794C20.7975 15.3799 20.7982 15.3768 20.7987 15.3903C20.8955 15.5959 21.0443 15.7059 21.2766 15.6932C21.2815 15.693 21.285 15.7019 21.2808 15.7147C21.3974 15.9423 21.585 16.0603 21.8437 16.0972C21.9649 16.1876 22.0735 16.274 22.1822 16.3605Z" fill="#376D32"/>
<path d="M9.19995 9.59998C9.79126 9.59998 10.3826 9.59998 10.9918 9.59998C10.9918 12.24 10.9918 14.88 10.9918 17.6C10.4005 17.6 9.80918 17.6 9.19995 17.6C9.19995 14.96 9.19995 12.32 9.19995 9.59998Z" fill="#819911"/>
<path d="M12 8C12.5711 8 13.1422 8 13.7307 8C13.7307 11.168 13.7307 14.336 13.7307 17.6C13.1595 17.6 12.5884 17.6 12 17.6C12 14.432 12 11.264 12 8Z" fill="#5B8E0F"/>
<path d="M6.41285 11.6C6.93662 11.6 7.46039 11.6 8.00002 11.6C8.00002 13.28 8.00002 15.4691 8.00002 17.2C7.86548 17.1583 7.78967 17.1335 7.67475 17.0431C7.63692 17.0136 7.63692 17.0136 7.59833 16.9835C7.55965 16.9526 7.55965 16.9526 7.52018 16.9211C7.49439 16.901 7.4686 16.8809 7.44203 16.8601C7.21193 16.6791 6.99473 16.4711 6.77735 16.2562C6.75446 16.2338 6.73158 16.2115 6.708 16.1885C6.47739 15.9602 6.47739 15.9602 6.41285 15.8271C6.39954 15.6654 6.39954 15.6654 6.40028 15.4664C6.40029 15.3919 6.4003 15.3175 6.40031 15.2408C6.40087 15.1596 6.40145 15.0783 6.40204 14.9971C6.40225 14.9139 6.4024 14.8308 6.40251 14.7477C6.40294 14.5291 6.40402 14.3104 6.40525 14.0918C6.40658 13.8294 6.40709 13.567 6.40774 13.3046C6.40881 12.9061 6.41093 11.9985 6.41285 11.6Z" fill="#ACA612"/>
<path d="M106.643 18.8348C105.983 18.8348 105.353 18.7448 104.753 18.5648C104.153 18.3728 103.625 18.0848 103.169 17.7008C102.725 17.3168 102.371 16.8368 102.107 16.2608C101.843 15.6848 101.711 15.0068 101.711 14.2268C101.711 13.4468 101.843 12.7688 102.107 12.1928C102.371 11.6168 102.725 11.1368 103.169 10.7528C103.625 10.3688 104.153 10.0868 104.753 9.90677C105.353 9.71477 105.983 9.61877 106.643 9.61877C107.303 9.61877 107.921 9.71477 108.497 9.90677C109.085 10.0988 109.595 10.3868 110.027 10.7708C110.459 11.1428 110.801 11.6168 111.053 12.1928C111.305 12.7688 111.431 13.4468 111.431 14.2268C111.431 14.3588 111.431 14.4488 111.431 14.4968C111.431 14.5328 111.419 14.6108 111.395 14.7308H103.547C103.679 15.6308 104.027 16.3028 104.591 16.7468C105.155 17.1908 105.851 17.4068 106.679 17.3948C107.375 17.3828 107.981 17.2508 108.497 16.9988C109.025 16.7468 109.415 16.2848 109.667 15.6128L111.287 15.8288C111.119 16.3688 110.879 16.8308 110.567 17.2148C110.267 17.5988 109.913 17.9108 109.505 18.1508C109.097 18.3788 108.647 18.5528 108.155 18.6728C107.675 18.7808 107.171 18.8348 106.643 18.8348ZM106.679 11.0048C106.283 11.0048 105.887 11.0828 105.491 11.2388C105.095 11.3828 104.747 11.6108 104.447 11.9228C104.147 12.2228 103.907 12.6068 103.727 13.0748C103.559 13.5428 103.499 14.0948 103.547 14.7308C103.619 14.4908 103.697 14.2988 103.781 14.1548C103.877 14.0108 103.985 13.9028 104.105 13.8308C104.237 13.7588 104.381 13.7108 104.537 13.6868C104.705 13.6628 104.897 13.6508 105.113 13.6508H109.757C109.625 12.7268 109.283 12.0608 108.731 11.6528C108.191 11.2328 107.507 11.0168 106.679 11.0048Z" fill="#279E49" stroke="#279E49" stroke-width="0.5"/>
<path d="M95.3074 11.3108V9.65476H95.6494C95.8534 9.65476 96.0634 9.57076 96.2794 9.40276C96.5074 9.23476 96.7114 9.01876 96.8914 8.75476C97.0714 8.49076 97.2214 8.19676 97.3414 7.87276C97.4614 7.54876 97.5214 7.23076 97.5214 6.91876L99.3034 6.90076C99.2794 7.40476 99.1594 7.88476 98.9434 8.34076C98.7274 8.78476 98.4094 9.14476 97.9894 9.42076C97.8334 9.51676 97.6414 9.58876 97.4134 9.63676C97.1974 9.67276 96.9994 9.70876 96.8194 9.74476V9.78076C96.9994 9.74476 97.1974 9.71476 97.4134 9.69076C97.6414 9.66676 97.8454 9.65476 98.0254 9.65476H101.211V11.3108H98.9254V16.0988C98.9254 16.4948 99.0214 16.7588 99.2134 16.8908C99.4054 17.0108 99.6394 17.0708 99.9154 17.0708H101.643V18.7268H100.005C99.4174 18.7268 98.9374 18.6728 98.5654 18.5648C98.1934 18.4448 97.9054 18.2648 97.7014 18.0248C97.4974 17.7848 97.3534 17.4788 97.2694 17.1068C97.1974 16.7228 97.1614 16.2728 97.1614 15.7568V11.3108H95.3074Z" fill="#279E49" stroke="#279E49" stroke-width="0.5"/>
<path d="M85.799 9.72681H87.6889L90.0109 15.6308C90.0949 15.8228 90.1549 16.0388 90.1909 16.2788C90.2269 16.5188 90.2449 16.7408 90.2449 16.9448H90.281C90.281 16.7408 90.2989 16.5188 90.3349 16.2788C90.3829 16.0388 90.449 15.8228 90.533 15.6308L92.8729 9.72681H94.7629L90.6409 20.0048C90.4609 20.5088 90.239 20.9228 89.975 21.2468C89.711 21.5708 89.4349 21.8288 89.1469 22.0208C88.8589 22.2128 88.5649 22.3448 88.2649 22.4168C87.9769 22.4888 87.7069 22.5248 87.4549 22.5248H85.8529V21.1028H86.771C86.879 21.1028 87.0289 21.0848 87.2209 21.0488C87.4129 21.0128 87.6109 20.9468 87.8149 20.8508C88.0189 20.7548 88.2109 20.6228 88.3909 20.4548C88.5829 20.2988 88.7209 20.0948 88.8049 19.8428L89.2729 18.4028L85.799 9.72681Z" fill="#279E49" stroke="#279E49" stroke-width="0.5"/>
<path d="M80.0373 6.12677C81.4293 6.12677 82.4973 6.39077 83.2413 6.91877C83.9973 7.43477 84.3753 8.25077 84.3753 9.36677C84.3753 9.48677 84.3453 9.63677 84.2853 9.81677C84.2373 9.99677 84.1533 10.1888 84.0333 10.3928C83.9133 10.5848 83.7573 10.7768 83.5653 10.9688C83.3733 11.1488 83.1393 11.3048 82.8633 11.4368C82.7313 11.5088 82.5753 11.5628 82.3953 11.5988C82.2153 11.6228 82.0533 11.6408 81.9093 11.6528V11.6888C82.0533 11.6768 82.2153 11.6708 82.3953 11.6708C82.5873 11.6588 82.7553 11.6768 82.8993 11.7248C83.3073 11.8328 83.6553 11.9948 83.9433 12.2108C84.2313 12.4268 84.4653 12.6788 84.6453 12.9668C84.8373 13.2428 84.9753 13.5488 85.0593 13.8848C85.1433 14.2208 85.1853 14.5688 85.1853 14.9288C85.1853 16.2728 84.7773 17.2448 83.9613 17.8448C83.1453 18.4328 82.0173 18.7268 80.5773 18.7268H74.8893V6.12677H80.0373ZM76.6533 17.0708H80.6853C81.0573 17.0708 81.4113 17.0288 81.7473 16.9448C82.0833 16.8488 82.3773 16.7108 82.6293 16.5308C82.8813 16.3388 83.0793 16.1048 83.2233 15.8288C83.3793 15.5408 83.4573 15.2108 83.4573 14.8388C83.4573 14.2268 83.2473 13.7768 82.8273 13.4888C82.4193 13.1888 81.8493 13.0388 81.1173 13.0388H76.6533V17.0708ZM76.6533 11.5808H80.8653C81.5853 11.5808 82.0893 11.4188 82.3773 11.0948C82.6773 10.7588 82.8273 10.2908 82.8273 9.69077C82.8273 9.33077 82.7493 9.03077 82.5933 8.79077C82.4493 8.53877 82.2513 8.34077 81.9993 8.19677C81.7593 8.04077 81.4773 7.92677 81.1533 7.85477C80.8293 7.78277 80.4933 7.74677 80.1453 7.74677H76.6533V11.5808Z" fill="#279E49" stroke="#279E49" stroke-width="0.5"/>
<path d="M65.5386 9.72676H67.3026V11.5808C67.3026 11.7608 67.2846 11.9648 67.2486 12.1928C67.2246 12.4088 67.1946 12.6068 67.1586 12.7868L67.1946 12.8048C67.2306 12.6248 67.2726 12.4268 67.3206 12.2108C67.3806 11.9948 67.4586 11.8028 67.5546 11.6348C67.9266 10.9148 68.4066 10.3928 68.9946 10.0688C69.5826 9.74476 70.1826 9.58276 70.7946 9.58276C71.3586 9.58276 71.8326 9.70876 72.2166 9.96076C72.6126 10.2128 72.9246 10.5488 73.1526 10.9688C73.3926 11.3888 73.5606 11.8748 73.6566 12.4268C73.7646 12.9668 73.8186 13.5368 73.8186 14.1368V18.7268H72.0546V14.1368C72.0546 13.2728 71.8986 12.5948 71.5866 12.1028C71.2746 11.5988 70.8126 11.3468 70.2006 11.3468C69.9726 11.3468 69.6906 11.4008 69.3546 11.5088C69.0306 11.6048 68.7126 11.8028 68.4006 12.1028C68.1006 12.3908 67.8426 12.7988 67.6266 13.3268C67.4106 13.8428 67.3026 14.5208 67.3026 15.3608V18.7268H65.5386V9.72676Z" fill="#376D32" stroke="#376D32" stroke-width="0.5"/>
<path d="M59.6918 18.8348C59.0318 18.8348 58.4018 18.7448 57.8018 18.5648C57.2018 18.3728 56.6738 18.0848 56.2178 17.7008C55.7738 17.3168 55.4198 16.8368 55.1558 16.2608C54.8918 15.6848 54.7598 15.0068 54.7598 14.2268C54.7598 13.4468 54.8918 12.7688 55.1558 12.1928C55.4198 11.6168 55.7738 11.1368 56.2178 10.7528C56.6738 10.3688 57.2018 10.0868 57.8018 9.90677C58.4018 9.71477 59.0318 9.61877 59.6918 9.61877C60.3518 9.61877 60.9698 9.71477 61.5458 9.90677C62.1338 10.0988 62.6438 10.3868 63.0758 10.7708C63.5078 11.1428 63.8498 11.6168 64.1018 12.1928C64.3538 12.7688 64.4798 13.4468 64.4798 14.2268C64.4798 14.3588 64.4798 14.4488 64.4798 14.4968C64.4798 14.5328 64.4678 14.6108 64.4438 14.7308H56.5958C56.7278 15.6308 57.0758 16.3028 57.6398 16.7468C58.2038 17.1908 58.8998 17.4068 59.7278 17.3948C60.4238 17.3828 61.0298 17.2508 61.5458 16.9988C62.0738 16.7468 62.4638 16.2848 62.7158 15.6128L64.3358 15.8288C64.1678 16.3688 63.9278 16.8308 63.6158 17.2148C63.3158 17.5988 62.9618 17.9108 62.5538 18.1508C62.1458 18.3788 61.6958 18.5528 61.2038 18.6728C60.7238 18.7808 60.2198 18.8348 59.6918 18.8348ZM59.7278 11.0048C59.3318 11.0048 58.9358 11.0828 58.5398 11.2388C58.1438 11.3828 57.7958 11.6108 57.4958 11.9228C57.1958 12.2228 56.9558 12.6068 56.7758 13.0748C56.6078 13.5428 56.5478 14.0948 56.5958 14.7308C56.6678 14.4908 56.7458 14.2988 56.8298 14.1548C56.9258 14.0108 57.0338 13.9028 57.1538 13.8308C57.2858 13.7588 57.4298 13.7108 57.5858 13.6868C57.7538 13.6628 57.9458 13.6508 58.1618 13.6508H62.8058C62.6738 12.7268 62.3318 12.0608 61.7798 11.6528C61.2398 11.2328 60.5558 11.0168 59.7278 11.0048Z" fill="#376D32" stroke="#376D32" stroke-width="0.5"/>
<path d="M49.2328 18.8348C48.5728 18.8348 47.9428 18.7448 47.3428 18.5648C46.7428 18.3728 46.2148 18.0848 45.7588 17.7008C45.3148 17.3168 44.9608 16.8368 44.6968 16.2608C44.4328 15.6848 44.3008 15.0068 44.3008 14.2268C44.3008 13.4468 44.4328 12.7688 44.6968 12.1928C44.9608 11.6168 45.3148 11.1368 45.7588 10.7528C46.2148 10.3688 46.7428 10.0868 47.3428 9.90677C47.9428 9.71477 48.5728 9.61877 49.2328 9.61877C49.8928 9.61877 50.5108 9.71477 51.0868 9.90677C51.6748 10.0988 52.1848 10.3868 52.6168 10.7708C53.0488 11.1428 53.3908 11.6168 53.6428 12.1928C53.8948 12.7688 54.0208 13.4468 54.0208 14.2268C54.0208 14.3588 54.0208 14.4488 54.0208 14.4968C54.0208 14.5328 54.0088 14.6108 53.9848 14.7308H46.1368C46.2688 15.6308 46.6168 16.3028 47.1808 16.7468C47.7448 17.1908 48.4408 17.4068 49.2688 17.3948C49.9648 17.3828 50.5708 17.2508 51.0868 16.9988C51.6148 16.7468 52.0048 16.2848 52.2568 15.6128L53.8768 15.8288C53.7088 16.3688 53.4688 16.8308 53.1568 17.2148C52.8568 17.5988 52.5028 17.9108 52.0948 18.1508C51.6868 18.3788 51.2368 18.5528 50.7448 18.6728C50.2648 18.7808 49.7608 18.8348 49.2328 18.8348ZM49.2688 11.0048C48.8728 11.0048 48.4768 11.0828 48.0808 11.2388C47.6848 11.3828 47.3368 11.6108 47.0368 11.9228C46.7368 12.2228 46.4968 12.6068 46.3168 13.0748C46.1488 13.5428 46.0888 14.0948 46.1368 14.7308C46.2088 14.4908 46.2868 14.2988 46.3708 14.1548C46.4668 14.0108 46.5748 13.9028 46.6948 13.8308C46.8268 13.7588 46.9708 13.7108 47.1268 13.6868C47.2948 13.6628 47.4868 13.6508 47.7028 13.6508H52.3468C52.2148 12.7268 51.8728 12.0608 51.3208 11.6528C50.7808 11.2328 50.0968 11.0168 49.2688 11.0048Z" fill="#376D32" stroke="#376D32" stroke-width="0.5"/>
<path d="M38.2925 12.1388C38.2925 11.3228 38.4845 10.7168 38.8685 10.3208C39.2525 9.92481 39.8585 9.72681 40.6865 9.72681H44.3045V11.3828L41.2625 11.4008C41.0105 11.4008 40.8065 11.4128 40.6505 11.4368C40.4945 11.4608 40.3685 11.5208 40.2725 11.6168C40.1885 11.7008 40.1285 11.8328 40.0925 12.0128C40.0685 12.1928 40.0565 12.4388 40.0565 12.7508V18.7268H38.2925V12.1388Z" fill="#376D32" stroke="#376D32" stroke-width="0.5"/>
<path d="M25 12.4268C25 11.3348 25.156 10.3868 25.468 9.58278C25.78 8.76678 26.212 8.09478 26.764 7.56678C27.316 7.02678 27.97 6.63078 28.726 6.37878C29.482 6.11478 30.298 5.98878 31.174 6.00078C31.906 6.01278 32.596 6.10878 33.244 6.28878C33.892 6.46878 34.474 6.74478 34.99 7.11678C35.518 7.47678 35.968 7.93278 36.34 8.48478C36.712 9.03678 36.988 9.68478 37.168 10.4288L35.548 10.9328C35.404 10.4168 35.176 9.95478 34.864 9.54678C34.552 9.13878 34.192 8.79678 33.784 8.52078C33.388 8.24478 32.962 8.03478 32.506 7.89078C32.05 7.73478 31.606 7.65678 31.174 7.65678C30.61 7.65678 30.058 7.75878 29.518 7.96278C28.99 8.16678 28.522 8.47278 28.114 8.88078C27.706 9.27678 27.376 9.77478 27.124 10.3748C26.884 10.9628 26.764 11.6468 26.764 12.4268C26.764 13.1828 26.872 13.8608 27.088 14.4608C27.316 15.0488 27.616 15.5468 27.988 15.9548C28.372 16.3628 28.822 16.6748 29.338 16.8908C29.854 17.0948 30.406 17.1968 30.994 17.1968C31.498 17.1968 31.936 17.0708 32.308 16.8188C32.692 16.5668 33.01 16.2608 33.262 15.9008C33.526 15.5288 33.724 15.1388 33.856 14.7308C34 14.3108 34.084 13.9328 34.108 13.5968H32.236V12.1748H36.124C36.556 12.1748 36.868 12.2888 37.06 12.5168C37.252 12.7328 37.348 13.0328 37.348 13.4168V18.7268H35.62V13.5968L35.224 13.6148C35.2 14.5388 35.074 15.3308 34.846 15.9908C34.618 16.6508 34.306 17.1968 33.91 17.6288C33.526 18.0488 33.07 18.3608 32.542 18.5648C32.026 18.7568 31.456 18.8528 30.832 18.8528C29.956 18.8528 29.158 18.7208 28.438 18.4568C27.73 18.1928 27.118 17.7968 26.602 17.2688C26.098 16.7408 25.702 16.0748 25.414 15.2708C25.138 14.4668 25 13.5188 25 12.4268Z" fill="#376D32"/>
<path d="M25 12.4268C25 11.3348 25.156 10.3868 25.468 9.58278C25.78 8.76678 26.212 8.09478 26.764 7.56678C27.316 7.02678 27.97 6.63078 28.726 6.37878C29.482 6.11478 30.298 5.98878 31.174 6.00078C31.906 6.01278 32.596 6.10878 33.244 6.28878C33.892 6.46878 34.474 6.74478 34.99 7.11678C35.518 7.47678 35.968 7.93278 36.34 8.48478C36.712 9.03678 36.988 9.68478 37.168 10.4288L35.548 10.9328C35.404 10.4168 35.176 9.95478 34.864 9.54678C34.552 9.13878 34.192 8.79678 33.784 8.52078C33.388 8.24478 32.962 8.03478 32.506 7.89078C32.05 7.73478 31.606 7.65678 31.174 7.65678C30.61 7.65678 30.058 7.75878 29.518 7.96278C28.99 8.16678 28.522 8.47278 28.114 8.88078C27.706 9.27678 27.376 9.77478 27.124 10.3748C26.884 10.9628 26.764 11.6468 26.764 12.4268C26.764 13.1828 26.872 13.8608 27.088 14.4608C27.316 15.0488 27.616 15.5468 27.988 15.9548C28.372 16.3628 28.822 16.6748 29.338 16.8908C29.854 17.0948 30.406 17.1968 30.994 17.1968C31.498 17.1968 31.936 17.0708 32.308 16.8188C32.692 16.5668 33.01 16.2608 33.262 15.9008C33.526 15.5288 33.724 15.1388 33.856 14.7308C34 14.3108 34.084 13.9328 34.108 13.5968H32.236V12.1748H36.124C36.556 12.1748 36.868 12.2888 37.06 12.5168C37.252 12.7328 37.348 13.0328 37.348 13.4168V18.7268H35.62V13.5968L35.224 13.6148C35.2 14.5388 35.074 15.3308 34.846 15.9908C34.618 16.6508 34.306 17.1968 33.91 17.6288C33.526 18.0488 33.07 18.3608 32.542 18.5648C32.026 18.7568 31.456 18.8528 30.832 18.8528C29.956 18.8528 29.158 18.7208 28.438 18.4568C27.73 18.1928 27.118 17.7968 26.602 17.2688C26.098 16.7408 25.702 16.0748 25.414 15.2708C25.138 14.4668 25 13.5188 25 12.4268Z" fill="#376D32"/>
<path d="M25 12.4268C25 11.3348 25.156 10.3868 25.468 9.58278C25.78 8.76678 26.212 8.09478 26.764 7.56678C27.316 7.02678 27.97 6.63078 28.726 6.37878C29.482 6.11478 30.298 5.98878 31.174 6.00078C31.906 6.01278 32.596 6.10878 33.244 6.28878C33.892 6.46878 34.474 6.74478 34.99 7.11678C35.518 7.47678 35.968 7.93278 36.34 8.48478C36.712 9.03678 36.988 9.68478 37.168 10.4288L35.548 10.9328C35.404 10.4168 35.176 9.95478 34.864 9.54678C34.552 9.13878 34.192 8.79678 33.784 8.52078C33.388 8.24478 32.962 8.03478 32.506 7.89078C32.05 7.73478 31.606 7.65678 31.174 7.65678C30.61 7.65678 30.058 7.75878 29.518 7.96278C28.99 8.16678 28.522 8.47278 28.114 8.88078C27.706 9.27678 27.376 9.77478 27.124 10.3748C26.884 10.9628 26.764 11.6468 26.764 12.4268C26.764 13.1828 26.872 13.8608 27.088 14.4608C27.316 15.0488 27.616 15.5468 27.988 15.9548C28.372 16.3628 28.822 16.6748 29.338 16.8908C29.854 17.0948 30.406 17.1968 30.994 17.1968C31.498 17.1968 31.936 17.0708 32.308 16.8188C32.692 16.5668 33.01 16.2608 33.262 15.9008C33.526 15.5288 33.724 15.1388 33.856 14.7308C34 14.3108 34.084 13.9328 34.108 13.5968H32.236V12.1748H36.124C36.556 12.1748 36.868 12.2888 37.06 12.5168C37.252 12.7328 37.348 13.0328 37.348 13.4168V18.7268H35.62V13.5968L35.224 13.6148C35.2 14.5388 35.074 15.3308 34.846 15.9908C34.618 16.6508 34.306 17.1968 33.91 17.6288C33.526 18.0488 33.07 18.3608 32.542 18.5648C32.026 18.7568 31.456 18.8528 30.832 18.8528C29.956 18.8528 29.158 18.7208 28.438 18.4568C27.73 18.1928 27.118 17.7968 26.602 17.2688C26.098 16.7408 25.702 16.0748 25.414 15.2708C25.138 14.4668 25 13.5188 25 12.4268Z" fill="#376D32" stroke="#376D32" stroke-width="0.5"/>
</svg>
