<svg width="200" height="100" viewBox="0 0 87 61" fill="none" xmlns="http://www.w3.org/2000/svg">
<path d="M51.6132 14.7822C51.5257 14.8802 51.4506 14.9674 51.3756 15.079C51.3757 15.1033 51.3741 15.0996 51.3523 15.1013C51.2185 15.2567 51.0609 15.3956 51.0025 15.5668C50.7832 16.2098 50.7022 16.872 50.7211 17.5555C50.7628 19.0617 50.7735 20.5689 50.7884 22.0758C50.7976 23.0101 50.7843 23.9446 50.7955 24.8789C50.7998 25.2381 50.6889 25.5203 50.3815 25.7308C50.3173 25.7748 50.2914 25.8805 50.2614 25.9626C50.2029 26.1222 50.1566 26.2861 50.1002 26.4466C50.06 26.5607 50.0115 26.6721 49.9667 26.7848C49.9703 26.7984 49.9664 26.8095 49.946 26.8208C49.8375 26.8705 49.7193 26.8977 49.6422 26.9681C49.385 27.2031 49.1455 27.4565 48.8925 27.6961C48.817 27.7676 48.7195 27.817 48.6494 27.8647C48.6236 27.6514 48.5848 27.4764 48.5838 27.3013C48.5695 24.7871 48.5595 22.2729 48.5502 19.7588C48.5474 18.9865 48.5154 18.2122 48.5619 17.4427C48.5953 16.8906 48.7072 16.3377 48.8395 15.7983C48.9573 15.3183 49.1514 14.8562 49.31 14.3609C49.3082 14.3356 49.3109 14.3388 49.3328 14.3379C49.6423 14.0959 49.9224 13.8501 49.9527 13.4443C49.9755 13.412 49.9983 13.3798 50.034 13.3397C50.2702 13.1874 50.5066 13.0589 50.7139 12.895C51.1045 12.5861 51.4782 12.2568 51.8939 11.9168C52.188 11.6858 52.4472 11.4739 52.7065 11.2621C52.7065 11.2621 52.7077 11.2656 52.7062 11.2643C52.8183 11.2854 52.9318 11.3077 52.9739 11.316C53.1471 11.1944 53.2637 11.0942 53.3965 11.0229C53.8397 10.785 54.2912 10.5619 54.7348 10.3248C55.1772 10.0883 55.6185 9.84894 56.0497 9.59393C56.1455 9.53731 56.1975 9.40988 56.2661 9.29223C56.2626 9.26942 56.2635 9.26834 56.2875 9.27861C56.5118 9.28886 56.6781 9.24804 56.6721 9.0009C56.6721 9.0009 56.6745 9.00643 56.6962 9.00752C56.9049 8.91768 57.1197 8.85859 57.2736 8.7299C57.7384 8.34118 58.2008 7.94523 58.6215 7.51246C58.8564 7.27082 59.1637 7.0298 59.1053 6.62022C59.1053 6.62022 59.1065 6.62494 59.1263 6.62244C59.3754 6.22175 59.606 5.82424 59.8291 5.42281C59.8376 5.40751 59.7749 5.35434 59.7403 5.30738C59.7113 5.28947 59.6874 5.28299 59.6399 5.27694C59.2141 5.44124 59.1197 5.78448 59.079 6.15897C59.079 6.15897 59.0736 6.14891 59.0533 6.15278C58.9791 6.24043 58.9253 6.32422 58.8715 6.408C58.8716 6.42712 58.8633 6.44172 58.8149 6.4451C58.6755 6.3682 58.5939 6.31601 58.5257 6.49924C58.4737 6.63913 58.3759 6.78189 58.2588 6.87616C57.7276 7.30371 57.1793 7.71101 56.6449 8.13491C56.5588 8.20322 56.5117 8.31863 56.4466 8.41227C56.4466 8.41227 56.4408 8.4057 56.4183 8.40376C56.0411 8.51755 55.6768 8.61178 55.3343 8.75561C55.0457 8.87685 54.7935 9.0809 54.5052 9.20315C54.0749 9.38559 53.6086 9.47634 53.2303 9.78468C53.0407 9.93916 52.7912 10.0935 52.5588 10.1096C52.2723 10.1294 52.1727 10.2698 52.0782 10.4731C52.0489 10.4937 52.0197 10.5142 51.9722 10.5372C51.7702 10.5664 51.5548 10.5422 51.4082 10.629C50.8958 10.9323 50.4039 11.2695 49.9125 11.6053C49.8272 11.6636 49.782 11.7779 49.7208 11.8893C49.7233 11.9122 49.7198 11.9089 49.7065 11.9177C49.6766 11.9443 49.66 11.962 49.6435 11.9797C49.6435 11.9797 49.6451 11.9718 49.6257 11.9703C49.2639 11.9473 49.1842 12.0213 49.1719 12.3718L49.1708 12.3735C49.0168 12.4424 48.846 12.4883 48.714 12.5849C48.5345 12.7164 48.3846 12.8865 48.222 13.0401C48.1834 13.0264 48.1449 13.0127 48.1064 12.999C48.1064 12.7058 48.09 12.4116 48.1095 12.1197C48.1623 11.3305 48.2834 10.5482 48.616 9.82312C48.8729 9.2631 48.9902 8.64268 49.433 8.15679C49.664 7.90325 49.7867 7.5553 49.9603 7.22711C50.0799 7.127 50.2067 7.06031 50.3136 6.97078C50.8828 6.4938 51.4483 6.01262 52.0111 5.52839C52.0779 5.47091 52.12 5.38597 52.1718 5.29C52.17 5.26624 52.1718 5.26809 52.1953 5.27545C52.3212 5.26136 52.4243 5.24214 52.5262 5.21807C52.9763 5.11173 53.2667 4.73637 53.7237 4.59619C54.5417 4.3453 55.3085 3.93955 56.1127 3.63968C56.9024 3.34523 57.7129 3.10438 58.5123 2.83425C58.682 2.77689 58.842 2.69252 59.0081 2.62425C59.4427 2.44562 59.8831 2.27946 60.3092 2.08351C60.4036 2.04012 60.4487 1.89429 60.5165 1.79563C60.5165 1.79563 60.5185 1.80121 60.5379 1.80141C60.5975 1.76985 60.6375 1.73809 60.6776 1.70634L60.6794 1.70485C61.1069 1.51603 61.5442 1.34629 61.9537 1.12697C62.0873 1.05546 62.1485 0.854695 62.239 0.689337C62.2352 0.665629 62.2362 0.6663 62.2601 0.666348C62.4707 0.604378 62.657 0.541941 62.6284 0.290929C62.6284 0.290929 62.6307 0.2967 62.6518 0.29722C62.8451 0.198098 63.0172 0.098457 63.1873 0C63.2564 0.0609297 63.3324 0.127959 63.4085 0.194991C63.4085 0.194991 63.4154 0.202042 63.4127 0.20335C63.4141 0.540675 63.3907 0.879599 63.4275 1.21215C63.5252 2.09451 63.5399 2.97255 63.3723 3.84774C63.283 4.31397 63.228 4.79234 63.0792 5.24033C62.8906 5.80801 62.629 6.35322 62.3855 6.90244C62.2686 7.16609 62.1681 7.45796 61.9781 7.66514C61.494 8.19319 61.1464 8.84216 60.5055 9.23791C60.3455 9.33673 60.2684 9.56402 60.1536 9.7555C60.1541 9.77873 60.1522 9.77524 60.1281 9.77514C59.9566 9.77952 59.8219 9.79614 59.8811 9.99804C59.8811 9.99804 59.8731 10.0124 59.8418 10.0031C59.7721 10.037 59.7338 10.0801 59.6954 10.1231C59.6954 10.1231 59.6859 10.1394 59.6539 10.1319C59.3752 10.2189 59.0767 10.2457 59.009 10.5738C59.009 10.5738 59.0026 10.5829 58.9736 10.5708C58.8139 10.5436 58.6832 10.5284 58.5526 10.5132C58.5677 10.5354 58.5829 10.5576 58.598 10.5798C58.4689 10.6646 58.3503 10.789 58.2083 10.8247C58.0031 10.8764 57.8814 10.9494 57.9097 11.1717C57.8815 11.1918 57.8533 11.2118 57.793 11.219C57.5477 11.0209 57.4422 11.2609 57.2952 11.3232C56.7056 11.5731 56.1193 11.8303 55.5084 12.0903C55.3332 12.1907 55.1815 12.2856 55.0298 12.3805C55.0066 12.3932 54.9835 12.4059 54.9209 12.4135C54.7989 12.4503 54.7163 12.4921 54.6337 12.5339C54.548 12.5817 54.4623 12.6295 54.3424 12.6695C54.2704 12.6906 54.2326 12.7195 54.1948 12.7484C54.1664 12.7655 54.1379 12.7827 54.0775 12.7886C53.9969 12.8109 53.9483 12.8446 53.8997 12.8783C53.8997 12.8783 53.8937 12.8763 53.8691 12.8703C53.7479 12.9317 53.6513 12.999 53.5547 13.0663C53.5122 13.0961 53.4698 13.1258 53.3843 13.1582C52.6726 13.2509 52.3413 13.7569 51.9784 14.2223C51.9651 14.2394 51.9858 14.2819 51.9906 14.3125C51.9906 14.3125 51.9905 14.322 51.9612 14.3211C51.8964 14.3833 51.8608 14.4464 51.8252 14.5096C51.8076 14.5342 51.79 14.5589 51.7491 14.6008C51.7137 14.6325 51.7019 14.6471 51.6901 14.6617C51.6686 14.6983 51.6471 14.7349 51.6132 14.7822Z" fill="#518A3D"/>
<path d="M60.4703 27.2674C60.4679 27.2978 60.4654 27.3283 60.4554 27.3992C60.433 27.4902 60.4181 27.5407 60.3906 27.6097C60.2391 27.9774 60.1002 28.3265 59.9614 28.6756C59.9614 28.6756 59.955 28.6822 59.945 28.6965C59.9278 28.7309 59.9206 28.7509 59.9006 28.7888C59.8149 29.1373 59.6368 29.2557 59.2796 29.1641C58.9771 29.0865 58.6558 29.0784 58.3204 29.0306C58.1849 29.0086 58.0718 28.9956 57.938 28.9751C57.8877 28.9682 57.8583 28.9689 57.8116 28.9602C57.7423 28.9442 57.6903 28.9373 57.6177 28.9213C57.5672 28.914 57.5373 28.9158 57.4928 28.9129C57.4782 28.9082 57.4477 28.9125 57.4335 28.9043C57.4085 28.8979 57.3976 28.8998 57.3752 28.8889C57.3296 28.874 57.2956 28.8718 57.2347 28.8617C56.9894 28.8251 56.7712 28.7967 56.5346 28.7551C56.4256 28.7357 56.335 28.7294 56.2255 28.7171C55.8444 28.7984 55.9109 29.1091 55.8539 29.3523C55.8523 29.3482 55.8607 29.3455 55.8465 29.3575C55.8184 29.3897 55.8045 29.41 55.7925 29.4256C55.7944 29.4208 55.8037 29.4252 55.7793 29.4225C55.4463 29.5512 55.3992 29.8324 55.3417 30.1058C55.3417 30.1058 55.346 30.1043 55.323 30.1061C54.9432 30.3162 54.7519 30.7886 54.9317 31.1273C55.1105 31.4641 55.3323 31.7805 55.5555 32.0919C55.601 32.1554 55.7366 32.1571 55.8336 32.1884C55.8366 32.1897 55.835 32.1958 55.8249 32.2184C55.8463 32.5059 55.9628 32.7051 56.2435 32.7762C56.2407 32.7772 56.2429 32.7717 56.24 32.7966C56.3137 32.9718 56.3768 33.1308 56.4703 33.2703C56.6224 33.4972 56.748 33.708 56.4966 33.9515C56.4458 34.0008 56.4469 34.1013 56.4181 34.1941C56.3782 34.2393 56.3443 34.2686 56.2851 34.2983C56.2076 34.3708 56.1556 34.443 56.0982 34.5255C56.0929 34.5358 56.0707 34.5438 56.0492 34.5367C55.9935 34.5821 55.9593 34.6344 55.9206 34.6812C55.9161 34.6756 55.9271 34.6849 55.9017 34.6817C55.64 34.6806 55.5341 34.7874 55.5854 35.0308C55.5827 35.0393 55.5648 35.0427 55.541 35.0328C55.2456 34.9296 54.971 34.8439 54.7032 34.7413C54.3937 34.6227 54.09 34.4892 53.7863 34.3614C53.7863 34.3614 53.787 34.3655 53.7866 34.3428C53.5076 33.9525 53.1403 33.7197 52.6876 33.622C52.6934 33.6182 52.6839 33.6283 52.6819 33.6058C52.6181 33.5533 52.5564 33.5232 52.4972 33.4925C52.4998 33.4918 52.4987 33.4969 52.4964 33.4777C52.1723 33.3417 51.9494 33.4597 51.8253 33.8125C51.8253 33.8125 51.8246 33.8144 51.7998 33.8109C51.6627 33.8352 51.5368 33.8402 51.4407 33.8951C51.0744 34.1045 50.7077 34.3164 50.3632 34.5575C50.2542 34.6337 50.147 34.8081 50.1546 34.9306C50.1791 35.3224 50.2526 35.7117 50.3171 36.1004C50.4021 36.6122 50.485 37.1248 50.591 37.6326C50.6605 37.9656 50.6032 38.202 50.235 38.3073C50.0532 38.3594 49.8603 38.412 49.708 38.5148C49.5605 38.6144 49.2589 38.5133 49.2661 38.8202C49.2661 38.8202 49.2642 38.8201 49.2342 38.8162C48.8308 38.8409 48.5033 38.792 48.3963 38.3615C48.3896 38.3346 48.3543 38.3155 48.337 38.2898C48.0271 37.8295 47.7347 37.3568 47.402 36.913C47.2243 36.6759 47.1559 36.3263 46.7912 36.2532C46.7941 36.2522 46.7922 36.2578 46.7884 36.2342C46.6411 36.1887 46.4966 36.1444 46.3543 36.1504C46.1766 36.1578 46.0011 36.2093 45.8239 36.2369C45.387 36.305 44.9479 36.3614 44.514 36.444C44.4241 36.4611 44.3528 36.5712 44.2724 36.6359C44.2724 36.6359 44.2772 36.6342 44.2525 36.6352C44.1633 36.8298 44.0845 37.0202 44.0368 37.2178C43.8471 38.0037 43.6496 38.7886 43.4943 39.5812C43.4483 39.8161 43.3559 39.9162 43.1377 39.9285C42.6821 39.9543 42.225 39.9612 41.7703 39.9973C41.447 40.0229 41.3378 39.8663 41.301 39.585C41.2581 39.2564 41.1998 38.9287 41.1289 38.6047C41.0144 38.0817 40.8949 37.5591 40.7534 37.0426C40.7172 36.9104 40.5906 36.8019 40.4957 36.6731C40.4772 36.6477 40.4713 36.6308 40.4596 36.5917C40.4285 36.5489 40.4092 36.513 40.3834 36.5077C39.7486 36.3796 39.117 36.2235 38.4756 36.1465C38.2578 36.1203 37.9487 35.9916 37.7611 36.3136C37.5357 36.7004 37.229 37.0461 37.0373 37.4462C36.9077 37.7164 36.5587 37.8956 36.6456 38.2537C36.6401 38.2439 36.6518 38.2637 36.6286 38.2617C36.334 38.2625 36.2873 38.4838 36.178 38.6578C36.1252 38.7418 35.9735 38.8534 35.9121 38.8313C35.3885 38.6434 34.8711 38.4368 34.3632 38.2113C34.2799 38.1743 34.1924 38.0079 34.208 37.9181C34.356 37.067 34.5135 36.217 34.6954 35.3723C34.77 35.0261 34.9114 34.6956 34.4594 34.4959C34.1308 34.3508 33.8877 34.0281 33.4825 34.0435C33.4825 34.0435 33.4837 34.0464 33.4796 34.0247C33.3406 33.9297 33.2057 33.8564 33.0621 33.7831C33.0532 33.7833 33.0439 33.7685 33.0538 33.7457C33.0659 33.6923 33.0799 33.6405 33.0686 33.6346C32.8529 33.5214 32.6096 33.2955 32.4222 33.333C32.1614 33.3852 31.8288 33.5141 31.7718 33.8728C31.7684 33.8691 31.7776 33.8733 31.7511 33.869C31.5561 33.9164 31.3695 33.9384 31.2226 34.025C30.7842 34.2834 30.3542 34.557 29.9353 34.8448C29.6929 35.0114 29.525 34.9509 29.3227 34.777C29.1975 34.6694 29.0129 34.628 28.8578 34.556C28.8605 34.5551 28.8587 34.5604 28.8604 34.5367C28.7289 34.3069 28.6175 34.0826 28.4567 33.8999C28.2902 33.7107 28.2687 33.5292 28.3886 33.3317C28.5343 33.0916 28.6903 32.8558 28.8609 32.632C29.0613 32.3691 29.2918 32.1281 29.4911 31.8644C29.6399 31.6675 29.74 31.4341 29.8971 31.245C30.1416 30.9505 30.1612 30.7299 29.9274 30.4465C29.8285 30.3266 29.7557 30.1853 29.6518 30.0703C29.5037 29.9064 29.338 29.7578 29.1823 29.6024C29.1823 29.6024 29.1833 29.6069 29.1856 29.5804C29.2563 29.2352 29.0045 29.0583 28.8419 28.8529C28.7508 28.7378 28.5845 28.5944 28.4623 28.6029C27.9291 28.64 27.3998 28.7294 26.8688 28.7973C26.4156 28.8553 25.9622 28.912 25.5084 28.9651C25.2542 28.9948 25.1127 28.8665 25.0344 28.6389C24.9408 28.3671 24.845 28.0949 24.729 27.8318C24.6411 27.6324 24.4732 27.4378 24.6594 27.2298C24.8076 27.0641 24.9872 26.918 25.1749 26.7955C25.3708 26.6675 25.6077 26.5979 25.7975 26.4635C25.8908 26.3975 25.9184 26.2426 25.977 26.1321C25.9782 26.1362 25.9696 26.1381 25.9853 26.1314C26.019 26.1113 26.037 26.098 26.067 26.0678C26.1519 26.0113 26.2248 25.9716 26.3125 25.9463C26.694 25.755 27.0615 25.5507 27.4252 25.34C27.4506 25.3253 27.462 25.2611 27.4555 25.224C27.3994 24.9078 27.3427 24.5915 27.2762 24.2772C27.2052 23.9424 27.0676 23.6108 27.0616 23.2761C27.0553 22.9312 26.8972 22.8282 26.6027 22.7604C25.6544 22.542 24.7089 22.3121 23.7659 22.0729C23.682 22.0516 23.5706 21.9354 23.5637 21.8557C23.5266 21.4319 23.5173 21.0057 23.5014 20.5802C23.4864 20.1777 23.5899 20.069 24.0154 20.0043C24.2674 19.966 24.5181 19.9174 24.7673 19.8639C25.305 19.7485 25.8372 19.6031 26.3794 19.515C26.8291 19.4419 27.0391 19.2345 27.0072 18.793C27.0021 18.7217 27.0171 18.6471 27.0338 18.5766C27.1486 18.0941 27.2788 17.6145 27.373 17.1282C27.3924 17.0283 27.3104 16.8717 27.2244 16.7977C26.9889 16.595 26.732 16.4138 26.47 16.2442C26.4116 16.2065 26.2974 16.2513 26.1899 16.2527C26.1297 16.2158 26.0883 16.1845 26.0448 16.1299C25.744 15.6594 25.3592 15.3263 24.8055 15.2164C24.8055 15.2164 24.8032 15.2149 24.8081 15.1917C24.7714 15.0903 24.7192 15.0155 24.6911 14.9328C24.664 14.8534 24.6297 14.7553 24.6543 14.6838C24.7626 14.3696 24.8984 14.0646 25.0108 13.7516C25.2168 13.178 25.3906 13.0801 26.0052 13.1944C26.6421 13.3129 27.2797 13.4287 27.9187 13.5362C28.6367 13.6571 29.0989 13.341 29.2162 12.6717C29.5191 12.3344 29.8226 12.0166 30.0671 11.66C30.1396 11.5543 30.0901 11.3181 30.0197 11.1787C29.8281 10.7997 29.6283 10.4162 29.3693 10.0806C29.1412 9.78509 29.0482 9.3647 28.6186 9.22516C28.6108 9.22138 28.6105 9.20431 28.6106 9.17809C28.5277 8.82968 28.3583 8.5216 28.4433 8.16725C28.4431 8.16252 28.4527 8.16125 28.4713 8.17441C28.5566 8.17073 28.6432 8.17432 28.6869 8.13372C28.9785 7.8628 29.2515 7.57184 29.5532 7.31266C29.6283 7.24811 29.82 7.22232 29.9017 7.27042C30.5609 7.65903 31.2015 8.07789 31.8597 8.46819C32.0536 8.58318 32.2859 8.63627 32.5164 8.71983C32.5526 8.72844 32.572 8.73684 32.5968 8.76114C32.6413 8.75679 32.6796 8.73847 32.7207 8.71547C32.7235 8.7108 32.7335 8.71537 32.7621 8.71808C32.8986 8.69221 33.0209 8.68623 33.1122 8.6312C33.535 8.37638 33.9397 8.09162 34.3695 7.84929C34.7495 7.63506 34.9015 7.39185 34.7777 6.98021C34.6739 6.63485 34.7411 6.28072 34.6038 5.92095C34.4309 5.4678 34.4476 4.94439 34.3905 4.45041C34.3659 4.23775 34.4583 4.1032 34.6799 4.02852C35.0083 3.91784 35.3376 3.79798 35.6442 3.64047C35.9453 3.48575 36.0965 3.48953 36.2948 3.76473C36.5401 4.10519 36.766 4.45987 37.0264 4.78866C37.1414 4.93388 37.3206 5.03051 37.4667 5.1499C37.4628 5.1506 37.4617 5.14292 37.4712 5.15718C37.4973 5.18721 37.5139 5.20299 37.5271 5.21851C37.5237 5.21825 37.5243 5.21169 37.5328 5.2249C37.5536 5.25522 37.5683 5.27014 37.5941 5.29937C37.6217 5.36062 37.6403 5.40538 37.6612 5.47329C37.7206 5.61905 37.7692 5.74643 37.8366 5.86339C38.0598 6.2506 38.0959 6.26079 38.5445 6.14737C38.7846 6.08665 39.0252 6.02573 39.2685 5.97928C39.6186 5.91244 39.9788 5.88397 40.3194 5.78754C40.466 5.74604 40.6288 5.59743 40.688 5.4583C40.7904 5.21775 40.8127 4.94541 40.8777 4.68857C41.0481 4.01461 41.2131 3.33897 41.4074 2.67156C41.4375 2.56807 41.6062 2.44077 41.7183 2.4334C42.1831 2.40285 42.6513 2.39879 43.117 2.41656C43.3432 2.4252 43.5565 2.50079 43.5632 2.80256C43.5647 2.87251 43.6867 2.93993 43.7524 3.00894C43.7524 3.00894 43.753 3.01036 43.7484 3.03144C43.7419 3.06678 43.7399 3.08103 43.7352 3.10978C43.7324 3.12427 43.7247 3.15277 43.7136 3.17031C43.7322 3.30099 43.762 3.41413 43.7971 3.53942C43.8025 3.55157 43.805 3.57794 43.8034 3.60348C43.686 4.35955 44.0881 4.99123 44.2209 5.67441C44.2347 5.74539 44.3935 5.82121 44.4952 5.83889C45.1534 5.95329 45.8141 6.05399 46.4748 6.154C46.5642 6.16752 46.6959 6.1895 46.7436 6.14359C46.9884 5.90788 47.2782 5.69102 47.2821 5.30277C47.2821 5.30277 47.2862 5.29988 47.3093 5.30332C47.3718 5.23424 47.4111 5.16171 47.4527 5.07563C47.462 5.04351 47.4751 5.03116 47.5178 5.02264C47.6535 4.94686 47.7967 4.89588 47.872 4.79594C48.1256 4.45939 48.362 4.10963 48.5882 3.7547C48.6354 3.68062 48.6109 3.56286 48.6194 3.46182C48.6194 3.45841 48.6259 3.45593 48.6534 3.45932C48.8704 3.52586 49.0595 3.58968 49.2492 3.65201C49.5796 3.76057 49.9139 3.85925 50.238 3.98339C50.3075 4.01 50.3792 4.12493 50.3845 4.20337C50.4366 4.9822 50.2917 5.71048 49.3983 6.04754C49.217 6.11597 49.0744 6.22569 49.1762 6.46056C49.1716 6.46879 49.1525 6.47044 49.1302 6.46175C49.054 6.50946 49 6.56586 48.9387 6.61762C48.9313 6.61298 48.9473 6.61992 48.9196 6.61515C48.7377 6.60095 48.5837 6.59176 48.6517 6.82917C48.6497 6.83545 48.6363 6.83407 48.6124 6.82725C48.3241 6.94124 48.055 7.0535 47.7991 7.18964C47.7438 7.21905 47.7363 7.33439 47.6968 7.42585C47.6528 7.45615 47.6188 7.47076 47.5786 7.46825C47.3216 7.39693 47.1774 7.49274 47.141 7.74266C47.141 7.74266 47.1431 7.74318 47.1189 7.74094C46.8997 7.77629 46.6782 7.76862 46.5145 7.86001C46.0442 8.12265 45.6059 8.43997 45.1365 8.70431C44.9737 8.79601 44.756 8.83215 44.5642 8.82979C44.0553 8.82351 43.5465 8.75621 43.0382 8.7615C42.3406 8.76876 41.6422 8.86259 40.9466 8.84196C40.1833 8.81933 39.482 9.07172 38.7949 9.29044C37.8322 9.5969 36.9147 10.0498 36.0016 10.4874C35.7903 10.5886 35.4602 10.6605 35.4264 10.9953C35.4239 10.9933 35.4282 10.9886 35.4129 10.9995C35.3816 11.0291 35.3656 11.0479 35.3382 11.0817C35.2922 11.1127 35.2578 11.1287 35.2194 11.1387C35.2155 11.1328 35.208 11.1303 35.208 11.1303C35.208 11.1303 35.2183 11.147 35.2128 11.1551C35.2073 11.1632 35.1874 11.1638 35.1642 11.1558C34.5923 11.2453 34.3151 11.7132 33.9179 12.0162C33.8631 12.058 33.8756 12.1842 33.856 12.2783C33.8552 12.2852 33.8409 12.2868 33.8183 12.28C33.7345 12.3436 33.6734 12.4139 33.6133 12.486C33.6133 12.486 33.6107 12.4861 33.5884 12.4891C33.5341 12.5439 33.5021 12.5956 33.4699 12.6494C33.4699 12.6494 33.4654 12.6516 33.4422 12.6486C33.3094 12.7042 33.1687 12.7382 33.0956 12.8259C32.7306 13.2638 32.389 13.7204 32.0275 14.1612C31.8212 14.4128 31.6986 14.6857 31.7052 15.0078C31.7052 15.0078 31.7096 15.0052 31.6873 15.0083C31.4399 15.3692 31.1713 15.7084 31.0003 16.0895C30.7844 16.5709 30.6353 17.0827 30.48 17.588C30.2187 18.4386 30.0086 19.3005 29.9607 20.1929C29.9558 20.2843 29.916 20.3735 29.906 20.4652C29.8774 20.7254 29.8059 20.9931 29.8409 21.2459C29.9426 21.98 30.0877 22.7083 30.2165 23.4387C30.3011 23.9184 30.333 24.4151 30.4848 24.8736C30.7157 25.5708 30.9685 26.2745 31.3257 26.9148C31.7215 27.6244 32.2358 28.2723 32.7157 28.9351C33.2384 29.6568 33.8748 30.2797 34.5628 30.8492C34.8527 31.0891 35.0889 31.441 35.5447 31.4039C35.5447 31.4039 35.5424 31.4001 35.5429 31.4229C36.0073 31.9038 36.502 32.308 37.2024 32.3499C37.2024 32.3499 37.2022 32.3489 37.2089 32.3697C37.2705 32.4372 37.3179 32.5075 37.3815 32.527C38.214 32.7821 38.9655 33.2595 39.8745 33.3147C40.5708 33.357 41.2582 33.5473 41.9542 33.5832C42.5527 33.614 43.162 33.549 43.7592 33.4724C44.4291 33.3864 45.0942 33.2548 45.7547 33.1133C46.0812 33.0433 46.3977 32.9187 46.7098 32.7969C47.139 32.6293 47.5617 32.445 47.9816 32.256C48.0297 32.2344 48.042 32.1368 48.0787 32.0769C48.0864 32.0794 48.0703 32.077 48.0959 32.0815C48.1868 32.0377 48.2523 31.9894 48.3192 31.9447C48.3206 31.9483 48.3216 31.9407 48.3465 31.947C48.4656 31.8906 48.5597 31.8278 48.6543 31.7674C48.6543 31.7674 48.6497 31.7696 48.6758 31.7729C48.8317 31.7417 48.9867 31.7401 49.0868 31.6668C49.5486 31.3285 49.9979 30.9737 50.443 30.6145C50.4942 30.5732 50.4911 30.4675 50.5151 30.3949C50.517 30.3983 50.5102 30.3944 50.5355 30.3971C50.9006 30.3505 51.1761 30.0615 51.1825 29.7412C51.1833 29.7341 51.1975 29.7313 51.2201 29.7382C51.6321 29.4158 52.1589 29.1934 52.1892 28.5855C52.1892 28.5855 52.1857 28.5868 52.2102 28.5874C52.3274 28.5309 52.4527 28.4946 52.507 28.4131C52.7214 28.0913 52.9163 27.7567 53.1131 27.4239C53.2728 27.1539 53.4569 26.892 53.5739 26.6046C53.887 25.8363 54.2031 25.0661 54.4515 24.2767C54.5892 23.8392 54.5991 23.3623 54.6565 22.9019C54.717 22.4165 54.8083 21.93 54.8106 21.4436C54.8162 20.2708 54.7689 19.0985 54.4219 17.9615C54.2617 17.4364 54.0962 16.9129 53.9293 16.3897C53.8731 16.2134 53.8317 16.0553 54.0132 15.9092C54.0791 15.8561 54.0857 15.7327 54.1233 15.6341C54.1272 15.6268 54.144 15.6276 54.1676 15.6378C54.2516 15.6402 54.3203 15.6479 54.3714 15.6222C55.0088 15.3017 55.6301 14.9463 56.2835 14.6615C56.8226 14.4264 57.403 14.2834 57.9563 14.0769C58.0982 14.0239 58.2068 13.8854 58.3307 13.7886C58.3307 13.7886 58.3258 13.7904 58.3542 13.7933C58.6475 13.7489 58.9249 13.7352 59.1737 13.6455C59.4487 13.5463 59.6723 13.4763 59.8394 13.7914C59.8612 13.8325 59.9453 13.842 60.0135 13.8821C60.0479 13.9476 60.0693 13.9971 60.0747 14.0591C60.0759 14.1897 60.0658 14.3204 60.1156 14.4234C60.2366 14.6733 60.1676 15.0453 59.9396 15.2013C59.6985 15.3662 59.4404 15.5102 59.215 15.6931C59.0823 15.8009 58.9988 15.9665 58.8922 16.1086C58.8922 16.1086 58.8859 16.1099 58.8604 16.1C58.6226 16.0433 58.5284 16.1226 58.5545 16.3269C58.5489 16.3175 58.5594 16.3359 58.5346 16.3324C58.4571 16.3766 58.4044 16.4244 58.3449 16.4817C58.3248 16.5023 58.3098 16.5061 58.2673 16.502C58.0597 16.5783 57.8798 16.6606 57.6952 16.7308C57.3542 16.8606 57.3683 16.8971 57.4549 17.2558C57.5762 17.758 57.6543 18.2723 57.7132 18.7855C57.7341 18.9674 57.7675 19.0837 57.9585 19.141C57.9652 19.151 57.9634 19.1749 57.9644 19.1987C58.0465 19.2921 58.1171 19.4009 58.2104 19.4246C58.618 19.5281 59.0311 19.6123 59.4443 19.6932C59.944 19.7911 60.4463 19.8763 60.9466 19.9717C61.1413 20.0088 61.332 20.0701 61.347 20.3063C61.376 20.7625 61.3992 21.2192 61.413 21.676C61.4196 21.8943 61.3338 22.0291 61.0785 22.0882C60.1455 22.3042 59.2179 22.5433 58.2929 22.7906C58.1742 22.8224 58.0833 22.9541 57.978 23.0329C57.9764 23.0263 57.99 23.0242 57.9702 23.0371C57.5754 23.7944 57.6319 24.6164 57.4523 25.4485C57.6396 25.4485 57.7729 25.4485 57.9025 25.4499C57.8988 25.4513 57.8962 25.4441 57.908 25.4577C57.9393 25.4854 57.9589 25.4995 57.9737 25.5117C57.9689 25.5099 57.9731 25.5007 57.9766 25.5228C58.0426 25.5738 58.1052 25.6027 58.1651 25.6323C58.1626 25.6331 58.1636 25.628 58.1645 25.6504C58.3258 25.9931 58.5739 26.1766 58.961 26.1553C58.9691 26.155 58.9751 26.1698 58.968 26.1912C59.1623 26.5706 59.4749 26.7672 59.9062 26.8286C60.1081 26.9794 60.2892 27.1234 60.4703 27.2674Z" fill="#376D32"/>
<path d="M38.8333 16C39.8188 16 40.8043 16 41.8197 16C41.8197 20.4 41.8197 24.8 41.8197 29.3333C40.8342 29.3333 39.8487 29.3333 38.8333 29.3333C38.8333 24.9333 38.8333 20.5333 38.8333 16Z" fill="#819911"/>
<path d="M43.5 13.3333C44.4519 13.3333 45.4037 13.3333 46.3844 13.3333C46.3844 18.6133 46.3844 23.8933 46.3844 29.3333C45.4326 29.3333 44.4807 29.3333 43.5 29.3333C43.5 24.0533 43.5 18.7733 43.5 13.3333Z" fill="#5B8E0F"/>
<path d="M34.1881 19.3333C35.061 19.3333 35.934 19.3333 36.8334 19.3333C36.8334 22.1333 36.8334 25.7818 36.8334 28.6667C36.6091 28.5972 36.4828 28.5559 36.2912 28.4052C36.2282 28.356 36.2282 28.356 36.1639 28.3058C36.0994 28.2544 36.0994 28.2544 36.0336 28.2019C35.9906 28.1684 35.9477 28.1348 35.9034 28.1003C35.5199 27.7986 35.1579 27.4518 34.7956 27.0936C34.7574 27.0564 34.7193 27.0192 34.68 26.9808C34.2956 26.6004 34.2956 26.6004 34.1881 26.3786C34.1659 26.109 34.1659 26.109 34.1671 25.7773C34.1671 25.6533 34.1671 25.5292 34.1672 25.4014C34.1681 25.266 34.1691 25.1306 34.17 24.9951C34.1704 24.8566 34.1707 24.7181 34.1708 24.5796C34.1715 24.2152 34.1734 23.8508 34.1754 23.4864C34.1776 23.0491 34.1785 22.6117 34.1795 22.1744C34.1813 21.5102 34.1849 19.9976 34.1881 19.3333Z" fill="#ACA612"/>
<path d="M0.393763 50.7356C0.393763 49.6498 0.548881 48.7071 0.859119 47.9077C1.16936 47.0963 1.59892 46.4281 2.1478 45.9031C2.69668 45.3661 3.34698 44.9723 4.09871 44.7218C4.85044 44.4593 5.66183 44.334 6.53288 44.3459C7.26075 44.3578 7.94685 44.4533 8.59119 44.6323C9.23553 44.8113 9.81424 45.0857 10.3273 45.4556C10.8523 45.8136 11.2998 46.267 11.6697 46.8159C12.0396 47.3647 12.314 48.0091 12.493 48.7489L10.8822 49.25C10.739 48.7369 10.5123 48.2776 10.202 47.8719C9.8918 47.4662 9.53383 47.1261 9.12814 46.8517C8.73437 46.5772 8.31078 46.3684 7.85736 46.2252C7.40393 46.0701 6.96244 45.9925 6.53288 45.9925C5.97207 45.9925 5.42319 46.094 4.88624 46.2968C4.36122 46.4997 3.89586 46.8039 3.49017 47.2096C3.08447 47.6034 2.75634 48.0986 2.50576 48.6952C2.26712 49.2799 2.1478 49.96 2.1478 50.7356C2.1478 51.4873 2.25519 52.1615 2.46997 52.7581C2.69668 53.3428 2.99498 53.838 3.36488 54.2437C3.74671 54.6494 4.19417 54.9596 4.70725 55.1744C5.22034 55.3772 5.76922 55.4786 6.3539 55.4786C6.85505 55.4786 7.29058 55.3534 7.66048 55.1028C8.04231 54.8522 8.35851 54.5479 8.60909 54.19C8.87159 53.8201 9.06848 53.4323 9.19973 53.0266C9.34292 52.6089 9.42644 52.2331 9.45031 51.899H7.58888V50.485H11.4549C11.8845 50.485 12.1947 50.5984 12.3856 50.8251C12.5765 51.0399 12.672 51.3382 12.672 51.72V57H10.9538V51.899L10.56 51.9169C10.5361 52.8357 10.4108 53.6232 10.1841 54.2795C9.95742 54.9357 9.64719 55.4786 9.25342 55.9082C8.87159 56.3258 8.41817 56.6361 7.89315 56.8389C7.38007 57.0298 6.81329 57.1253 6.19281 57.1253C5.32176 57.1253 4.52827 56.994 3.81234 56.7315C3.10834 56.469 2.4998 56.0753 1.98671 55.5502C1.48556 55.0252 1.0918 54.363 0.805424 53.5635C0.530983 52.7641 0.393763 51.8214 0.393763 50.7356ZM13.6111 50.4492C13.6111 49.6378 13.802 49.0353 14.1838 48.6415C14.5657 48.2477 15.1683 48.0508 15.9916 48.0508H19.5891V49.6975L16.5643 49.7154C16.3137 49.7154 16.1109 49.7273 15.9558 49.7512C15.8007 49.7751 15.6754 49.8347 15.5799 49.9302C15.4964 50.0137 15.4367 50.1449 15.4009 50.3239C15.3771 50.5029 15.3651 50.7475 15.3651 51.0578V57H13.6111V50.4492ZM24.4896 57.1074C23.8334 57.1074 23.2069 57.0179 22.6103 56.8389C22.0137 56.648 21.4887 56.3616 21.0353 55.9798C20.5938 55.598 20.2418 55.1207 19.9793 54.5479C19.7168 53.9752 19.5855 53.301 19.5855 52.5254C19.5855 51.7498 19.7168 51.0757 19.9793 50.5029C20.2418 49.9302 20.5938 49.4529 21.0353 49.0711C21.4887 48.6892 22.0137 48.4088 22.6103 48.2298C23.2069 48.0389 23.8334 47.9435 24.4896 47.9435C25.1459 47.9435 25.7604 48.0389 26.3332 48.2298C26.9178 48.4207 27.425 48.7071 27.8545 49.0889C28.2841 49.4588 28.6241 49.9302 28.8747 50.5029C29.1253 51.0757 29.2506 51.7498 29.2506 52.5254C29.2506 52.6567 29.2506 52.7462 29.2506 52.7939C29.2506 52.8297 29.2387 52.9073 29.2148 53.0266H21.4111C21.5424 53.9215 21.8884 54.5897 22.4492 55.0312C23.01 55.4727 23.7021 55.6875 24.5254 55.6755C25.2175 55.6636 25.8201 55.5323 26.3332 55.2818C26.8582 55.0312 27.246 54.5718 27.4966 53.9036L29.1074 54.1184C28.9403 54.6553 28.7017 55.1147 28.3915 55.4965C28.0932 55.8784 27.7412 56.1886 27.3355 56.4273C26.9298 56.654 26.4823 56.827 25.9931 56.9463C25.5158 57.0537 25.0147 57.1074 24.4896 57.1074ZM24.5254 49.3216C24.1317 49.3216 23.7379 49.3992 23.3441 49.5543C22.9504 49.6975 22.6043 49.9242 22.306 50.2344C22.0077 50.5327 21.7691 50.9146 21.5901 51.3799C21.4231 51.8453 21.3634 52.3942 21.4111 53.0266C21.4827 52.7879 21.5603 52.597 21.6438 52.4538C21.7393 52.3106 21.8467 52.2033 21.966 52.1317C22.0972 52.0601 22.2404 52.0123 22.3955 51.9885C22.5626 51.9646 22.7535 51.9527 22.9683 51.9527H27.586C27.4548 51.0339 27.1147 50.3717 26.5658 49.966C26.0289 49.5483 25.3488 49.3336 24.5254 49.3216ZM34.8895 57.1074C34.2333 57.1074 33.6068 57.0179 33.0102 56.8389C32.4136 56.648 31.8886 56.3616 31.4352 55.9798C30.9937 55.598 30.6417 55.1207 30.3792 54.5479C30.1166 53.9752 29.9854 53.301 29.9854 52.5254C29.9854 51.7498 30.1166 51.0757 30.3792 50.5029C30.6417 49.9302 30.9937 49.4529 31.4352 49.0711C31.8886 48.6892 32.4136 48.4088 33.0102 48.2298C33.6068 48.0389 34.2333 47.9435 34.8895 47.9435C35.5458 47.9435 36.1603 48.0389 36.7331 48.2298C37.3177 48.4207 37.8249 48.7071 38.2544 49.0889C38.684 49.4588 39.024 49.9302 39.2746 50.5029C39.5252 51.0757 39.6505 51.7498 39.6505 52.5254C39.6505 52.6567 39.6505 52.7462 39.6505 52.7939C39.6505 52.8297 39.6385 52.9073 39.6147 53.0266H31.811C31.9423 53.9215 32.2883 54.5897 32.8491 55.0312C33.4099 55.4727 34.102 55.6875 34.9253 55.6755C35.6174 55.6636 36.22 55.5323 36.7331 55.2818C37.2581 55.0312 37.6459 54.5718 37.8964 53.9036L39.5073 54.1184C39.3402 54.6553 39.1016 55.1147 38.7914 55.4965C38.4931 55.8784 38.1411 56.1886 37.7354 56.4273C37.3297 56.654 36.8822 56.827 36.393 56.9463C35.9157 57.0537 35.4145 57.1074 34.8895 57.1074ZM34.9253 49.3216C34.5316 49.3216 34.1378 49.3992 33.744 49.5543C33.3503 49.6975 33.0042 49.9242 32.7059 50.2344C32.4076 50.5327 32.169 50.9146 31.99 51.3799C31.823 51.8453 31.7633 52.3942 31.811 53.0266C31.8826 52.7879 31.9602 52.597 32.0437 52.4538C32.1392 52.3106 32.2465 52.2033 32.3659 52.1317C32.4971 52.0601 32.6403 52.0123 32.7954 51.9885C32.9625 51.9646 33.1534 51.9527 33.3682 51.9527H37.9859C37.8547 51.0339 37.5146 50.3717 36.9657 49.966C36.4288 49.5483 35.7487 49.3336 34.9253 49.3216ZM40.7033 48.0508H42.4573V49.8944C42.4573 50.0734 42.4394 50.2762 42.4036 50.5029C42.3797 50.7177 42.3499 50.9146 42.3141 51.0936L42.3499 51.1115C42.3857 50.9325 42.4275 50.7356 42.4752 50.5208C42.5349 50.306 42.6124 50.1151 42.7079 49.9481C43.0778 49.2321 43.5551 48.7131 44.1397 48.3909C44.7244 48.0687 45.321 47.9077 45.9296 47.9077C46.4904 47.9077 46.9617 48.0329 47.3435 48.2835C47.7373 48.5341 48.0475 48.8682 48.2742 49.2858C48.5129 49.7035 48.6799 50.1867 48.7754 50.7356C48.8828 51.2725 48.9365 51.8393 48.9365 52.4359V57H47.1824V52.4359C47.1824 51.5768 47.0273 50.9026 46.7171 50.4134C46.4069 49.9123 45.9475 49.6617 45.3389 49.6617C45.1122 49.6617 44.8318 49.7154 44.4977 49.8228C44.1755 49.9182 43.8593 50.1151 43.5491 50.4134C43.2508 50.6998 42.9942 51.1055 42.7795 51.6305C42.5647 52.1436 42.4573 52.8178 42.4573 53.653V57H40.7033V48.0508Z" fill="#376D32"/>
<path d="M55.1201 44.4712C56.5042 44.4712 57.5662 44.7337 58.306 45.2587C59.0577 45.7718 59.4336 46.5832 59.4336 47.6929C59.4336 47.8122 59.4037 47.9614 59.3441 48.1403C59.2963 48.3193 59.2128 48.5102 59.0935 48.7131C58.9742 48.904 58.8191 49.0949 58.6281 49.2858C58.4372 49.4648 58.2045 49.6199 57.9301 49.7512C57.7988 49.8228 57.6437 49.8765 57.4647 49.9123C57.2858 49.9361 57.1247 49.954 56.9815 49.966V50.0018C57.1247 49.9898 57.2858 49.9839 57.4647 49.9839C57.6557 49.9719 57.8227 49.9898 57.9659 50.0376C58.3716 50.1449 58.7176 50.306 59.004 50.5208C59.2904 50.7356 59.5231 50.9862 59.702 51.2725C59.893 51.547 60.0302 51.8513 60.1137 52.1854C60.1972 52.5195 60.239 52.8655 60.239 53.2235C60.239 54.5599 59.8333 55.5264 59.0219 56.123C58.2105 56.7077 57.0889 57 55.657 57H50.0012V44.4712H55.1201ZM51.7552 55.3534H55.7644C56.1343 55.3534 56.4863 55.3116 56.8204 55.2281C57.1545 55.1326 57.4468 54.9954 57.6974 54.8164C57.948 54.6255 58.1449 54.3928 58.2881 54.1184C58.4432 53.832 58.5207 53.5039 58.5207 53.134C58.5207 52.5254 58.3119 52.078 57.8943 51.7916C57.4886 51.4933 56.9218 51.3441 56.194 51.3441H51.7552V55.3534ZM51.7552 49.8944H55.9434C56.6593 49.8944 57.1605 49.7333 57.4468 49.4111C57.7452 49.077 57.8943 48.6117 57.8943 48.015C57.8943 47.6571 57.8167 47.3588 57.6616 47.1201C57.5184 46.8696 57.3216 46.6727 57.071 46.5295C56.8323 46.3744 56.5519 46.261 56.2298 46.1894C55.9076 46.1178 55.5735 46.082 55.2275 46.082H51.7552V49.8944ZM60.8492 48.0508H62.7285L65.0374 53.9215C65.1209 54.1124 65.1806 54.3272 65.2164 54.5658C65.2522 54.8045 65.2701 55.0252 65.2701 55.2281H65.3059C65.3059 55.0252 65.3238 54.8045 65.3596 54.5658C65.4073 54.3272 65.4729 54.1124 65.5565 53.9215L67.8832 48.0508H69.7626L65.6638 58.2708C65.4849 58.7719 65.2641 59.1836 65.0016 59.5058C64.7391 59.8279 64.4647 60.0845 64.1783 60.2754C63.8919 60.4663 63.5996 60.5976 63.3013 60.6692C63.0149 60.7407 62.7464 60.7765 62.4958 60.7765H60.9029V59.3626H61.8157C61.9231 59.3626 62.0723 59.3447 62.2632 59.3089C62.4541 59.2731 62.651 59.2075 62.8538 59.112C63.0567 59.0165 63.2476 58.8853 63.4266 58.7182C63.6175 58.5631 63.7547 58.3603 63.8382 58.1097L64.3036 56.6778L60.8492 48.0508ZM70.304 49.6259V47.9793H70.6441C70.8469 47.9793 71.0557 47.8957 71.2705 47.7287C71.4972 47.5616 71.7001 47.3468 71.879 47.0843C72.058 46.8218 72.2072 46.5295 72.3265 46.2073C72.4458 45.8852 72.5055 45.5689 72.5055 45.2587L74.2774 45.2408C74.2535 45.742 74.1342 46.2193 73.9194 46.6727C73.7047 47.1142 73.3885 47.4721 72.9708 47.7466C72.8157 47.842 72.6248 47.9136 72.3981 47.9614C72.1833 47.9972 71.9864 48.0329 71.8074 48.0687V48.1045C71.9864 48.0687 72.1833 48.0389 72.3981 48.015C72.6248 47.9912 72.8276 47.9793 73.0066 47.9793H76.1746V49.6259H73.9015V54.3868C73.9015 54.7806 73.997 55.0431 74.1879 55.1744C74.3788 55.2937 74.6115 55.3534 74.8859 55.3534H76.6042V57H74.9754C74.3908 57 73.9135 56.9463 73.5436 56.8389C73.1737 56.7196 72.8873 56.5406 72.6845 56.302C72.4816 56.0633 72.3384 55.7591 72.2549 55.3892C72.1833 55.0073 72.1475 54.5599 72.1475 54.0468V49.6259H70.304ZM81.5754 57.1074C80.9192 57.1074 80.2927 57.0179 79.6961 56.8389C79.0995 56.648 78.5745 56.3616 78.1211 55.9798C77.6796 55.598 77.3276 55.1207 77.0651 54.5479C76.8026 53.9752 76.6713 53.301 76.6713 52.5254C76.6713 51.7498 76.8026 51.0757 77.0651 50.5029C77.3276 49.9302 77.6796 49.4529 78.1211 49.0711C78.5745 48.6892 79.0995 48.4088 79.6961 48.2298C80.2927 48.0389 80.9192 47.9435 81.5754 47.9435C82.2317 47.9435 82.8462 48.0389 83.419 48.2298C84.0036 48.4207 84.5108 48.7071 84.9403 49.0889C85.3699 49.4588 85.7099 49.9302 85.9605 50.5029C86.2111 51.0757 86.3364 51.7498 86.3364 52.5254C86.3364 52.6567 86.3364 52.7462 86.3364 52.7939C86.3364 52.8297 86.3245 52.9073 86.3006 53.0266H78.4969C78.6282 53.9215 78.9742 54.5897 79.535 55.0312C80.0958 55.4727 80.7879 55.6875 81.6112 55.6755C82.3033 55.6636 82.9059 55.5323 83.419 55.2818C83.944 55.0312 84.3318 54.5718 84.5824 53.9036L86.1932 54.1184C86.0262 54.6553 85.7875 55.1147 85.4773 55.4965C85.179 55.8784 84.827 56.1886 84.4213 56.4273C84.0156 56.654 83.5681 56.827 83.0789 56.9463C82.6016 57.0537 82.1005 57.1074 81.5754 57.1074ZM81.6112 49.3216C81.2175 49.3216 80.8237 49.3992 80.4299 49.5543C80.0362 49.6975 79.6902 49.9242 79.3918 50.2344C79.0935 50.5327 78.8549 50.9146 78.6759 51.3799C78.5089 51.8453 78.4492 52.3942 78.4969 53.0266C78.5685 52.7879 78.6461 52.597 78.7296 52.4538C78.8251 52.3106 78.9325 52.2033 79.0518 52.1317C79.183 52.0601 79.3262 52.0123 79.4813 51.9885C79.6484 51.9646 79.8393 51.9527 80.0541 51.9527H84.6718C84.5406 51.0339 84.2005 50.3717 83.6516 49.966C83.1147 49.5483 82.4346 49.3336 81.6112 49.3216Z" fill="#279E49"/>
</svg>
