<?xml version="1.0" ?><!-- Uploaded to: SVG Repo, www.svgrepo.com, Generator: SVG Repo Mixer Tools -->
<svg fill="#000000" width="200px" height="200px" viewBox="0 0 64 64" data-name="Layer 1" id="Layer_1" xmlns="http://www.w3.org/2000/svg"><title/><path d="M15,34h6L15,24V19A13,13,0,0,0,2,6V62H7V49h7a1,1,0,0,0,1-1V42.33331L10,39h5ZM9.5,23A3.50424,3.50424,0,0,1,6,19.5H7a2.5,2.5,0,0,0,5,0h1A3.50424,3.50424,0,0,1,9.5,23Z"/><path d="M49,19v5L43,34h6v6.5h6v1H49V48a1,1,0,0,0,1,1h7V62h5V6A13,13,0,0,0,49,19Zm8,.5h1a3.5,3.5,0,0,1-7,0h1a2.5,2.5,0,0,0,5,0Z"/><path d="M43,2H21V21h5L24,35l8-14H43ZM30.77393,17.63281a1.002,1.002,0,0,1-.72413.36621C30.0332,18,30.0166,18,30,18a.99771.99771,0,0,1-.707-.293l-5-5L25.707,11.293l4.21875,4.21875L38.22607,5.36719l1.54786,1.26562Z"/></svg>