<?xml version="1.0" encoding="iso-8859-1"?>
<!-- Uploaded to: SVG Repo, www.svgrepo.com, Generator: SVG Repo Mixer Tools -->
<svg version="1.1" id="Capa_1" xmlns="http://www.w3.org/2000/svg" xmlns:xlink="http://www.w3.org/1999/xlink" 
	 viewBox="0 0 480 480" xml:space="preserve">
<g>
	<path style="fill:#E17277;" d="M22.5,360H75h7.5h45h7.5h54.027c12.618-13.824,30.781-22.5,50.973-22.5s38.355,8.676,50.973,22.5
		H345h7.5h45h7.5h52.5V150h-435V360z M330,270v-7.5V240v-7.5c0-24.851,20.147-45,45-45s45,20.149,45,45v7.5v22.5v7.5v30h-41.25h-7.5
		H330V270z M195,270v-7.5V240v-7.5c0-24.851,20.147-45,45-45s45,20.149,45,45v7.5v22.5v7.5v30h-41.25h-7.5H195V270z M60,270v-7.5
		V240v-7.5c0-24.851,20.147-45,45-45s45,20.149,45,45v7.5v22.5v7.5v30h-41.25h-7.5H60V270z"/>
	<path style="fill:#826E77;" d="M189.027,360H135v7.5v15v7.5v45v7.5h-7.5h-45H75V435v-45v-7.5v-15V360H22.5v7.5V480H171v-73.5
		C171,388.585,177.831,372.266,189.027,360z"/>
	<path style="fill:#826E77;" d="M405,367.5v15v7.5v45v7.5h-7.5h-45H345V435v-45v-7.5v-15V360h-54.027
		C302.169,372.266,309,388.585,309,406.5V480h148.5V367.5V360H405V367.5z"/>
	<path style="fill:#826E77;" d="M412.5,0h-345L0,150h22.5h435H480L412.5,0z M180,82.5v30h-60v-30V75
		c0-7.625,2.851-14.583,7.538-19.876c0.171-1.353,1.233-2.416,2.586-2.586C135.417,47.851,142.374,45,150,45
		c7.626,0,14.583,2.851,19.876,7.538c1.353,0.171,2.415,1.233,2.586,2.586C177.15,60.417,180,67.374,180,75V82.5z M270,82.5v30h-60
		v-30V75c0-7.625,2.851-14.583,7.538-19.876c0.171-1.353,1.233-2.416,2.586-2.586C225.417,47.851,232.374,45,240,45
		c7.626,0,14.583,2.851,19.876,7.538c1.353,0.171,2.415,1.233,2.586,2.586C267.15,60.417,270,67.374,270,75V82.5z M360,82.5v30h-60
		v-30V75c0-7.625,2.851-14.583,7.538-19.876c0.171-1.353,1.233-2.416,2.586-2.586C315.417,47.851,322.374,45,330,45
		c7.626,0,14.583,2.851,19.876,7.538c1.353,0.171,2.415,1.233,2.586,2.586C357.15,60.417,360,67.374,360,75V82.5z"/>
	<polygon style="fill:#95FFFF;" points="108.75,292.5 120,292.5 108.75,281.25 	"/>
	<polygon style="fill:#95FFFF;" points="101.25,273.75 97.5,270 67.5,270 67.5,292.5 101.25,292.5 	"/>
	<polygon style="fill:#95FFFF;" points="67.5,262.5 90,262.5 67.5,240 	"/>
	<rect x="108.75" y="240" style="fill:#80D7F0;" width="33.75" height="22.5"/>
	<polygon style="fill:#80D7F0;" points="90,262.5 101.25,262.5 101.25,240 67.5,240 	"/>
	<polygon style="fill:#80D7F0;" points="108.75,281.25 120,292.5 142.5,292.5 142.5,270 108.75,270 	"/>
	<polygon style="fill:#80D7F0;" points="101.25,270 97.5,270 101.25,273.75 	"/>
	<path style="fill:#6EB1E2;" d="M101.25,195.381C82.353,197.292,67.5,213.109,67.5,232.5h33.75V195.381z"/>
	<path style="fill:#6EB1E2;" d="M108.75,195.381V232.5h33.75C142.5,213.109,127.647,197.292,108.75,195.381z"/>
	<path style="fill:#695A69;" d="M108.75,300H150v-30v-7.5V240v-7.5c0-24.851-20.147-45-45-45s-45,20.149-45,45v7.5v22.5v7.5v30
		h41.25H108.75z M101.25,262.5H90H67.5V240h33.75V262.5z M142.5,292.5H120h-11.25v-11.25V270h33.75V292.5z M142.5,262.5h-33.75V240
		h33.75V262.5z M108.75,195.381c18.897,1.912,33.75,17.728,33.75,37.119h-33.75V195.381z M101.25,195.381V232.5H67.5
		C67.5,213.109,82.353,197.292,101.25,195.381z M67.5,270h30h3.75v3.75v18.75H67.5V270z"/>
	<path style="fill:#695A69;" d="M290.973,360c-12.618-13.824-30.781-22.5-50.973-22.5s-38.355,8.676-50.973,22.5
		C177.831,372.266,171,388.585,171,406.5V480h138v-73.5C309,388.585,302.169,372.266,290.973,360z"/>
	<polygon style="fill:#95FFFF;" points="82.5,435 127.5,435 82.5,390 	"/>
	<polygon style="fill:#80D7F0;" points="127.5,435 127.5,390 82.5,390 	"/>
	<rect x="82.5" y="367.5" style="fill:#6EB1E2;" width="45" height="15"/>
	<path style="fill:#695A69;" d="M75,382.5v7.5v45v7.5h7.5h45h7.5V435v-45v-7.5v-15V360h-7.5h-45H75v7.5V382.5z M127.5,435h-45v-45
		h45V435z M127.5,367.5v15h-45v-15H127.5z"/>
	<polygon style="fill:#95FFFF;" points="127.5,105 150,105 127.5,82.5 	"/>
	<path style="fill:#6EB1E2;" d="M172.462,55.124c-0.171-1.353-1.233-2.415-2.586-2.586C170.79,53.347,171.653,54.21,172.462,55.124z
		"/>
	<path style="fill:#6EB1E2;" d="M130.124,52.538c-1.353,0.171-2.415,1.233-2.586,2.586C128.347,54.21,129.211,53.347,130.124,52.538
		z"/>
	<path style="fill:#6EB1E2;" d="M150,52.5c-12.406,0-22.5,10.093-22.5,22.5h45C172.5,62.593,162.406,52.5,150,52.5z"/>
	<path style="fill:#695A69;" d="M169.876,52.538C164.583,47.851,157.626,45,150,45c-7.626,0-14.583,2.851-19.876,7.538
		c-0.914,0.809-1.777,1.673-2.586,2.586C122.851,60.417,120,67.375,120,75v7.5v30h60v-30V75c0-7.626-2.85-14.583-7.538-19.876
		C171.653,54.21,170.79,53.347,169.876,52.538z M172.5,105H150h-22.5V82.5h45V105z M127.5,75c0-12.407,10.094-22.5,22.5-22.5
		s22.5,10.093,22.5,22.5H127.5z"/>
	<polygon style="fill:#80D7F0;" points="150,105 172.5,105 172.5,82.5 127.5,82.5 	"/>
	<polygon style="fill:#95FFFF;" points="217.5,105 240,105 217.5,82.5 	"/>
	<path style="fill:#6EB1E2;" d="M220.124,52.538c-1.353,0.171-2.415,1.233-2.586,2.586C218.347,54.21,219.211,53.347,220.124,52.538
		z"/>
	<path style="fill:#6EB1E2;" d="M262.462,55.124c-0.171-1.353-1.233-2.415-2.586-2.586C260.79,53.347,261.653,54.21,262.462,55.124z
		"/>
	<path style="fill:#6EB1E2;" d="M240,52.5c-12.406,0-22.5,10.093-22.5,22.5h45C262.5,62.593,252.406,52.5,240,52.5z"/>
	<path style="fill:#695A69;" d="M259.876,52.538C254.583,47.851,247.626,45,240,45c-7.626,0-14.583,2.851-19.876,7.538
		c-0.914,0.809-1.777,1.673-2.586,2.586C212.851,60.417,210,67.375,210,75v7.5v30h60v-30V75c0-7.626-2.85-14.583-7.538-19.876
		C261.653,54.21,260.79,53.347,259.876,52.538z M262.5,105H240h-22.5V82.5h45V105z M217.5,75c0-12.407,10.094-22.5,22.5-22.5
		s22.5,10.093,22.5,22.5H217.5z"/>
	<polygon style="fill:#80D7F0;" points="240,105 262.5,105 262.5,82.5 217.5,82.5 	"/>
	<polygon style="fill:#95FFFF;" points="307.5,105 330,105 307.5,82.5 	"/>
	<path style="fill:#6EB1E2;" d="M352.462,55.124c-0.171-1.353-1.233-2.415-2.586-2.586C350.79,53.347,351.653,54.21,352.462,55.124z
		"/>
	<path style="fill:#6EB1E2;" d="M310.124,52.538c-1.353,0.171-2.415,1.233-2.586,2.586C308.347,54.21,309.211,53.347,310.124,52.538
		z"/>
	<path style="fill:#6EB1E2;" d="M330,52.5c-12.406,0-22.5,10.093-22.5,22.5h45C352.5,62.593,342.406,52.5,330,52.5z"/>
	<path style="fill:#695A69;" d="M349.876,52.538C344.583,47.851,337.626,45,330,45c-7.626,0-14.583,2.851-19.876,7.538
		c-0.914,0.809-1.777,1.673-2.586,2.586C302.851,60.417,300,67.375,300,75v7.5v30h60v-30V75c0-7.626-2.85-14.583-7.538-19.876
		C351.653,54.21,350.79,53.347,349.876,52.538z M352.5,105H330h-22.5V82.5h45V105z M307.5,75c0-12.407,10.094-22.5,22.5-22.5
		s22.5,10.093,22.5,22.5H307.5z"/>
	<polygon style="fill:#80D7F0;" points="330,105 352.5,105 352.5,82.5 307.5,82.5 	"/>
	<polygon style="fill:#95FFFF;" points="243.75,292.5 255,292.5 243.75,281.25 	"/>
	<polygon style="fill:#95FFFF;" points="236.25,273.75 232.5,270 202.5,270 202.5,292.5 236.25,292.5 	"/>
	<polygon style="fill:#95FFFF;" points="202.5,262.5 225,262.5 202.5,240 	"/>
	<polygon style="fill:#80D7F0;" points="236.25,270 232.5,270 236.25,273.75 	"/>
	<rect x="243.75" y="240" style="fill:#80D7F0;" width="33.75" height="22.5"/>
	<polygon style="fill:#80D7F0;" points="225,262.5 236.25,262.5 236.25,240 202.5,240 	"/>
	<polygon style="fill:#80D7F0;" points="243.75,281.25 255,292.5 277.5,292.5 277.5,270 243.75,270 	"/>
	<path style="fill:#6EB1E2;" d="M243.75,195.381V232.5h33.75C277.5,213.109,262.647,197.292,243.75,195.381z"/>
	<path style="fill:#6EB1E2;" d="M236.25,195.381c-18.897,1.912-33.75,17.728-33.75,37.119h33.75V195.381z"/>
	<path style="fill:#695A69;" d="M243.75,300H285v-30v-7.5V240v-7.5c0-24.851-20.147-45-45-45s-45,20.149-45,45v7.5v22.5v7.5v30
		h41.25H243.75z M236.25,262.5H225h-22.5V240h33.75V262.5z M277.5,292.5H255h-11.25v-11.25V270h33.75V292.5z M277.5,262.5h-33.75
		V240h33.75V262.5z M243.75,195.381c18.897,1.912,33.75,17.728,33.75,37.119h-33.75V195.381z M236.25,195.381V232.5H202.5
		C202.5,213.109,217.353,197.292,236.25,195.381z M202.5,270h30h3.75v3.75v18.75H202.5V270z"/>
	<polygon style="fill:#95FFFF;" points="371.25,273.75 367.5,270 337.5,270 337.5,292.5 371.25,292.5 	"/>
	<polygon style="fill:#95FFFF;" points="378.75,292.5 390,292.5 378.75,281.25 	"/>
	<polygon style="fill:#95FFFF;" points="337.5,262.5 360,262.5 337.5,240 	"/>
	<rect x="378.75" y="240" style="fill:#80D7F0;" width="33.75" height="22.5"/>
	<polygon style="fill:#80D7F0;" points="360,262.5 371.25,262.5 371.25,240 337.5,240 	"/>
	<polygon style="fill:#80D7F0;" points="371.25,270 367.5,270 371.25,273.75 	"/>
	<polygon style="fill:#80D7F0;" points="378.75,281.25 390,292.5 412.5,292.5 412.5,270 378.75,270 	"/>
	<path style="fill:#6EB1E2;" d="M371.25,195.381c-18.897,1.912-33.75,17.728-33.75,37.119h33.75V195.381z"/>
	<path style="fill:#6EB1E2;" d="M378.75,195.381V232.5h33.75C412.5,213.109,397.647,197.292,378.75,195.381z"/>
	<path style="fill:#695A69;" d="M378.75,300H420v-30v-7.5V240v-7.5c0-24.851-20.147-45-45-45s-45,20.149-45,45v7.5v22.5v7.5v30
		h41.25H378.75z M371.25,262.5H360h-22.5V240h33.75V262.5z M412.5,292.5H390h-11.25v-11.25V270h33.75V292.5z M412.5,262.5h-33.75
		V240h33.75V262.5z M378.75,195.381c18.897,1.912,33.75,17.728,33.75,37.119h-33.75V195.381z M371.25,195.381V232.5H337.5
		C337.5,213.109,352.353,197.292,371.25,195.381z M337.5,270h30h3.75v3.75v18.75H337.5V270z"/>
	<polygon style="fill:#95FFFF;" points="352.5,435 397.5,435 352.5,390 	"/>
	<polygon style="fill:#80D7F0;" points="397.5,435 397.5,390 352.5,390 	"/>
	<rect x="352.5" y="367.5" style="fill:#6EB1E2;" width="45" height="15"/>
	<path style="fill:#695A69;" d="M345,382.5v7.5v45v7.5h7.5h45h7.5V435v-45v-7.5v-15V360h-7.5h-45H345v7.5V382.5z M397.5,435h-45v-45
		h45V435z M397.5,367.5v15h-45v-15H397.5z"/>
</g>
</svg>