<?xml version="1.0" encoding="utf-8"?>

<!DOCTYPE svg PUBLIC "-//W3C//DTD SVG 1.1//EN" "http://www.w3.org/Graphics/SVG/1.1/DTD/svg11.dtd">
<!-- Uploaded to: SVG Repo, www.svgrepo.com, Generator: SVG Repo Mixer Tools -->
<svg height="800px" width="800px" version="1.1" id="_x32_" xmlns="http://www.w3.org/2000/svg" xmlns:xlink="http://www.w3.org/1999/xlink" 
	 viewBox="0 0 512 512"  xml:space="preserve">
<style type="text/css">
	.st0{fill:#000000;}
</style>
<g>
	<path class="st0" d="M204.762,254.456l34.212-34.204c-39.807-18.293-88.544-11.079-121.29,21.675
		c-42.013,42.006-42.013,110.372,0,152.393c42.005,42.014,110.38,42.014,152.386,0c32.746-32.745,39.968-81.49,21.675-121.298
		l-34.211,34.211c3.381,19.976-2.553,41.224-17.939,56.604c-25.21,25.218-66.225,25.218-91.434,0
		c-25.21-25.21-25.21-66.224,0-91.427C163.546,257.016,184.794,251.074,204.762,254.456z"/>
	<path class="st0" d="M323.628,241.146c34.324,57.876,26.642,133.939-23.076,183.65c-58.826,58.826-154.527,58.826-213.345,0
		c-58.826-58.817-58.826-154.527,0-213.352c49.703-49.711,125.775-57.393,183.65-23.076l31.216-31.225
		c-75.387-50.693-178.754-42.77-245.35,23.817c-75.629,75.621-75.629,198.69,0,274.311c75.63,75.638,198.683,75.638,274.312,0
		c66.603-66.595,74.518-169.962,23.809-245.358L323.628,241.146z"/>
	<path class="st0" d="M511.279,84.84c-1.61-4.195-5.684-6.78-10.298-6.57l-70.565,3.31l3.318-70.556
		c0.201-4.622-2.384-8.68-6.578-10.306c-4.17-1.61-9.122-0.451-12.52,2.931l-75.299,75.306l-3.809,81.322L198.634,297.162
		c-6.964-1.578-14.565,0.29-19.992,5.716c-8.422,8.422-8.422,22.062,0,30.484c8.414,8.422,22.062,8.422,30.484,0
		c5.418-5.427,7.295-13.028,5.716-20l136.886-136.894l81.314-3.8l75.307-75.316C511.739,93.963,512.89,89.026,511.279,84.84z"/>
</g>
</svg>