<svg width="193" height="30" viewBox="0 0 193 30" fill="none" xmlns="http://www.w3.org/2000/svg">
<path d="M39.2984 15.8388C39.2984 10.6001 42.8546 7.69368 46.9133 7.69368C48.2721 7.66718 49.6204 7.93661 50.8644 8.48324V12.7175H50.6852L48.5657 10.026C47.8823 9.42948 46.9941 9.1208 46.0877 9.16479C43.5022 9.16479 42.0643 11.3897 42.0643 14.6911C42.0643 19.2841 44.3272 21.1861 47.3804 21.1861C48.6685 21.1876 49.9381 20.88 51.0824 20.2891L51.4779 21.0429C50.0078 22.3888 48.0841 23.1319 46.09 23.1239C41.5278 23.1239 39.3013 19.7514 39.3013 15.8394" fill="#291F87"/>
<path d="M66.0431 21.1504V22.7647H61.1941V21.2936C59.5059 22.4418 58.0333 23.124 56.4526 23.124C54.3337 23.124 52.8605 21.1281 52.8605 19.0799C52.8605 15.7784 56.3369 13.4708 61.1941 13.4708C61.1941 10.636 60.5477 9.63153 57.9252 9.63153C56.4284 9.64409 54.9725 10.1206 53.7584 10.9952L53.2918 10.134C54.9442 8.55491 56.5966 7.69373 58.8953 7.69373C61.8052 7.69373 63.7085 9.38028 63.7085 12.3941V20.969L63.8883 21.1486L66.0431 21.1504ZM61.1941 20.6479V14.1318C58.1385 14.3472 55.4108 16.2075 55.4108 18.6114C55.39 18.9383 55.4339 19.2661 55.5401 19.576C55.6462 19.8859 55.8125 20.1719 56.0294 20.4175C56.2463 20.6631 56.5096 20.8636 56.8041 21.0075C57.0987 21.1514 57.4187 21.2358 57.746 21.256C58.9205 21.2372 60.0845 21.0313 61.1941 20.6461" fill="#291F87"/>
<path d="M166.374 21.1504V22.7647H161.525V21.2936C159.837 22.4418 158.364 23.124 156.784 23.124C154.664 23.124 153.192 21.1281 153.192 19.0799C153.192 15.7784 156.668 13.4708 161.525 13.4708C161.525 10.636 160.879 9.63153 158.256 9.63153C156.759 9.64409 155.303 10.1206 154.089 10.9952L153.623 10.134C155.275 8.55491 156.928 7.69373 159.226 7.69373C162.136 7.69373 164.039 9.38028 164.039 12.3941V20.969L164.219 21.1486L166.374 21.1504ZM161.525 20.6479V14.1318C158.469 14.3472 155.742 16.2075 155.742 18.6114C155.721 18.9383 155.765 19.2661 155.871 19.576C155.977 19.8859 156.144 20.1719 156.36 20.4175C156.577 20.6631 156.841 20.8636 157.135 21.0075C157.43 21.1514 157.75 21.2358 158.077 21.256C159.251 21.2372 160.415 21.0313 161.525 20.6461" fill="#291F87"/>
<path d="M77.89 7.94498V10.5643C77.2867 10.4442 76.673 10.384 76.0578 10.3847C74.7859 10.4113 73.5209 10.5798 72.2865 10.8872V20.9707L72.4663 21.1504H75.1605V22.7653H67.4375V21.1504H69.5929L69.7727 20.9707V11.2107L67.3635 10.0624V9.88338L71.7118 7.65851L71.9275 7.76594L72.2865 10.2062C73.7949 9.09088 75.8063 7.69432 76.9915 7.69432C77.3087 7.69068 77.6203 7.77787 77.8894 7.94557" fill="#291F87"/>
<path d="M93.3013 14.9782C93.3013 19.1409 90.9309 23.124 85.5448 23.124C83.5319 23.1405 81.5377 22.737 79.6898 21.9393V3.58855L77.2806 2.44031V2.26068L81.9868 0L82.2024 0.108015V9.70313C83.9271 8.66231 85.7945 7.6937 87.6625 7.6937C91.2182 7.6937 93.3036 11.2817 93.3036 14.9776L93.3013 14.9782ZM90.5377 15.7672C90.5377 12.4299 89.2808 9.81055 86.1559 9.81055C84.8229 9.8106 83.4953 9.97945 82.2048 10.3131V20.2528C82.702 20.7471 83.2984 21.1306 83.9547 21.3779C84.611 21.6253 85.3124 21.731 86.0125 21.6881C89.1733 21.6881 90.5372 19.5706 90.5372 15.7672" fill="#291F87"/>
<path d="M94.9901 15.6962C94.9901 11.4261 97.7919 7.69373 102.57 7.69373C106.63 7.69373 109.718 10.4569 109.718 15.1215C109.718 19.3558 106.88 23.124 102.211 23.124C98.0445 23.124 94.9919 20.325 94.9919 15.6962H94.9901ZM106.917 16.0191C106.917 12.0718 104.798 9.12962 101.996 9.12962C99.6252 9.12962 97.7578 10.8907 97.7578 14.7652C97.7578 18.5334 99.7692 21.6922 102.678 21.6922C105.157 21.6922 106.917 19.8618 106.917 16.0226" fill="#291F87"/>
<path d="M127.687 21.1504V22.7653H120.323V21.1504H122.658L122.838 20.9707V14.1529C122.838 11.0668 122.191 9.99022 119.533 9.99022C118.19 10.0182 116.854 10.1866 115.546 10.4927V20.9707L115.726 21.1504H118.06V22.7653H110.697V21.1504H112.852L113.032 20.9707V11.2107L110.623 10.0624V9.88338L114.971 7.65851L115.187 7.76594L115.474 9.81176C117.594 8.44807 119.282 7.6949 120.683 7.6949C123.915 7.6949 125.352 9.20183 125.352 11.8934V20.9707L125.532 21.1504H127.687Z" fill="#291F87"/>
<path d="M143.739 14.9783C143.739 19.0693 141.009 23.124 136.268 23.124C134.993 23.1501 133.733 22.8539 132.604 22.2628V27.5573L132.784 27.7369H135.478V29.3519H127.754V27.7369H129.91L130.089 27.5573V11.2107L127.68 10.0624V9.88338L132.029 7.65851L132.244 7.76594L132.567 9.81117C134.33 8.66293 136.016 7.69432 138.028 7.69432C141.619 7.69432 143.739 11.2823 143.739 14.9783V14.9783ZM140.973 15.7678C140.973 12.4305 139.715 9.81117 136.591 9.81117C135.238 9.83896 133.896 10.0563 132.604 10.4569V19.4638C133.286 20.8633 134.759 21.6887 136.627 21.6887C139.428 21.6887 140.975 19.3922 140.975 15.7678" fill="#291F87"/>
<path d="M144.497 21.1503H146.651L146.831 20.9707V3.58855L144.422 2.44031V2.26068L149.13 0L149.345 0.107428V20.9707L149.525 21.1503H151.859V22.7653H144.497V21.1503Z" fill="#291F87"/>
<path d="M167.075 15.8388C167.075 10.6001 170.631 7.69368 174.69 7.69368C176.049 7.66718 177.397 7.93661 178.641 8.48324V12.7175H178.459L176.343 10.026C175.66 9.42948 174.772 9.1208 173.866 9.16479C171.28 9.16479 169.842 11.3897 169.842 14.6911C169.842 19.2841 172.105 21.1861 175.158 21.1861C176.446 21.1877 177.716 20.88 178.86 20.2891L179.255 21.0429C177.785 22.3888 175.861 23.1319 173.867 23.1239C169.305 23.1239 167.079 19.7514 167.079 15.8394" fill="#291F87"/>
<path d="M192.926 14.7628H183.012C183.048 19.4638 185.491 21.1862 188.723 21.1862C190.011 21.1877 191.281 20.88 192.425 20.2892L192.821 21.0423C191.285 22.3975 189.302 23.1387 187.253 23.124C182.871 23.124 180.249 19.8225 180.249 15.7314C180.249 10.4563 184.056 7.6579 187.325 7.6579C190.306 7.6579 193 9.41901 193 13.5424C193 13.9374 192.964 14.3319 192.928 14.7622L192.926 14.7628ZM183.086 13.4707H190.197C190.124 10.4927 189.011 9.12666 187.072 9.12666C185.348 9.12666 183.444 10.242 183.085 13.4707" fill="#291F87"/>
<path d="M6.52661 7.5123C8.54577 5.53106 11.2628 4.42099 14.093 4.42099C16.9232 4.42099 19.6403 5.53106 21.6594 7.5123V3.32732C19.3974 1.89169 16.7729 1.12927 14.093 1.12927C11.4131 1.12927 8.78864 1.89169 6.52661 3.32732V7.5123Z" fill="#291F87"/>
<path d="M21.7975 22.7676H25.9866C27.4236 20.5078 28.1867 17.8859 28.1867 15.2086C28.1867 12.5314 27.4236 9.90949 25.9866 7.64966H21.7975C23.7807 9.66683 24.8918 12.3812 24.8918 15.2086C24.8918 18.036 23.7807 20.7504 21.7975 22.7676" fill="#291F87"/>
<path d="M2.19999 7.65027C0.763083 9.91012 0 12.532 0 15.2092C0 17.8865 0.763083 20.5084 2.19999 22.7682H6.3885C4.40546 20.751 3.29439 18.0366 3.29439 15.2092C3.29439 12.3819 4.40546 9.66751 6.3885 7.65027H2.19999Z" fill="#291F87"/>
<path d="M21.6594 22.9056C19.6403 24.8868 16.9232 25.9969 14.093 25.9969C11.2628 25.9969 8.54577 24.8868 6.52661 22.9056V27.0911C8.78866 28.5267 11.4131 29.2891 14.093 29.2891C16.7729 29.2891 19.3974 28.5267 21.6594 27.0911V22.9056Z" fill="#291F87"/>
</svg>
