<svg class="svg-icon" style="width: 1em;height: 1em;vertical-align: middle;fill: currentColor;overflow: hidden;" viewBox="0 0 1024 1024" version="1.1" xmlns="http://www.w3.org/2000/svg"><path d="M623.908571 438.125714V381.074286C623.908571 171.446857 573.220571 0 516.096 0c-57.197714 12.726857-107.958857 184.173714-107.958857 393.728v57.051429c31.744-25.307429 69.851429-44.397714 107.958857-44.397715 38.034286 0 76.214857 6.363429 107.958857 31.744z m158.793143 247.661715a192.950857 192.950857 0 0 0-44.470857-31.744c-6.363429 38.034286-19.017143 69.851429-38.034286 101.595428-25.453714 31.744-57.197714 50.834286-95.305142 57.124572 12.726857 12.726857 25.380571 25.453714 44.470857 38.107428 165.083429 133.339429 330.166857 203.190857 361.910857 158.72 31.744-44.397714-69.851429-190.464-228.571429-323.803428z m-463.579428 69.851428a172.397714 172.397714 0 0 1-38.034286-107.958857c-12.726857 12.726857-31.817143 19.017143-44.470857 31.744C71.533714 812.763429-30.061714 958.902857 7.972571 1003.300571c38.107429 44.470857 196.900571-25.380571 361.984-158.72 12.726857-12.726857 25.380571-25.453714 44.470858-38.107428-38.107429 0-69.851429-19.017143-95.305143-50.834286z m196.900571-228.571428c-50.834286 0-88.941714 38.034286-88.941714 88.868571 0 50.834286 38.107429 88.868571 88.941714 88.868571 50.761143 0 88.868571-38.034286 88.868572-88.868571 0-44.470857-38.034286-88.868571-88.868572-88.868571z" fill="#000000" /></svg>